SplineFontDB: 3.0
FontName: Comme-SemiBold
FullName: Comme SemiBold
FamilyName: Comme
Weight: SemiBold
Copyright: Digitized data Copyright (c) 2011-2014, vernon adams.
Version: 2
ItalicAngle: 0
UnderlinePosition: 0
UnderlineWidth: 0
Ascent: 1638
Descent: 410
UFOAscent: 1560
UFODescent: -556
LayerCount: 2
Layer: 0 0 "Back"  1
Layer: 1 0 "Fore"  0
OS2Version: 0
OS2_WeightWidthSlopeOnly: 0
OS2_UseTypoMetrics: 0
CreationTime: 1391034854
ModificationTime: 1391035231
PfmFamily: 0
TTFWeight: 100
TTFWidth: 5
LineGap: 0
VLineGap: 0
OS2TypoAscent: 2416
OS2TypoAOffset: 0
OS2TypoDescent: -512
OS2TypoDOffset: 0
OS2TypoLinegap: 0
OS2WinAscent: 2416
OS2WinAOffset: 0
OS2WinDescent: 512
OS2WinDOffset: 0
HheadAscent: 0
HheadAOffset: 1
HheadDescent: 0
HheadDOffset: 1
OS2Vendor: 'NeWT'
Lookup: 4 0 1 "ligaStandardLigatureslookup0"  {"ligaStandardLigatureslookup0 subtable"  } ['liga' ('latn' <'dflt' > 'grek' <'dflt' > 'DFLT' <'dflt' > ) ]
DEI: 91125
LangName: 1033 "" "" "" "" "" "Version 2" "" "Comme is a trademark of Vernon Adams and may be registered in certain jurisdictions." "newtypography" "Vernon Adams" "" "newtypography.co.uk" "newtypography.co.uk" "Copyright (c) 2014, vernon adams.+AAoACgAA-This Font Software is licensed under the SIL Open Font License, Version 1.1.+AAoA-This license is available with a FAQ at:+AAoA-http://scripts.sil.org/OFL+AAoA" "http://scripts.sil.org/OFL" "" "Comme" "SemiBold" 
PickledData: "(dp1
S'public.glyphOrder'
p2
(S'A'
S'Agrave'
S'Aacute'
S'Acircumflex'
S'Atilde'
S'Adieresis'
S'Aring'
S'Amacron'
S'Abreve'
S'Aogonek'
S'uni01CD'
S'uni0200'
S'uni0202'
S'uni0226'
S'B'
S'uni1E02'
S'C'
S'Ccedilla'
S'Cacute'
S'Ccircumflex'
S'Cdotaccent'
S'Ccaron'
S'D'
S'Dcaron'
S'uni1E0A'
S'E'
S'Egrave'
S'Eacute'
S'Ecircumflex'
S'Edieresis'
S'Emacron'
S'Ebreve'
S'Edotaccent'
S'Eogonek'
S'Ecaron'
S'uni0204'
S'uni0206'
S'uni0228'
S'uni1EBC'
S'F'
S'uni1E1E'
S'G'
S'Gcircumflex'
S'Gbreve'
S'Gdotaccent'
S'Gcommaaccent'
S'Gcaron'
S'uni01F4'
S'H'
S'Hcircumflex'
S'uni021E'
S'I'

StartChar: A
Encoding: 65 65 0
Width: 1479
VWidth: 0
GlyphClass: 2
Flags: HW
PickledData: "(dp1
S'org.pippin.gimp.org.kernagic'
p2
(dp3
S'lstem'
p4
I0
sS'rstem'
p5
I0
ssS'com.typemytype.robofont.layerData'
p6
(dp7
sS'org.robofab.postScriptHintData'
p8
(dp9
s."
AnchorPoint: "bot" 742 0 basechar 0
AnchorPoint: "ogonek" 1275 0 basechar 0
AnchorPoint: "top" 742 1456 basechar 0
LayerCount: 2
Fore
SplineSet
571 1456 m 1
 909 1456 l 1
 1421 0 l 1
 1133 0 l 1
 989 408 l 1
 486 408 l 1
 346 0 l 1
 58 0 l 1
 571 1456 l 1
544 590 m 1
 935 590 l 1
 739 1211 l 1
 544 590 l 1
EndSplineSet
EndChar

StartChar: AE
Encoding: 198 198 1
Width: 1826
VWidth: 0
GlyphClass: 2
Flags: HW
PickledData: "(dp1
S'org.pippin.gimp.org.kernagic'
p2
(dp3
S'lstem'
p4
I0
sS'rstem'
p5
I0
ssS'com.typemytype.robofont.layerData'
p6
(dp7
sS'org.robofab.postScriptHintData'
p8
(dp9
s."
LayerCount: 2
Fore
SplineSet
873 587 m 1
 873 1170 l 1
 558 587 l 1
 873 587 l 1
795 1456 m 1
 1726 1456 l 1
 1713 1264 l 1
 1108 1264 l 1
 1108 846 l 1
 1674 846 l 1
 1674 652 l 1
 1108 652 l 1
 1108 198 l 1
 1746 198 l 1
 1735 0 l 1
 873 0 l 1
 873 410 l 1
 473 410 l 1
 248 0 l 1
 -41 0 l 1
 795 1456 l 1
EndSplineSet
EndChar

StartChar: B
Encoding: 66 66 13
Width: 1409
VWidth: 0
GlyphClass: 2
Flags: HW
PickledData: "(dp1
S'org.pippin.gimp.org.kernagic'
p2
(dp3
S'lstem'
p4
I0
sS'rstem'
p5
I0
ssS'com.typemytype.robofont.layerData'
p6
(dp7
sS'org.robofab.postScriptHintData'
p8
(dp9
s."
AnchorPoint: "top" 679 1456 basechar 0
LayerCount: 2
Fore
SplineSet
584 -4 m 0
 470 -4 337 2 187 14 c 1
 187 1444 l 1
 354 1459 499 1466 622 1466 c 0
 1071 1466 1256 1359 1256 1091 c 0
 1256 951 1167 841 987 786 c 1
 1207 739 1301 629 1301 433 c 0
 1301 137 1133 -4 584 -4 c 0
475 1274 m 1
 475 863 l 1
 688 863 l 2
 846 863 967 906 967 1065 c 0
 967 1226 882 1280 641 1280 c 0
 589 1280 531 1278 475 1274 c 1
475 685 m 1
 475 196 l 1
 522 193 572 191 618 191 c 0
 952 191 1015 276 1015 444 c 0
 1015 633 908 685 679 685 c 2
 475 685 l 1
EndSplineSet
EndChar

StartChar: C
Encoding: 67 67 14
Width: 1513
VWidth: 0
GlyphClass: 2
Flags: HW
PickledData: "(dp1
S'org.pippin.gimp.org.kernagic'
p2
(dp3
S'lstem'
p4
I0
sS'rstem'
p5
I0
ssS'com.typemytype.robofont.layerData'
p6
(dp7
sS'org.robofab.postScriptHintData'
p8
(dp9
s."
AnchorPoint: "bot" 826 0 basechar 0
AnchorPoint: "top" 828 1456 basechar 0
LayerCount: 2
Fore
SplineSet
1413 1062 m 1
 1204 980 l 1
 1182 980 l 1
 1147 1124 1031 1270 851 1270 c 0
 592 1270 436 1114 436 731 c 0
 436 351 598 186 834 186 c 0
 1026 186 1148 326 1184 476 c 1
 1206 476 l 1
 1415 394 l 1
 1370 182 1175 -20 825 -20 c 0
 399 -20 134 251 134 731 c 0
 134 1206 399 1477 825 1477 c 0
 1167 1477 1369 1272 1413 1062 c 1
EndSplineSet
EndChar

StartChar: D
Encoding: 68 68 21
Width: 1527
VWidth: 0
GlyphClass: 2
Flags: HW
PickledData: "(dp1
S'org.pippin.gimp.org.kernagic'
p2
(dp3
S'lstem'
p4
I0
sS'rstem'
p5
I0
ssS'com.typemytype.robofont.layerData'
p6
(dp7
sS'com.fontlab.hintData'
p8
(dp9
S'vhints'
p10
((dp11
S'position'
p12
I1280
sS'width'
p13
I122
stp14
sS'hhints'
p15
((dp16
g12
I0
sg13
I94
s(dp17
g12
I1355
sg13
I94
stp18
ssS'org.robofab.postScriptHintData'
p19
(dp20
s."
HStem: 0 94 1355 94
VStem: 1280 122
AnchorPoint: "mid" 342 757 basechar 0
AnchorPoint: "bot" 774 0 basechar 0
AnchorPoint: "top" 776 1456 basechar 0
LayerCount: 2
Fore
SplineSet
187 8 m 1
 187 1444 l 1
 324 1458 447 1465 557 1465 c 0
 1201 1465 1393 1223 1393 752 c 0
 1393 300 1181 -11 503 -11 c 0
 407 -11 302 -5 187 8 c 1
475 197 m 1
 511 194 546 193 578 193 c 0
 997 193 1113 416 1113 747 c 0
 1113 1049 1038 1269 601 1269 c 0
 562 1269 520 1267 475 1263 c 1
 475 197 l 1
EndSplineSet
EndChar

StartChar: Delta
Encoding: 916 916 24
Width: 1334
VWidth: 0
GlyphClass: 2
Flags: HW
PickledData: "(dp1
S'org.pippin.gimp.org.kernagic'
p2
(dp3
S'lstem'
p4
I0
sS'rstem'
p5
I0
ssS'com.typemytype.robofont.layerData'
p6
(dp7
S'b'
(dp8
S'name'
p9
S'Delta'
p10
sS'lib'
p11
(dp12
sS'unicodes'
p13
(tsS'width'
p14
I1334
sS'contours'
p15
(tsS'components'
p16
(tsS'anchors'
p17
(tsssS'org.robofab.postScriptHintData'
p18
(dp19
s."
LayerCount: 2
Fore
SplineSet
296 182 m 1
 1020 182 l 1
 655 1276 l 1
 296 182 l 1
31 0 m 1
 551 1507 l 1
 760 1507 l 1
 1283 0 l 1
 31 0 l 1
EndSplineSet
EndChar

StartChar: E
Encoding: 69 69 25
Width: 1335
VWidth: 0
GlyphClass: 2
Flags: HW
PickledData: "(dp1
S'org.pippin.gimp.org.kernagic'
p2
(dp3
S'lstem'
p4
I0
sS'rstem'
p5
I0
ssS'com.typemytype.robofont.layerData'
p6
(dp7
sS'org.robofab.postScriptHintData'
p8
(dp9
s."
AnchorPoint: "bot" 688 0 basechar 0
AnchorPoint: "ogonek" 935 0 basechar 0
AnchorPoint: "top" 747 1456 basechar 0
LayerCount: 2
Fore
SplineSet
187 1456 m 1
 1188 1456 l 1
 1175 1258 l 1
 474 1258 l 1
 474 849 l 1
 1136 849 l 1
 1136 650 l 1
 474 650 l 1
 474 204 l 1
 1206 204 l 1
 1198 0 l 1
 187 0 l 1
 187 1456 l 1
EndSplineSet
EndChar

StartChar: Eng
Encoding: 330 330 34
Width: 1577
VWidth: 0
GlyphClass: 2
Flags: HW
PickledData: "(dp1
S'org.robofab.postScriptHintData'
p2
(dp3
s."
LayerCount: 2
Fore
SplineSet
1128 1456 m 1
 1394 1456 l 1
 1393 -31 l 2
 1393 -348 1241 -460 804 -470 c 1
 790 -287 l 1
 1078 -287 1125 -235 1128 -32 c 1
 442 1042 l 1
 458 635 l 1
 458 0 l 1
 187 0 l 1
 187 1456 l 1
 464 1456 l 1
 1142 388 l 1
 1128 785 l 1
 1128 1456 l 1
EndSplineSet
EndChar

StartChar: Euro
Encoding: 8364 8364 37
Width: 1391
VWidth: 0
GlyphClass: 2
Flags: HW
PickledData: "(dp1
S'org.pippin.gimp.org.kernagic'
p2
(dp3
S'lstem'
p4
I0
sS'rstem'
p5
I0
ssS'com.typemytype.robofont.layerData'
p6
(dp7
S'b'
(dp8
S'name'
p9
S'Euro'
p10
sS'lib'
p11
(dp12
sS'unicodes'
p13
(tsS'width'
p14
I1391
sS'contours'
p15
(tsS'components'
p16
(tsS'anchors'
p17
(tsssS'org.robofab.postScriptHintData'
p18
(dp19
s."
LayerCount: 2
Fore
SplineSet
-71 527 m 1
 -69 661 l 1
 80 661 l 1
 79 684 78 707 78 731 c 0
 78 758 79 784 81 810 c 1
 -68 810 l 1
 -66 943 l 1
 98 943 l 1
 167 1286 411 1477 769 1477 c 0
 1111 1477 1313 1272 1357 1062 c 1
 1148 980 l 1
 1126 980 l 1
 1091 1124 975 1270 795 1270 c 0
 591 1270 450 1173 400 943 c 1
 813 943 l 1
 809 810 l 1
 382 810 l 1
 380 785 380 758 380 731 c 0
 380 707 381 683 382 661 c 1
 809 661 l 1
 806 527 l 1
 399 527 l 1
 448 291 590 186 778 186 c 0
 970 186 1092 326 1128 476 c 1
 1150 476 l 1
 1359 394 l 1
 1314 182 1119 -20 769 -20 c 0
 408 -20 162 175 96 527 c 1
 -71 527 l 1
EndSplineSet
EndChar

StartChar: F
Encoding: 70 70 38
Width: 1234
VWidth: 0
GlyphClass: 2
Flags: HW
PickledData: "(dp1
S'org.pippin.gimp.org.kernagic'
p2
(dp3
S'lstem'
p4
I0
sS'rstem'
p5
I705
ssS'com.typemytype.robofont.layerData'
p6
(dp7
sS'org.robofab.postScriptHintData'
p8
(dp9
s."
AnchorPoint: "top" 733 1456 basechar 0
LayerCount: 2
Fore
SplineSet
187 1456 m 1
 1176 1456 l 1
 1162 1250 l 1
 475 1250 l 1
 475 821 l 1
 1105 821 l 1
 1105 624 l 1
 475 624 l 1
 475 0 l 1
 187 0 l 1
 187 1456 l 1
EndSplineSet
EndChar

StartChar: G
Encoding: 71 71 39
Width: 1536
VWidth: 0
GlyphClass: 2
Flags: HW
PickledData: "(dp1
S'org.pippin.gimp.org.kernagic'
p2
(dp3
S'lstem'
p4
I0
sS'rstem'
p5
I0
ssS'com.typemytype.robofont.layerData'
p6
(dp7
sS'org.robofab.postScriptHintData'
p8
(dp9
s."
AnchorPoint: "bot" 783 0 basechar 0
AnchorPoint: "top" 818 1456 basechar 0
LayerCount: 2
Fore
SplineSet
831 -20 m 0
 384 -20 134 265 134 732 c 0
 134 1197 402 1476 846 1476 c 0
 1130 1476 1311 1360 1394 1203 c 1
 1219 1084 l 1
 1197 1084 l 1
 1141 1174 1042 1270 866 1270 c 0
 581 1270 436 1081 436 732 c 0
 436 351 593 185 879 185 c 0
 993 185 1082 204 1145 226 c 1
 1145 591 l 1
 829 612 l 1
 838 796 l 1
 1389 796 l 1
 1389 79 l 1
 1236 12 1055 -20 831 -20 c 0
EndSplineSet
EndChar

StartChar: H
Encoding: 72 72 45
Width: 1568
VWidth: 0
GlyphClass: 2
Flags: HW
PickledData: "(dp1
S'org.pippin.gimp.org.kernagic'
p2
(dp3
S'lstem'
p4
I0
sS'rstem'
p5
I0
ssS'com.typemytype.robofont.layerData'
p6
(dp7
sS'org.robofab.postScriptHintData'
p8
(dp9
s."
AnchorPoint: "top" 796 1456 basechar 0
LayerCount: 2
Fore
SplineSet
1091 647 m 1
 477 647 l 1
 477 -3 l 1
 189 -3 l 1
 189 1456 l 1
 477 1456 l 1
 477 848 l 1
 1091 848 l 1
 1091 1456 l 1
 1379 1456 l 1
 1379 -3 l 1
 1091 -3 l 1
 1091 647 l 1
EndSplineSet
EndChar

StartChar: Hbar
Encoding: 294 294 46
Width: 1538
VWidth: 0
GlyphClass: 2
Flags: HW
PickledData: "(dp1
S'org.pippin.gimp.org.kernagic'
p2
(dp3
S'lstem'
p4
I0
sS'rstem'
p5
I0
ssS'com.typemytype.robofont.layerData'
p6
(dp7
sS'org.robofab.postScriptHintData'
p8
(dp9
s."
LayerCount: 2
Fore
SplineSet
63 1285 m 1
 63 1122 l 1
 1468 1122 l 1
 1468 1285 l 1
 63 1285 l 1
EndSplineSet
Refer: 45 72 N 1 0 0 1 0 0 2
EndChar

StartChar: I
Encoding: 73 73 48
Width: 1012
VWidth: 0
GlyphClass: 2
Flags: HW
PickledData: "(dp1
S'org.pippin.gimp.org.kernagic'
p2
(dp3
S'lstem'
p4
I0
sS'rstem'
p5
I0
ssS'com.typemytype.robofont.layerData'
p6
(dp7
sS'com.fontlab.hintData'
p8
(dp9
S'vhints'
p10
((dp11
S'position'
p12
I111
sS'width'
p13
I529
stp14
sS'hhints'
p15
((dp16
g12
I0
sg13
I86
s(dp17
g12
I1363
sg13
I86
stp18
ssS'org.robofab.postScriptHintData'
p19
(dp20
s."
HStem: 0 86 1363 86
VStem: 111 529
AnchorPoint: "ogonek" 516 0 basechar 0
AnchorPoint: "top" 506 1456 basechar 0
LayerCount: 2
Fore
SplineSet
155 1456 m 1
 852 1456 l 1
 852 1295 l 1
 649 1295 l 1
 649 158 l 1
 852 158 l 1
 852 -3 l 1
 155 -3 l 1
 155 158 l 1
 362 158 l 1
 362 1295 l 1
 155 1295 l 1
 155 1456 l 1
EndSplineSet
EndChar

StartChar: J
Encoding: 74 74 59
Width: 807
VWidth: 0
GlyphClass: 2
Flags: HW
PickledData: "(dp1
S'org.pippin.gimp.org.kernagic'
p2
(dp3
S'lstem'
p4
I132
sS'rstem'
p5
I0
ssS'com.typemytype.robofont.layerData'
p6
(dp7
sS'org.robofab.postScriptHintData'
p8
(dp9
s."
AnchorPoint: "top" 465 1456 basechar 0
LayerCount: 2
Fore
SplineSet
317 1456 m 1
 604 1456 l 1
 604 150 l 2
 604 -206 598 -306 266 -444 c 2
 138 -497 l 1
 41 -278 l 1
 200 -204 l 1
 309 -155 317 -113 317 155 c 2
 317 1456 l 1
EndSplineSet
EndChar

StartChar: K
Encoding: 75 75 61
Width: 1386
VWidth: 0
GlyphClass: 2
Flags: HW
PickledData: "(dp1
S'org.pippin.gimp.org.kernagic'
p2
(dp3
S'lstem'
p4
I0
sS'rstem'
p5
I851
ssS'com.typemytype.robofont.layerData'
p6
(dp7
sS'org.robofab.postScriptHintData'
p8
(dp9
s."
AnchorPoint: "bot" 734 0 basechar 0
AnchorPoint: "top" 734 1456 basechar 0
LayerCount: 2
Fore
SplineSet
1347 1456 m 1
 1347 1445 l 1
 790 816 l 1
 1393 13 l 1
 1393 0 l 1
 1071 0 l 1
 578 662 l 1
 475 553 l 1
 475 0 l 1
 187 0 l 1
 187 1456 l 1
 475 1456 l 1
 475 829 l 1
 1032 1456 l 1
 1347 1456 l 1
EndSplineSet
EndChar

StartChar: L
Encoding: 76 76 63
Width: 1154
VWidth: 0
GlyphClass: 2
Flags: HW
PickledData: "(dp1
S'org.pippin.gimp.org.kernagic'
p2
(dp3
S'lstem'
p4
I0
sS'rstem'
p5
I597
ssS'com.typemytype.robofont.layerData'
p6
(dp7
sS'org.robofab.postScriptHintData'
p8
(dp9
s."
AnchorPoint: "mid" 355 782 basechar 0
AnchorPoint: "bot" 595 0 basechar 0
AnchorPoint: "top" 408 1456 basechar 0
LayerCount: 2
Fore
SplineSet
187 1456 m 1
 475 1456 l 1
 475 193 l 1
 1144 193 l 1
 1131 0 l 1
 187 0 l 1
 187 1456 l 1
EndSplineSet
EndChar

StartChar: M
Encoding: 77 77 69
Width: 1860
VWidth: 0
GlyphClass: 2
Flags: HW
PickledData: "(dp1
S'org.pippin.gimp.org.kernagic'
p2
(dp3
S'lstem'
p4
I0
sS'rstem'
p5
I0
ssS'com.typemytype.robofont.guides'
p6
((dp7
S'y'
I378
sS'x'
I548
sS'magnetic'
p8
I5
sS'angle'
p9
I0
sS'isGlobal'
p10
I00
stp11
sS'com.typemytype.robofont.layerData'
p12
(dp13
sS'com.fontlab.hintData'
p14
(dp15
S'vhints'
p16
((dp17
S'position'
p18
I185
sS'width'
p19
I166
s(dp20
g18
I214
sg19
I151
s(dp21
g18
I332
sg19
I33
s(dp22
g18
I1463
sg19
I149
s(dp23
g18
I1463
sg19
I39
s(dp24
g18
I1477
sg19
I164
stp25
ssS'org.robofab.postScriptHintData'
p26
(dp27
s."
VStem: 185 166 214 151 332 33 1463 149 1463 39 1477 164
AnchorPoint: "top" 938 1456 basechar 0
LayerCount: 2
Fore
SplineSet
168 -3 m 1
 168 549 l 1
 191 1456 l 1
 500 1456 l 1
 934 531 l 1
 1368 1456 l 1
 1669 1456 l 1
 1692 553 l 1
 1692 -3 l 1
 1422 -3 l 1
 1422 520 l 1
 1414 1041 l 1
 1024 205 l 1
 831 205 l 1
 446 1047 l 1
 437 517 l 1
 437 -3 l 1
 168 -3 l 1
EndSplineSet
EndChar

StartChar: N
Encoding: 78 78 70
Width: 1581
VWidth: 0
GlyphClass: 2
Flags: HW
PickledData: "(dp1
S'org.pippin.gimp.org.kernagic'
p2
(dp3
S'lstem'
p4
I0
sS'rstem'
p5
I0
ssS'com.typemytype.robofont.layerData'
p6
(dp7
sS'org.robofab.postScriptHintData'
p8
(dp9
s."
AnchorPoint: "bot" 776 0 basechar 0
AnchorPoint: "top" 775 1456 basechar 0
LayerCount: 2
Fore
SplineSet
1128 1456 m 1
 1394 1456 l 1
 1394 0 l 1
 1107 0 l 1
 442 1042 l 1
 458 635 l 1
 458 0 l 1
 187 0 l 1
 187 1456 l 1
 464 1456 l 1
 1142 388 l 1
 1128 785 l 1
 1128 1456 l 1
EndSplineSet
EndChar

StartChar: O
Encoding: 79 79 75
Width: 1641
VWidth: 0
GlyphClass: 2
Flags: HW
PickledData: "(dp1
S'org.pippin.gimp.org.kernagic'
p2
(dp3
S'lstem'
p4
I0
sS'rstem'
p5
I0
ssS'com.typemytype.robofont.guides'
p6
(tsS'com.typemytype.robofont.layerData'
p7
(dp8
sS'com.fontlab.hintData'
p9
(dp10
S'vhints'
p11
((dp12
S'position'
p13
I150
sS'width'
p14
I122
s(dp15
g13
I1390
sg14
I122
stp16
sS'hhints'
p17
((dp18
g13
I-19
sg14
I96
s(dp19
g13
I1372
sg14
I96
stp20
ssS'org.robofab.postScriptHintData'
p21
(dp22
s."
HStem: -19 96 1372 96
VStem: 150 122 1390 122
AnchorPoint: "ogonek" 848 0 basechar 0
AnchorPoint: "top" 817 1456 basechar 0
LayerCount: 2
Fore
SplineSet
1203 721 m 0
 1203 1053 1088 1263 823 1263 c 0
 559 1263 438 1054 438 721 c 0
 438 395 553 192 822 192 c 0
 1091 192 1203 395 1203 721 c 0
136 722 m 0
 136 1193 375 1476 823 1476 c 0
 1267 1476 1505 1191 1505 722 c 0
 1505 259 1274 -21 823 -21 c 0
 371 -21 136 257 136 722 c 0
EndSplineSet
EndChar

StartChar: OE
Encoding: 338 338 76
Width: 2294
VWidth: 0
GlyphClass: 2
Flags: HW
PickledData: "(dp1
S'org.pippin.gimp.org.kernagic'
p2
(dp3
S'lstem'
p4
I0
sS'rstem'
p5
I0
ssS'com.typemytype.robofont.layerData'
p6
(dp7
S'b'
(dp8
S'name'
p9
S'OE'
p10
sS'lib'
p11
(dp12
sS'unicodes'
p13
(tsS'width'
p14
I2367
sS'contours'
p15
(tsS'components'
p16
(tsS'anchors'
p17
(tsssS'org.robofab.postScriptHintData'
p18
(dp19
s."
LayerCount: 2
Fore
SplineSet
1173 724 m 0
 1173 1059 1056 1273 771 1273 c 0
 487 1273 364 1060 364 724 c 0
 364 400 481 189 770 189 c 0
 1059 189 1173 400 1173 724 c 0
106 725 m 0
 106 1202 340 1480 771 1480 c 0
 952 1480 1082 1431 1174 1337 c 1
 1174 1456 l 1
 2138 1456 l 1
 2125 1264 l 1
 1417 1264 l 1
 1417 846 l 1
 2086 846 l 1
 2086 653 l 1
 1417 653 l 1
 1417 198 l 1
 2156 198 l 1
 2148 0 l 1
 1174 0 l 1
 1174 121 l 1
 1083 31 953 -18 771 -18 c 0
 336 -18 106 258 106 725 c 0
EndSplineSet
EndChar

StartChar: Oslash
Encoding: 216 216 84
Width: 1643
VWidth: 0
GlyphClass: 2
Flags: HW
PickledData: "(dp1
S'org.pippin.gimp.org.kernagic'
p2
(dp3
S'lstem'
p4
I0
sS'rstem'
p5
I0
ssS'com.typemytype.robofont.layerData'
p6
(dp7
sS'org.robofab.postScriptHintData'
p8
(dp9
s."
AnchorPoint: "top" 823 1456 basechar 0
LayerCount: 2
Fore
SplineSet
822 192 m 0
 1091 192 1203 395 1203 721 c 0
 1203 915 1163 1068 1072 1159 c 1
 708 207 l 1
 742 197 780 192 822 192 c 0
595 275 m 1
 960 1240 l 1
 920 1255 874 1263 823 1263 c 0
 559 1263 438 1054 438 721 c 0
 438 517 484 359 595 275 c 1
531 -254 m 1
 411 -210 l 1
 505 38 l 1
 261 142 136 382 136 722 c 0
 136 1193 375 1476 823 1476 c 0
 902 1476 974 1467 1039 1449 c 1
 1139 1711 l 1
 1265 1663 l 1
 1165 1402 l 1
 1388 1289 1505 1050 1505 722 c 0
 1505 259 1274 -21 823 -21 c 0
 753 -21 688 -15 628 -2 c 1
 531 -254 l 1
EndSplineSet
EndChar

StartChar: P
Encoding: 80 80 87
Width: 1382
VWidth: 0
GlyphClass: 2
Flags: HW
PickledData: "(dp1
S'org.pippin.gimp.org.kernagic'
p2
(dp3
S'lstem'
p4
I0
sS'rstem'
p5
I807
ssS'com.typemytype.robofont.layerData'
p6
(dp7
sS'org.robofab.postScriptHintData'
p8
(dp9
s."
AnchorPoint: "top" 712 1456 basechar 0
LayerCount: 2
Fore
SplineSet
187 1444 m 1
 348 1458 487 1466 608 1466 c 0
 1136 1466 1300 1326 1300 1035 c 0
 1300 748 1161 560 653 560 c 0
 598 560 539 563 475 567 c 1
 475 0 l 1
 187 0 l 1
 187 1444 l 1
475 757 m 1
 530 753 580 751 625 751 c 0
 963 751 1029 863 1029 1025 c 0
 1029 1177 968 1276 637 1276 c 0
 589 1276 535 1274 475 1270 c 1
 475 757 l 1
EndSplineSet
EndChar

StartChar: Q
Encoding: 81 81 88
Width: 1630
VWidth: 0
GlyphClass: 2
Flags: HW
PickledData: "(dp1
S'org.pippin.gimp.org.kernagic'
p2
(dp3
S'lstem'
p4
I0
sS'rstem'
p5
I0
ssS'com.typemytype.robofont.layerData'
p6
(dp7
sS'org.robofab.postScriptHintData'
p8
(dp9
s."
LayerCount: 2
Fore
SplineSet
136 722 m 0
 136 257 371 -21 823 -21 c 0
 827 -21 831 -21 835 -21 c 0
 931 -163 1137 -431 1206 -489 c 1
 1387 -344 l 1
 1320 -286 1175 -97 1091 20 c 1
 1365 113 1505 362 1505 722 c 0
 1505 1191 1267 1476 823 1476 c 0
 375 1476 136 1193 136 722 c 0
1203 721 m 0
 1203 395 1091 192 822 192 c 0
 553 192 438 395 438 721 c 0
 438 1054 559 1263 823 1263 c 0
 1088 1263 1203 1053 1203 721 c 0
EndSplineSet
EndChar

StartChar: R
Encoding: 82 82 89
Width: 1418
VWidth: 0
GlyphClass: 2
Flags: HW
PickledData: "(dp1
S'org.pippin.gimp.org.kernagic'
p2
(dp3
S'lstem'
p4
I0
sS'rstem'
p5
I839
ssS'com.typemytype.robofont.layerData'
p6
(dp7
sS'com.fontlab.hintData'
p8
(dp9
S'vhints'
p10
((dp11
S'position'
p12
I1122
sS'width'
p13
I117
stp14
sS'hhints'
p15
((dp16
g12
I722
sg13
I96
s(dp17
g12
I1355
sg13
I94
stp18
ssS'org.robofab.postScriptHintData'
p19
(dp20
s."
HStem: 722 96 1355 94
VStem: 1122 117
AnchorPoint: "bot" 733 0 basechar 0
AnchorPoint: "top" 733 1456 basechar 0
LayerCount: 2
Fore
SplineSet
1300 1053 m 0
 1300 819 1169 717 1011 672 c 1
 1358 18 l 1
 1358 0 l 1
 1047 0 l 1
 725 635 l 1
 475 634 l 1
 475 0 l 1
 187 0 l 1
 187 1444 l 1
 384 1461 550 1472 689 1472 c 0
 1134 1472 1300 1367 1300 1053 c 0
475 1263 m 1
 475 815 l 1
 701 815 l 2
 961 815 1038 879 1038 1055 c 0
 1038 1217 944 1275 702 1275 c 0
 637 1275 562 1270 475 1263 c 1
EndSplineSet
EndChar

StartChar: S
Encoding: 83 83 93
Width: 1225
VWidth: 0
GlyphClass: 2
Flags: HW
PickledData: "(dp1
S'org.pippin.gimp.org.kernagic'
p2
(dp3
S'lstem'
p4
I185
sS'rstem'
p5
I826
ssS'com.typemytype.robofont.guides'
p6
((dp7
S'y'
I973
sS'x'
I1035
sS'magnetic'
p8
I5
sS'angle'
p9
F90
sS'isGlobal'
p10
I00
s(dp11
S'y'
I382
sS'x'
I75
sg8
I5
sg9
F90
sg10
I00
stp12
sS'com.typemytype.robofont.layerData'
p13
(dp14
sS'org.robofab.postScriptHintData'
p15
(dp16
s."
AnchorPoint: "bot" 614 0 basechar 0
AnchorPoint: "top" 619 1466 basechar 0
LayerCount: 2
Fore
SplineSet
840 386 m 0
 840 497 795 538 610 614 c 2
 397 701 l 2
 215 775 104 854 104 1067 c 0
 104 1374 343 1476 610 1476 c 0
 611 1476 613 1476 614 1476 c 0
 856 1476 1022 1365 1094 1248 c 1
 917 1133 l 1
 898 1133 l 1
 840 1228 728 1276 621 1276 c 0
 496 1276 387 1231 387 1097 c 0
 387 998 434 964 579 905 c 2
 767 829 l 1
 991 740 1124 659 1124 400 c 0
 1124 105 883 -20 606 -20 c 0
 345 -20 174 94 94 203 c 1
 262 339 l 1
 285 339 l 1
 358 257 481 191 598 191 c 0
 738 191 840 245 840 386 c 0
EndSplineSet
EndChar

StartChar: T
Encoding: 84 84 99
Width: 1215
VWidth: 0
GlyphClass: 2
Flags: HW
PickledData: "(dp1
S'org.pippin.gimp.org.kernagic'
p2
(dp3
S'lstem'
p4
I285
sS'rstem'
p5
I844
ssS'com.typemytype.robofont.layerData'
p6
(dp7
sS'org.robofab.postScriptHintData'
p8
(dp9
s."
AnchorPoint: "mid" 608 708 basechar 0
AnchorPoint: "bot" 613 0 basechar 0
AnchorPoint: "top" 613 1456 basechar 0
LayerCount: 2
Fore
SplineSet
24 1456 m 1
 1191 1456 l 1
 1191 1264 l 1
 751 1264 l 1
 751 -3 l 1
 464 -3 l 1
 464 1264 l 1
 24 1264 l 1
 24 1456 l 1
EndSplineSet
EndChar

StartChar: Thorn
Encoding: 222 222 104
Width: 1333
VWidth: 0
GlyphClass: 2
Flags: HW
PickledData: "(dp1
S'org.pippin.gimp.org.kernagic'
p2
(dp3
S'lstem'
p4
I0
sS'rstem'
p5
I0
ssS'com.typemytype.robofont.layerData'
p6
(dp7
S'b'
(dp8
S'name'
p9
S'Thorn'
p10
sS'lib'
p11
(dp12
sS'unicodes'
p13
(tsS'width'
p14
I1192
sS'contours'
p15
(tsS'components'
p16
(tsS'anchors'
p17
(tsssS'org.robofab.postScriptHintData'
p18
(dp19
s."
LayerCount: 2
Fore
SplineSet
180 0 m 1
 180 1476 l 1
 468 1476 l 1
 468 1227 l 1
 604 1227 l 2
 1023 1227 1211 1118 1211 833 c 0
 1211 543 1061 385 628 385 c 2
 468 385 l 1
 468 0 l 1
 180 0 l 1
468 1038 m 1
 468 578 l 1
 597 578 l 2
 861 578 932 660 932 822 c 0
 932 971 859 1038 620 1038 c 2
 468 1038 l 1
EndSplineSet
EndChar

StartChar: U
Encoding: 85 85 105
Width: 1492
VWidth: 0
GlyphClass: 2
Flags: HW
PickledData: "(dp1
S'org.pippin.gimp.org.kernagic'
p2
(dp3
S'lstem'
p4
I0
sS'rstem'
p5
I0
ssS'com.typemytype.robofont.layerData'
p6
(dp7
sS'org.robofab.postScriptHintData'
p8
(dp9
s."
AnchorPoint: "bot" 751 1 basechar 0
AnchorPoint: "ogonek" 850 11 basechar 0
AnchorPoint: "top" 750 1456 basechar 0
LayerCount: 2
Fore
SplineSet
1045 1457 m 1
 1332 1457 l 1
 1332 536 l 2
 1332 202 1138 -20 742 -20 c 0
 344 -20 157 198 157 538 c 2
 157 1457 l 1
 444 1457 l 1
 444 551 l 2
 444 309 535 193 742 193 c 0
 949 193 1045 310 1045 552 c 2
 1045 1457 l 1
EndSplineSet
EndChar

StartChar: V
Encoding: 86 86 116
Width: 1411
VWidth: 0
GlyphClass: 2
Flags: HW
PickledData: "(dp1
S'org.pippin.gimp.org.kernagic'
p2
(dp3
S'lstem'
p4
I0
sS'rstem'
p5
I0
ssS'com.typemytype.robofont.layerData'
p6
(dp7
sS'org.robofab.postScriptHintData'
p8
(dp9
s."
LayerCount: 2
Fore
SplineSet
541 -3 m 1
 42 1456 l 1
 325 1456 l 1
 450 1058 579 665 699 262 c 1
 818 668 954 1058 1082 1456 c 1
 1369 1456 l 1
 845 -3 l 1
 541 -3 l 1
EndSplineSet
EndChar

StartChar: W
Encoding: 87 87 117
Width: 2013
VWidth: 0
GlyphClass: 2
Flags: HW
PickledData: "(dp1
S'org.pippin.gimp.org.kernagic'
p2
(dp3
S'lstem'
p4
I0
sS'rstem'
p5
I0
ssS'com.typemytype.robofont.layerData'
p6
(dp7
sS'org.robofab.postScriptHintData'
p8
(dp9
s."
AnchorPoint: "bot" 1001 0 basechar 0
AnchorPoint: "top" 1015 1456 basechar 0
LayerCount: 2
Fore
SplineSet
1009 1083 m 1
 696 0 l 1
 431 0 l 1
 63 1456 l 1
 333 1456 l 1
 584 377 l 1
 887 1439 l 1
 1128 1439 l 1
 1430 367 l 1
 1673 1456 l 1
 1950 1456 l 1
 1572 0 l 1
 1307 0 l 1
 1009 1083 l 1
EndSplineSet
EndChar

StartChar: X
Encoding: 88 88 122
Width: 1356
VWidth: 0
GlyphClass: 2
Flags: HW
PickledData: "(dp1
S'org.pippin.gimp.org.kernagic'
p2
(dp3
S'lstem'
p4
I0
sS'rstem'
p5
I0
ssS'com.typemytype.robofont.layerData'
p6
(dp7
sS'org.robofab.postScriptHintData'
p8
(dp9
s."
LayerCount: 2
Fore
SplineSet
843 735 m 1
 1334 -3 l 1
 1018 -3 l 1
 666 527 l 1
 314 -3 l 1
 18 -3 l 1
 515 753 l 1
 48 1456 l 1
 363 1456 l 1
 693 960 l 1
 1010 1456 l 1
 1317 1456 l 1
 843 735 l 1
EndSplineSet
EndChar

StartChar: Y
Encoding: 89 89 123
Width: 1356
VWidth: 0
GlyphClass: 2
Flags: HW
PickledData: "(dp1
S'org.pippin.gimp.org.kernagic'
p2
(dp3
S'lstem'
p4
I0
sS'rstem'
p5
I0
ssS'com.typemytype.robofont.layerData'
p6
(dp7
sS'org.robofab.postScriptHintData'
p8
(dp9
s."
AnchorPoint: "top" 681 1456 basechar 0
LayerCount: 2
Fore
SplineSet
822 544 m 1
 822 0 l 1
 535 0 l 1
 535 543 l 1
 38 1456 l 1
 330 1456 l 1
 677 805 l 1
 1021 1456 l 1
 1318 1456 l 1
 822 544 l 1
EndSplineSet
EndChar

StartChar: Z
Encoding: 90 90 128
Width: 1228
VWidth: 0
GlyphClass: 2
Flags: HW
PickledData: "(dp1
S'org.pippin.gimp.org.kernagic'
p2
(dp3
S'lstem'
p4
I0
sS'rstem'
p5
I0
ssS'com.typemytype.robofont.layerData'
p6
(dp7
sS'org.robofab.postScriptHintData'
p8
(dp9
s."
AnchorPoint: "bot" 624 0 basechar 0
AnchorPoint: "top" 653 1456 basechar 0
LayerCount: 2
Fore
SplineSet
100 0 m 1
 100 165 l 1
 826 1264 l 1
 128 1264 l 1
 119 1456 l 1
 1136 1456 l 1
 1139 1284 l 1
 436 193 l 1
 1152 193 l 1
 1156 0 l 1
 100 0 l 1
EndSplineSet
EndChar

StartChar: a
Encoding: 97 97 132
Width: 1141
VWidth: 0
GlyphClass: 2
Flags: HW
PickledData: "(dp1
S'org.pippin.gimp.org.kernagic'
p2
(dp3
S'lstem'
p4
I0
sS'rstem'
p5
I0
ssS'com.typemytype.robofont.guides'
p6
(tsS'com.typemytype.robofont.layerData'
p7
(dp8
sS'com.fontlab.hintData'
p9
(dp10
S'vhints'
p11
((dp12
S'position'
p13
I126
sS'width'
p14
I120
s(dp15
g13
I842
sg14
I32
s(dp16
g13
I875
sg14
I86
stp17
sS'hhints'
p18
((dp19
g13
I-15
sg14
I92
s(dp20
g13
I535
sg14
I82
s(dp21
g13
I983
sg14
I92
stp22
ssS'org.robofab.postScriptHintData'
p23
(dp24
s."
HStem: -15 92 535 82 983 92
VStem: 126 120 842 32 875 86
AnchorPoint: "bot" 565 0 basechar 0
AnchorPoint: "ogonek" 898 0 basechar 0
AnchorPoint: "top" 562 1082 basechar 0
LayerCount: 2
Fore
SplineSet
501 144 m 0
 620 144 695 195 746 252 c 1
 746 473 l 1
 603 473 l 2
 434 473 344 424 344 303 c 0
 344 191 419 144 501 144 c 0
747 611 m 1
 747 710 l 2
 747 852 673 911 542 911 c 0
 442 911 309 877 197 818 c 1
 138 993 l 1
 269 1066 429 1103 575 1103 c 0
 826 1103 1012 983 1012 669 c 2
 1012 0 l 1
 804 0 l 1
 779 125 l 1
 698 37 596 -18 437 -18 c 0
 238 -18 99 89 99 300 c 0
 99 523 291 613 550 613 c 0
 553 613 556 613 559 613 c 2
 747 611 l 1
EndSplineSet
EndChar

StartChar: acute
Encoding: 180 180 136
Width: 763
VWidth: 0
GlyphClass: 4
Flags: HW
PickledData: "(dp1
S'org.robofab.postScriptHintData'
p2
(dp3
sS'com.typemytype.robofont.layerData'
p4
(dp5
s."
AnchorPoint: "top" 427 1082 mark 0
LayerCount: 2
Fore
SplineSet
344 1208 m 1
 529 1600 l 1
 822 1600 l 1
 503 1208 l 1
 344 1208 l 1
EndSplineSet
EndChar

StartChar: ae
Encoding: 230 230 138
Width: 1705
VWidth: 0
GlyphClass: 2
Flags: HW
PickledData: "(dp1
S'org.pippin.gimp.org.kernagic'
p2
(dp3
S'lstem'
p4
I0
sS'rstem'
p5
I0
ssS'com.typemytype.robofont.layerData'
p6
(dp7
sS'com.fontlab.hintData'
p8
(dp9
S'vhints'
p10
((dp11
S'position'
p12
I126
sS'width'
p13
I119
s(dp14
g12
I817
sg13
I117
s(dp15
g12
I817
sg13
I82
s(dp16
g12
I1556
sg13
I98
stp17
sS'hhints'
p18
((dp19
g12
I-14
sg13
I98
s(dp20
g12
I518
sg13
I82
s(dp21
g12
I983
sg13
I92
stp22
ssS'org.robofab.postScriptHintData'
p23
(dp24
s."
HStem: -14 98 518 82 983 92
VStem: 126 119 817 117 817 82 1556 98
AnchorPoint: "top" 1054 1082 basechar 0
LayerCount: 2
Fore
SplineSet
1235 926 m 0
 1093 926 977 832 963 611 c 1
 1014 608 1059 607 1099 607 c 0
 1399 607 1432 679 1432 760 c 0
 1432 847 1385 926 1235 926 c 0
744 319 m 1
 734 340 724 465 724 481 c 1
 682 486 585 489 562 489 c 0
 388 489 311 424 311 301 c 0
 311 185 399 143 476 143 c 0
 631 143 730 220 744 319 c 1
1630 748 m 0
 1630 502 1408 451 1094 451 c 0
 1051 451 1007 451 961 453 c 1
 982 217 1112 162 1261 162 c 0
 1393 162 1488 205 1575 257 c 1
 1629 101 l 1
 1543 30 1397 -20 1229 -20 c 0
 1023 -20 906 56 831 173 c 1
 744 37 581 -18 399 -18 c 0
 200 -14 65 89 65 300 c 0
 65 524 248 628 509 628 c 0
 510 628 512 628 513 628 c 0
 539 628 678 626 722 621 c 1
 722 708 l 2
 722 855 644 909 513 909 c 0
 414 909 286 878 163 813 c 1
 94 975 l 1
 237 1057 380 1101 542 1101 c 0
 712 1101 832 1042 872 917 c 1
 946 1040 1065 1102 1230 1102 c 0
 1507 1102 1630 922 1630 748 c 0
EndSplineSet
EndChar

StartChar: ampersand
Encoding: 38 38 143
Width: 1420
VWidth: 0
GlyphClass: 2
Flags: HW
PickledData: "(dp1
S'org.pippin.gimp.org.kernagic'
p2
(dp3
S'lstem'
p4
I0
sS'rstem'
p5
I0
ssS'com.typemytype.robofont.layerData'
p6
(dp7
sS'com.fontlab.hintData'
p8
(dp9
S'vhints'
p10
((dp11
S'position'
p12
I135
sS'width'
p13
I121
s(dp14
g12
I312
sg13
I105
s(dp15
g12
I917
sg13
I110
stp16
sS'hhints'
p17
((dp18
g12
I-19
sg13
I96
s(dp19
g12
I1372
sg13
I96
stp20
ssS'org.robofab.postScriptHintData'
p21
(dp22
s."
HStem: -19 96 1372 96
VStem: 135 121 312 105 917 110
LayerCount: 2
Fore
SplineSet
624 1348 m 0
 522 1348 443 1294 443 1190 c 0
 443 1098 471 1031 568 919 c 1
 681 978 793 1077 793 1194 c 0
 793 1297 728 1348 624 1348 c 0
95 422 m 0
 95 628 245 740 401 829 c 1
 315 917 232 1042 232 1172 c 0
 232 1389 415 1511 622 1511 c 0
 813 1511 1000 1417 1000 1199 c 0
 1000 1020 834 891 666 801 c 1
 1024 424 l 1
 1093 515 1163 631 1236 772 c 1
 1381 673 l 1
 1317 559 1245 418 1149 293 c 1
 1336 97 l 1
 1194 -30 l 1
 1021 153 l 1
 907 52 766 -18 582 -18 c 0
 291 -18 95 138 95 422 c 0
897 284 m 1
 510 694 l 1
 428 650 314 551 316 413 c 0
 314 250 428 160 596 160 c 1
 593 159 592 158 592 158 c 0
 592 158 592 157 593 157 c 0
 611 157 814 210 897 284 c 1
EndSplineSet
EndChar

StartChar: apostrophemod
Encoding: 700 700 145
Width: 647
VWidth: 0
GlyphClass: 2
Flags: HW
PickledData: "(dp1
S'org.robofab.postScriptHintData'
p2
(dp3
sS'com.typemytype.robofont.layerData'
p4
(dp5
s."
LayerCount: 2
Fore
SplineSet
82 1123 m 1
 82 1123 132 1507 140 1577 c 1
 379 1577 l 1
 354 1439 276 1123 276 1123 c 1
 82 1123 l 1
EndSplineSet
EndChar

StartChar: approxequal
Encoding: 8776 8776 146
Width: 1225
VWidth: 0
GlyphClass: 2
Flags: HW
PickledData: "(dp1
S'org.pippin.gimp.org.kernagic'
p2
(dp3
S'lstem'
p4
I0
sS'rstem'
p5
I0
ssS'com.typemytype.robofont.layerData'
p6
(dp7
S'b'
(dp8
S'name'
p9
S'approxequal'
p10
sS'lib'
p11
(dp12
sS'unicodes'
p13
(tsS'width'
p14
I1136
sS'contours'
p15
(tsS'components'
p16
(tsS'anchors'
p17
(tsssS'org.robofab.postScriptHintData'
p18
(dp19
s."
LayerCount: 2
Fore
SplineSet
193 370 m 1
 88 453 l 1
 125 600 219 702 374 702 c 0
 463 702 526 674 632 619 c 0
 715 578 785 544 843 544 c 0
 913 544 982 595 1024 702 c 1
 1122 623 l 1
 1079 474 1009 375 846 375 c 0
 757 375 677 408 559 469 c 0
 493 501 432 532 372 532 c 0
 286 532 226 468 193 370 c 1
193 752 m 1
 88 835 l 1
 125 982 219 1084 374 1084 c 0
 463 1084 526 1056 632 1001 c 0
 715 960 785 926 843 926 c 0
 913 926 982 977 1024 1084 c 1
 1122 1005 l 1
 1079 856 1009 757 846 757 c 0
 757 757 677 790 559 851 c 0
 493 883 432 914 372 914 c 0
 286 914 226 850 193 752 c 1
EndSplineSet
EndChar

StartChar: asciicircum
Encoding: 94 94 149
Width: 1399
VWidth: 0
GlyphClass: 2
Flags: HW
PickledData: "(dp1
S'org.pippin.gimp.org.kernagic'
p2
(dp3
S'lstem'
p4
I0
sS'rstem'
p5
I0
ssS'com.typemytype.robofont.layerData'
p6
(dp7
sS'org.robofab.postScriptHintData'
p8
(dp9
s."
LayerCount: 2
Fore
SplineSet
631 1456 m 1
 750 1456 l 1
 1299 285 l 1
 1032 285 l 1
 695 1045 l 1
 367 285 l 1
 100 285 l 1
 631 1456 l 1
EndSplineSet
EndChar

StartChar: asciitilde
Encoding: 126 126 150
Width: 1192
VWidth: 0
GlyphClass: 2
Flags: HW
PickledData: "(dp1
S'org.pippin.gimp.org.kernagic'
p2
(dp3
S'lstem'
p4
I0
sS'rstem'
p5
I0
ssS'com.typemytype.robofont.layerData'
p6
(dp7
S'b'
(dp8
S'name'
p9
S'asciitilde'
p10
sS'lib'
p11
(dp12
sS'unicodes'
p13
(tsS'width'
p14
I1192
sS'contours'
p15
(tsS'components'
p16
(tsS'anchors'
p17
(tsssS'org.robofab.postScriptHintData'
p18
(dp19
s."
LayerCount: 2
Fore
SplineSet
163 480 m 1
 93 610 l 1
 141 718 227 807 368 807 c 0
 450 807 525 781 614 741 c 0
 704 701 776 671 831 671 c 0
 908 671 979 724 1042 813 c 1
 1112 691 l 1
 1062 580 957 492 821 492 c 0
 737 492 665 521 578 561 c 0
 494 600 430 629 360 629 c 0
 275 629 205 559 163 480 c 1
EndSplineSet
EndChar

StartChar: asterisk
Encoding: 42 42 151
Width: 997
VWidth: 0
GlyphClass: 2
Flags: HW
PickledData: "(dp1
S'org.pippin.gimp.org.kernagic'
p2
(dp3
S'lstem'
p4
I0
sS'rstem'
p5
I0
ssS'com.typemytype.robofont.layerData'
p6
(dp7
sS'org.robofab.postScriptHintData'
p8
(dp9
s."
LayerCount: 2
Fore
SplineSet
326 532 m 1
 141 640 l 1
 378 956 l 1
 35 1035 l 1
 93 1239 l 1
 430 1095 l 1
 396 1492 l 1
 607 1492 l 1
 573 1095 l 1
 912 1239 l 1
 971 1035 l 1
 624 956 l 1
 665 901 822 694 863 640 c 1
 838 624 706 547 681 531 c 1
 499 868 l 1
 326 532 l 1
EndSplineSet
EndChar

StartChar: at
Encoding: 64 64 152
Width: 1983
VWidth: 0
GlyphClass: 2
Flags: HW
PickledData: "(dp1
S'org.pippin.gimp.org.kernagic'
p2
(dp3
S'lstem'
p4
I0
sS'rstem'
p5
I0
ssS'com.typemytype.robofont.layerData'
p6
(dp7
sS'org.robofab.postScriptHintData'
p8
(dp9
s."
LayerCount: 2
Fore
SplineSet
929 394 m 0
 1064 394 1116 517 1148 736 c 1
 1188 982 l 1
 1150 989 1096 996 1068 996 c 0
 893 996 782 819 782 607 c 0
 782 469 830 394 929 394 c 0
976 -160 m 0
 487 -160 150 143 150 657 c 0
 150 1156 527 1538 1044 1538 c 0
 1492 1538 1842 1245 1842 796 c 0
 1842 434 1625 249 1438 249 c 0
 1307 249 1225 332 1196 470 c 1
 1146 342 1047 242 911 242 c 0
 689 242 581 408 581 615 c 0
 581 874 748 1143 1052 1143 c 0
 1177 1143 1321 1102 1400 1060 c 1
 1372 850 1333 657 1333 529 c 0
 1333 450 1377 400 1438 400 c 0
 1541 400 1653 534 1653 804 c 0
 1653 1106 1456 1370 1037 1370 c 0
 611 1370 356 1039 356 653 c 0
 356 282 581 7 979 7 c 0
 1151 7 1328 38 1466 121 c 1
 1520 -15 l 1
 1389 -111 1179 -160 976 -160 c 0
EndSplineSet
EndChar

StartChar: b
Encoding: 98 98 154
Width: 1240
VWidth: 0
GlyphClass: 2
Flags: HW
PickledData: "(dp1
S'org.pippin.gimp.org.kernagic'
p2
(dp3
S'lstem'
p4
I0
sS'rstem'
p5
I0
ssS'com.typemytype.robofont.guides'
p6
(tsS'com.typemytype.robofont.layerData'
p7
(dp8
sS'com.fontlab.hintData'
p9
(dp10
S'vhints'
p11
((dp12
S'position'
p13
I193
sS'width'
p14
I125
s(dp15
g13
I193
sg14
I94
s(dp16
g13
I1018
sg14
I122
stp17
sS'hhints'
p18
((dp19
g13
I-19
sg14
I92
s(dp20
g13
I982
sg14
I92
stp21
ssS'org.robofab.postScriptHintData'
p22
(dp23
s."
HStem: -19 92 982 92
VStem: 193 125 193 94 1018 122
AnchorPoint: "top" 718 1082 basechar 0
LayerCount: 2
Fore
SplineSet
644 162 m 0
 787 162 869 289 869 546 c 0
 869 799 806 922 661 922 c 0
 504 922 411 811 411 562 c 2
 411 270 l 1
 461 203 533 162 644 162 c 0
716 1104 m 0
 1007 1104 1144 867 1144 546 c 0
 1144 211 987 -20 691 -20 c 0
 543 -20 445 49 390 126 c 1
 379 0 l 1
 146 0 l 1
 146 1540 l 1
 415 1560 l 1
 415 1129 l 1
 406 905 l 1
 465 1035 571 1104 716 1104 c 0
EndSplineSet
EndChar

StartChar: backslash
Encoding: 92 92 155
Width: 937
VWidth: 0
GlyphClass: 2
Flags: HW
PickledData: "(dp1
S'org.pippin.gimp.org.kernagic'
p2
(dp3
S'lstem'
p4
I0
sS'rstem'
p5
I0
ssS'com.typemytype.robofont.layerData'
p6
(dp7
S'b'
(dp8
S'name'
p9
S'backslash'
p10
sS'lib'
p11
(dp12
sS'unicodes'
p13
(tsS'width'
p14
I937
sS'contours'
p15
(tsS'components'
p16
(tsS'anchors'
p17
(tsssS'org.robofab.postScriptHintData'
p18
(dp19
s."
LayerCount: 2
Fore
SplineSet
601 1 m 1
 95 1493 l 1
 296 1493 l 1
 800 1 l 1
 601 1 l 1
EndSplineSet
EndChar

StartChar: bar
Encoding: 124 124 156
Width: 713
VWidth: 0
GlyphClass: 2
Flags: HW
PickledData: "(dp1
S'org.pippin.gimp.org.kernagic'
p2
(dp3
S'lstem'
p4
I0
sS'rstem'
p5
I0
ssS'com.typemytype.robofont.layerData'
p6
(dp7
S'b'
(dp8
S'name'
p9
S'bar'
p10
sS'lib'
p11
(dp12
sS'unicodes'
p13
(tsS'width'
p14
I681
sS'contours'
p15
(tsS'components'
p16
(tsS'anchors'
p17
(tsssS'org.robofab.postScriptHintData'
p18
(dp19
s."
LayerCount: 2
Fore
SplineSet
267 1476 m 1
 446 1476 l 1
 446 -394 l 1
 267 -394 l 1
 267 1476 l 1
EndSplineSet
EndChar

StartChar: braceleft
Encoding: 123 123 157
Width: 911
VWidth: 0
GlyphClass: 2
Flags: HW
PickledData: "(dp1
S'org.pippin.gimp.org.kernagic'
p2
(dp3
S'lstem'
p4
I0
sS'rstem'
p5
I0
ssS'com.typemytype.robofont.layerData'
p6
(dp7
sS'org.robofab.postScriptHintData'
p8
(dp9
s."
LayerCount: 2
Fore
SplineSet
782 -290 m 1
 537 -290 399 -252 399 13 c 2
 399 295 l 2
 399 454 394 535 190 535 c 1
 190 715 l 1
 393 715 399 796 399 955 c 2
 399 1238 l 2
 399 1503 537 1541 782 1541 c 1
 782 1383 l 1
 644 1381 610 1361 610 1191 c 2
 610 899 l 2
 610 759 580 657 411 625 c 1
 580 594 610 492 610 352 c 2
 610 60 l 2
 610 -110 644 -130 782 -132 c 1
 782 -290 l 1
EndSplineSet
EndChar

StartChar: braceright
Encoding: 125 125 158
Width: 911
VWidth: 0
GlyphClass: 2
Flags: HW
PickledData: "(dp1
S'org.pippin.gimp.org.kernagic'
p2
(dp3
S'lstem'
p4
I0
sS'rstem'
p5
I0
ssS'com.typemytype.robofont.layerData'
p6
(dp7
sS'org.robofab.postScriptHintData'
p8
(dp9
s."
LayerCount: 2
Fore
SplineSet
145 -290 m 1
 145 -132 l 1
 283 -130 317 -110 317 60 c 2
 317 352 l 2
 317 492 347 594 516 625 c 1
 347 657 317 759 317 899 c 2
 317 1191 l 2
 317 1361 283 1381 145 1383 c 1
 145 1541 l 1
 390 1541 528 1503 528 1238 c 2
 528 955 l 2
 528 796 534 715 737 715 c 1
 737 535 l 1
 533 535 528 454 528 295 c 2
 528 13 l 2
 528 -252 390 -290 145 -290 c 1
EndSplineSet
EndChar

StartChar: bracketleft
Encoding: 91 91 159
Width: 823
VWidth: 0
GlyphClass: 2
Flags: HW
PickledData: "(dp1
S'org.pippin.gimp.org.kernagic'
p2
(dp3
S'lstem'
p4
I0
sS'rstem'
p5
I0
ssS'com.typemytype.robofont.layerData'
p6
(dp7
sS'org.robofab.postScriptHintData'
p8
(dp9
s."
LayerCount: 2
Fore
SplineSet
222 -252 m 1
 222 1480 l 1
 677 1480 l 1
 677 1312 l 1
 438 1312 l 1
 438 -84 l 1
 677 -84 l 1
 677 -252 l 1
 222 -252 l 1
EndSplineSet
EndChar

StartChar: bracketright
Encoding: 93 93 160
Width: 965
VWidth: 0
GlyphClass: 2
Flags: HW
PickledData: "(dp1
S'org.pippin.gimp.org.kernagic'
p2
(dp3
S'lstem'
p4
I0
sS'rstem'
p5
I0
ssS'com.typemytype.robofont.layerData'
p6
(dp7
sS'org.robofab.postScriptHintData'
p8
(dp9
s."
LayerCount: 2
Fore
SplineSet
292 -252 m 1
 292 -84 l 1
 531 -84 l 1
 531 1312 l 1
 292 1312 l 1
 292 1480 l 1
 747 1480 l 1
 747 -252 l 1
 292 -252 l 1
EndSplineSet
EndChar

StartChar: breve
Encoding: 728 728 161
Width: 905
VWidth: 0
GlyphClass: 4
Flags: HW
PickledData: "(dp1
S'org.robofab.postScriptHintData'
p2
(dp3
sS'com.typemytype.robofont.layerData'
p4
(dp5
s."
AnchorPoint: "top" 437 1073 mark 0
LayerCount: 2
Fore
SplineSet
435 1304 m 0
 275 1304 163 1396 163 1563 c 1
 318 1563 l 1
 318 1490 371 1452 435 1452 c 0
 499 1452 555 1490 555 1563 c 1
 707 1563 l 1
 707 1396 595 1304 435 1304 c 0
EndSplineSet
EndChar

StartChar: breveinvertedcomb
Encoding: 785 785 162
Width: 834
VWidth: 0
GlyphClass: 4
Flags: HW
PickledData: "(dp1
S'org.robofab.postScriptHintData'
p2
(dp3
sS'com.typemytype.robofont.layerData'
p4
(dp5
s."
AnchorPoint: "top" 429 1073 mark 0
LayerCount: 2
Fore
SplineSet
154 1304 m 1
 154 1472 266 1563 426 1563 c 0
 586 1563 698 1471 698 1304 c 1
 546 1304 l 1
 546 1378 490 1415 426 1415 c 0
 362 1415 309 1378 309 1304 c 1
 154 1304 l 1
EndSplineSet
EndChar

StartChar: brokenbar
Encoding: 166 166 163
Width: 713
VWidth: 0
GlyphClass: 2
Flags: HW
PickledData: "(dp1
S'org.pippin.gimp.org.kernagic'
p2
(dp3
S'lstem'
p4
I0
sS'rstem'
p5
I0
ssS'com.typemytype.robofont.layerData'
p6
(dp7
S'b'
(dp8
S'name'
p9
S'brokenbar'
p10
sS'lib'
p11
(dp12
sS'unicodes'
p13
(tsS'width'
p14
I653
sS'contours'
p15
(tsS'components'
p16
(tsS'anchors'
p17
(tsssS'org.robofab.postScriptHintData'
p18
(dp19
s."
LayerCount: 2
Fore
SplineSet
260 1506 m 1
 439 1506 l 1
 439 786 l 1
 260 786 l 1
 260 1506 l 1
260 414 m 1
 439 414 l 1
 439 -308 l 1
 260 -308 l 1
 260 414 l 1
EndSplineSet
EndChar

StartChar: bullet
Encoding: 8226 8226 164
Width: 939
VWidth: 0
GlyphClass: 2
Flags: HW
PickledData: "(dp1
S'org.pippin.gimp.org.kernagic'
p2
(dp3
S'lstem'
p4
I0
sS'rstem'
p5
I0
ssS'com.typemytype.robofont.layerData'
p6
(dp7
S'b'
(dp8
S'name'
p9
S'bullet'
p10
sS'lib'
p11
(dp12
sS'unicodes'
p13
(tsS'width'
p14
I908
sS'contours'
p15
(tsS'components'
p16
(tsS'anchors'
p17
(tsssS'org.robofab.postScriptHintData'
p18
(dp19
s."
LayerCount: 2
Fore
SplineSet
458 378 m 0
 272 378 124 513 124 715 c 0
 124 919 278 1059 464 1059 c 0
 649 1059 798 924 798 720 c 0
 798 517 644 378 458 378 c 0
EndSplineSet
EndChar

StartChar: c
Encoding: 99 99 165
Width: 1103
VWidth: 0
GlyphClass: 2
Flags: HW
PickledData: "(dp1
S'org.pippin.gimp.org.kernagic'
p2
(dp3
S'lstem'
p4
I0
sS'rstem'
p5
I696
ssS'com.typemytype.robofont.guides'
p6
((dp7
S'y'
I417
sS'x'
I962
sS'magnetic'
p8
I5
sS'angle'
p9
F90
sS'isGlobal'
p10
I00
s(dp11
S'y'
I1020
sS'x'
I565
sg8
I5
sg9
F90
sg10
I00
s(dp12
S'y'
I994
sS'x'
I572
sg8
I5
sg9
F90
sg10
I00
stp13
sS'com.typemytype.robofont.layerData'
p14
(dp15
sS'com.fontlab.hintData'
p16
(dp17
S'vhints'
p18
((dp19
S'position'
p20
I128
sS'width'
p21
I120
stp22
sS'hhints'
p23
((dp24
g20
I-19
sg21
I92
s(dp25
g20
I982
sg21
I92
stp26
ssS'org.robofab.postScriptHintData'
p27
(dp28
s."
HStem: -19 92 982 92
VStem: 128 120
AnchorPoint: "bot" 615 1 basechar 0
AnchorPoint: "top" 620 1083 basechar 0
LayerCount: 2
Fore
SplineSet
856 316 m 1
 869 316 l 1
 1035 226 l 1
 971 80 848 -20 624 -20 c 0
 301 -20 96 197 96 542 c 0
 96 888 301 1104 624 1104 c 0
 848 1104 971 1005 1035 858 c 1
 869 767 l 1
 856 767 l 1
 819 855 747 915 637 915 c 0
 636 915 636 915 635 915 c 0
 476 915 369 788 369 542 c 0
 369 295 477 169 637 169 c 0
 747 170 819 228 856 316 c 1
EndSplineSet
EndChar

StartChar: caron
Encoding: 711 711 167
Width: 929
VWidth: 0
GlyphClass: 4
Flags: HW
PickledData: "(dp1
S'org.robofab.postScriptHintData'
p2
(dp3
sS'com.typemytype.robofont.layerData'
p4
(dp5
s."
AnchorPoint: "top" 456 1082 mark 0
LayerCount: 2
Fore
SplineSet
316 1257 m 1
 111 1629 l 1
 326 1629 l 1
 441 1411 l 1
 555 1629 l 1
 770 1629 l 1
 565 1257 l 1
 316 1257 l 1
EndSplineSet
EndChar

StartChar: caron.alt
Encoding: 65537 -1 168
Width: 673
VWidth: 0
GlyphClass: 4
Flags: HW
PickledData: "(dp1
S'org.robofab.postScriptHintData'
p2
(dp3
sS'com.typemytype.robofont.layerData'
p4
(dp5
s."
AnchorPoint: "caron.alt" 118 1082 mark 0
LayerCount: 2
Fore
SplineSet
402 1139 m 1
 422 1550 l 1
 641 1550 l 1
 567 1139 l 1
 402 1139 l 1
EndSplineSet
EndChar

StartChar: cedilla
Encoding: 184 184 173
Width: 722
VWidth: 0
GlyphClass: 4
Flags: HW
PickledData: "(dp1
S'org.robofab.postScriptHintData'
p2
(dp3
sS'com.typemytype.robofont.layerData'
p4
(dp5
s."
AnchorPoint: "bot" 458 17 mark 0
LayerCount: 2
Fore
SplineSet
401 -411 m 0
 346 -411 290 -399 237 -376 c 1
 274 -273 l 1
 315 -289 354 -296 387 -296 c 0
 464 -296 515 -258 517 -201 c 0
 517 -157 494 -118 419 -118 c 0
 406 -118 391 -119 375 -122 c 1
 375 -60 l 1
 414 -45 452 -38 486 -38 c 0
 583 -38 654 -95 654 -205 c 0
 654 -334 544 -411 401 -411 c 0
EndSplineSet
EndChar

StartChar: cent
Encoding: 162 162 174
Width: 1103
VWidth: 0
GlyphClass: 2
Flags: HW
PickledData: "(dp1
S'org.pippin.gimp.org.kernagic'
p2
(dp3
S'lstem'
p4
I0
sS'rstem'
p5
I0
ssS'com.typemytype.robofont.layerData'
p6
(dp7
sS'org.robofab.postScriptHintData'
p8
(dp9
s."
LayerCount: 2
Fore
SplineSet
551 45 m 1
 683 45 l 1
 673 -303 l 1
 547 -303 l 1
 551 45 l 1
557 1376 m 1
 688 1376 l 1
 678 1047 l 1
 551 1047 l 1
 557 1376 l 1
EndSplineSet
Refer: 165 99 N 1 0 0 1 0 0 2
EndChar

StartChar: circumflex
Encoding: 710 710 175
Width: 909
VWidth: 0
GlyphClass: 4
Flags: HW
PickledData: "(dp1
S'org.robofab.postScriptHintData'
p2
(dp3
sS'com.typemytype.robofont.layerData'
p4
(dp5
s."
AnchorPoint: "top" 441 1082 mark 0
LayerCount: 2
Fore
SplineSet
110 1278 m 1
 315 1650 l 1
 564 1650 l 1
 768 1278 l 1
 554 1278 l 1
 439 1497 l 1
 325 1278 l 1
 110 1278 l 1
EndSplineSet
EndChar

StartChar: colon
Encoding: 58 58 176
Width: 683
VWidth: 0
GlyphClass: 2
Flags: HW
PickledData: "(dp1
S'org.pippin.gimp.org.kernagic'
p2
(dp3
S'lstem'
p4
I0
sS'rstem'
p5
I0
ssS'com.typemytype.robofont.layerData'
p6
(dp7
S'b'
(dp8
S'name'
p9
S'colon'
p10
sS'lib'
p11
(dp12
sS'unicodes'
p13
(tsS'width'
p14
I653
sS'contours'
p15
(tsS'components'
p16
(tsS'anchors'
p17
(tsssS'org.robofab.postScriptHintData'
p18
(dp19
s."
LayerCount: 2
Fore
SplineSet
343 -8 m 0
 256 -8 194 48 194 136 c 0
 194 224 254 283 343 283 c 0
 433 283 491 224 491 136 c 0
 491 49 433 -8 343 -8 c 0
343 810 m 0
 256 810 194 866 194 954 c 0
 194 1042 254 1101 343 1101 c 0
 433 1101 491 1042 491 954 c 0
 491 867 433 810 343 810 c 0
EndSplineSet
EndChar

StartChar: comma
Encoding: 44 44 177
Width: 655
VWidth: 0
GlyphClass: 2
Flags: HW
PickledData: "(dp1
S'org.pippin.gimp.org.kernagic'
p2
(dp3
S'lstem'
p4
I0
sS'rstem'
p5
I0
ssS'com.typemytype.robofont.layerData'
p6
(dp7
sS'org.robofab.postScriptHintData'
p8
(dp9
s."
LayerCount: 2
Fore
SplineSet
189 -327 m 1
 189 -327 228 226 228 260 c 1
 468 260 l 1
 468 126 l 1
 348 -327 l 1
 189 -327 l 1
EndSplineSet
EndChar

StartChar: commaaccent
Encoding: 806 806 178
Width: 617
VWidth: 0
GlyphClass: 4
Flags: HW
PickledData: "(dp1
S'org.robofab.postScriptHintData'
p2
(dp3
s."
AnchorPoint: "bot" 338 0 mark 0
LayerCount: 2
Fore
SplineSet
160 -538 m 1
 160 -538 225 -155 225 -118 c 1
 452 -118 l 1
 453 -141 331 -538 331 -538 c 1
 160 -538 l 1
EndSplineSet
EndChar

StartChar: commaturnedabovecomb
Encoding: 786 786 179
Width: 600
VWidth: 0
GlyphClass: 4
Flags: HW
PickledData: "(dp1
S'org.robofab.postScriptHintData'
p2
(dp3
s."
AnchorPoint: "top" 293 1073 mark 0
LayerCount: 2
Fore
SplineSet
172 1297 m 1
 172 1331 295 1787 295 1787 c 1
 461 1787 l 1
 461 1787 413 1316 413 1278 c 1
 166 1278 l 1
 172 1297 l 1
EndSplineSet
EndChar

StartChar: copyright
Encoding: 169 169 180
Width: 1752
VWidth: 0
GlyphClass: 2
Flags: HW
PickledData: "(dp1
S'org.pippin.gimp.org.kernagic'
p2
(dp3
S'lstem'
p4
I0
sS'rstem'
p5
I0
ssS'com.typemytype.robofont.layerData'
p6
(dp7
sS'org.robofab.postScriptHintData'
p8
(dp9
s."
LayerCount: 2
Fore
SplineSet
827 -39 m 0
 419 -39 57 264 57 728 c 0
 57 1193 419 1495 827 1495 c 0
 1236 1495 1604 1193 1604 728 c 0
 1604 264 1237 -39 827 -39 c 0
827 85 m 0
 1164 85 1461 340 1461 728 c 0
 1461 1117 1164 1370 827 1370 c 0
 491 1370 195 1117 195 728 c 0
 195 340 491 85 827 85 c 0
848 244 m 0
 598 244 370 423 370 732 c 0
 370 1037 595 1220 844 1220 c 0
 945 1220 1044 1192 1130 1137 c 1
 1084 1028 l 1
 1010 1074 925 1097 853 1097 c 0
 675 1097 531 963 531 734 c 0
 531 497 675 367 857 367 c 0
 932 367 1010 386 1090 432 c 1
 1131 324 l 1
 1046 271 948 244 848 244 c 0
EndSplineSet
EndChar

StartChar: currency
Encoding: 164 164 181
Width: 1135
VWidth: 0
GlyphClass: 2
Flags: HW
PickledData: "(dp1
S'org.pippin.gimp.org.kernagic'
p2
(dp3
S'lstem'
p4
I0
sS'rstem'
p5
I0
ssS'com.typemytype.robofont.layerData'
p6
(dp7
S'b'
(dp8
S'name'
p9
S'currency'
p10
sS'lib'
p11
(dp12
sS'unicodes'
p13
(tsS'width'
p14
I1164
sS'contours'
p15
(tsS'components'
p16
(tsS'anchors'
p17
(tsssS'org.robofab.postScriptHintData'
p18
(dp19
s."
LayerCount: 2
Fore
SplineSet
848 734 m 0
 848 892 730 1024 569 1024 c 0
 409 1024 292 892 292 734 c 0
 292 575 409 445 569 445 c 0
 732 445 848 575 848 734 c 0
816 1068 m 1
 997 1242 l 1
 1082 1150 l 1
 903 974 l 1
 950 904 977 822 977 734 c 0
 977 644 952 563 904 493 c 1
 1081 318 l 1
 997 227 l 1
 816 401 l 1
 747 347 663 315 569 315 c 0
 474 315 389 344 319 400 c 1
 143 228 l 1
 54 317 l 1
 234 493 l 1
 188 562 161 645 161 734 c 0
 161 822 187 903 234 974 c 1
 53 1152 l 1
 143 1242 l 1
 320 1069 l 1
 389 1122 476 1155 569 1155 c 0
 663 1155 746 1124 816 1068 c 1
EndSplineSet
EndChar

StartChar: d
Encoding: 100 100 182
Width: 1235
VWidth: 0
GlyphClass: 2
Flags: HW
PickledData: "(dp1
S'org.pippin.gimp.org.kernagic'
p2
(dp3
S'lstem'
p4
I0
sS'rstem'
p5
I0
ssS'com.typemytype.robofont.layerData'
p6
(dp7
sS'com.fontlab.hintData'
p8
(dp9
S'vhints'
p10
((dp11
S'position'
p12
I114
sS'width'
p13
I166
s(dp14
g12
I907
sg13
I161
s(dp15
g12
I930
sg13
I138
stp16
sS'hhints'
p17
((dp18
g12
I-19
sg13
I127
s(dp19
g12
I953
sg13
I127
stp20
ssS'org.robofab.postScriptHintData'
p21
(dp22
s."
HStem: -19 127 953 127
VStem: 114 166 907 161 930 138
AnchorPoint: "mid" 950 1302 basechar 0
AnchorPoint: "caron.alt" 1070 1147 basechar 0
AnchorPoint: "top" 496 1082 basechar 0
LayerCount: 2
Fore
SplineSet
602 163 m 0
 699 163 780 199 829 269 c 1
 829 819 l 1
 784 881 709 923 608 923 c 0
 465 923 371 817 371 540 c 0
 371 275 457 163 602 163 c 0
552 1103 m 2
 556 1103 l 2
 686 1103 776 1049 831 984 c 1
 827 1145 l 1
 827 1540 l 1
 1098 1560 l 1
 1098 0 l 1
 860 0 l 1
 850 153 l 1
 790 52 686 -20 551 -20 c 0
 550 -20 548 -20 547 -20 c 0
 250 -20 98 215 98 539 c 0
 98 875 257 1103 552 1103 c 2
EndSplineSet
EndChar

StartChar: dagger
Encoding: 8224 8224 183
Width: 1110
VWidth: 0
GlyphClass: 2
Flags: HW
PickledData: "(dp1
S'org.pippin.gimp.org.kernagic'
p2
(dp3
S'lstem'
p4
I0
sS'rstem'
p5
I0
ssS'com.typemytype.robofont.layerData'
p6
(dp7
S'b'
(dp8
S'name'
p9
S'dagger'
p10
sS'lib'
p11
(dp12
sS'unicodes'
p13
(tsS'width'
p14
I1050
sS'contours'
p15
(tsS'components'
p16
(tsS'anchors'
p17
(tsssS'org.robofab.postScriptHintData'
p18
(dp19
s."
LayerCount: 2
Fore
SplineSet
438 1475 m 1
 667 1475 l 1
 667 1097 l 1
 975 1097 l 1
 975 937 l 1
 664 937 l 1
 664 -6 l 1
 438 -6 l 1
 438 937 l 1
 141 937 l 1
 141 1097 l 1
 438 1097 l 1
 438 1475 l 1
EndSplineSet
EndChar

StartChar: daggerdbl
Encoding: 8225 8225 184
Width: 1082
VWidth: 0
GlyphClass: 2
Flags: HW
PickledData: "(dp1
S'org.pippin.gimp.org.kernagic'
p2
(dp3
S'lstem'
p4
I0
sS'rstem'
p5
I0
ssS'com.typemytype.robofont.layerData'
p6
(dp7
S'b'
(dp8
S'name'
p9
S'daggerdbl'
p10
sS'lib'
p11
(dp12
sS'unicodes'
p13
(tsS'width'
p14
I1022
sS'contours'
p15
(tsS'components'
p16
(tsS'anchors'
p17
(tsssS'org.robofab.postScriptHintData'
p18
(dp19
s."
LayerCount: 2
Fore
SplineSet
436 1466 m 1
 665 1466 l 1
 665 1086 l 1
 964 1086 l 1
 964 927 l 1
 667 927 l 1
 667 560 l 1
 964 560 l 1
 964 403 l 1
 663 403 l 1
 663 -50 l 1
 436 -50 l 1
 436 403 l 1
 144 403 l 1
 144 560 l 1
 436 560 l 1
 436 927 l 1
 144 927 l 1
 144 1086 l 1
 436 1086 l 1
 436 1466 l 1
EndSplineSet
EndChar

StartChar: dblgravecomb
Encoding: 783 783 185
Width: 999
VWidth: 0
GlyphClass: 4
Flags: HW
PickledData: "(dp1
S'org.robofab.postScriptHintData'
p2
(dp3
sS'com.typemytype.robofont.layerData'
p4
(dp5
s."
AnchorPoint: "top" 532 1073 mark 0
LayerCount: 2
Fore
SplineSet
624 1253 m 1
 402 1631 l 1
 621 1631 l 1
 766 1253 l 1
 624 1253 l 1
302 1253 m 1
 50 1631 l 1
 291 1631 l 1
 438 1253 l 1
 302 1253 l 1
EndSplineSet
EndChar

StartChar: degree
Encoding: 176 176 188
Width: 852
VWidth: 0
GlyphClass: 2
Flags: HW
PickledData: "(dp1
S'org.pippin.gimp.org.kernagic'
p2
(dp3
S'lstem'
p4
I0
sS'rstem'
p5
I0
ssS'com.typemytype.robofont.layerData'
p6
(dp7
sS'org.robofab.postScriptHintData'
p8
(dp9
s."
LayerCount: 2
Fore
SplineSet
426 896 m 0
 242 896 118 1033 118 1200 c 0
 118 1367 244 1496 426 1496 c 0
 608 1496 735 1367 735 1200 c 0
 735 1037 612 896 426 896 c 0
426 1024 m 0
 515 1024 592 1090 592 1199 c 0
 592 1304 514 1370 427 1370 c 0
 338 1370 260 1304 260 1199 c 0
 260 1090 337 1024 426 1024 c 0
EndSplineSet
EndChar

StartChar: dieresis
Encoding: 168 168 189
Width: 1020
VWidth: 0
GlyphClass: 4
Flags: HW
PickledData: "(dp1
S'org.robofab.postScriptHintData'
p2
(dp3
sS'com.typemytype.robofont.layerData'
p4
(dp5
s."
AnchorPoint: "top" 505 1082 mark 0
LayerCount: 2
Fore
SplineSet
738 1257 m 0
 652 1257 604 1311 604 1390 c 0
 604 1470 651 1526 738 1526 c 0
 823 1526 869 1470 869 1390 c 0
 869 1311 823 1257 738 1257 c 0
261 1257 m 0
 175 1257 128 1311 128 1390 c 0
 128 1470 174 1526 261 1526 c 0
 346 1526 392 1470 392 1390 c 0
 392 1311 346 1257 261 1257 c 0
EndSplineSet
EndChar

StartChar: divide
Encoding: 247 247 190
Width: 1224
VWidth: 0
GlyphClass: 2
Flags: HW
PickledData: "(dp1
S'org.pippin.gimp.org.kernagic'
p2
(dp3
S'lstem'
p4
I0
sS'rstem'
p5
I0
ssS'com.typemytype.robofont.layerData'
p6
(dp7
sS'org.robofab.postScriptHintData'
p8
(dp9
s."
LayerCount: 2
Fore
SplineSet
482 1134 m 1
 734 1134 l 1
 734 888 l 1
 482 888 l 1
 482 1134 l 1
482 280 m 1
 728 280 l 1
 728 25 l 1
 482 25 l 1
 482 280 l 1
93 677 m 1
 1116 677 l 1
 1116 498 l 1
 93 498 l 1
 93 677 l 1
EndSplineSet
EndChar

StartChar: dollar
Encoding: 36 36 191
Width: 1225
VWidth: 0
GlyphClass: 2
Flags: HW
PickledData: "(dp1
S'org.pippin.gimp.org.kernagic'
p2
(dp3
S'lstem'
p4
I0
sS'rstem'
p5
I0
ssS'com.typemytype.robofont.layerData'
p6
(dp7
S'b'
(dp8
S'name'
p9
S'dollar'
p10
sS'lib'
p11
(dp12
sS'unicodes'
p13
(tsS'width'
p14
I1221
sS'contours'
p15
(tsS'components'
p16
(tsS'anchors'
p17
(tsssS'org.robofab.postScriptHintData'
p18
(dp19
s."
LayerCount: 2
Fore
SplineSet
840 386 m 0
 840 245 738 191 598 191 c 0
 481 191 358 257 285 339 c 1
 262 339 l 1
 94 203 l 1
 167 103 317 -1 542 -18 c 1
 542 -288 l 1
 689 -288 l 1
 691 -16 l 1
 931 8 1124 136 1124 400 c 0
 1124 659 991 740 767 829 c 1
 579 905 l 2
 434 964 387 998 387 1097 c 0
 387 1231 496 1276 621 1276 c 0
 728 1276 840 1228 898 1133 c 1
 917 1133 l 1
 1094 1248 l 1
 1030 1352 891 1452 690 1472 c 1
 690 1769 l 1
 545 1769 l 1
 539 1473 l 1
 302 1455 104 1346 104 1067 c 0
 104 854 215 775 397 701 c 2
 610 614 l 2
 795 538 840 497 840 386 c 0
EndSplineSet
EndChar

StartChar: dotaccent
Encoding: 729 729 192
Width: 545
VWidth: 0
GlyphClass: 4
Flags: HW
PickledData: "(dp1
S'org.robofab.postScriptHintData'
p2
(dp3
sS'com.typemytype.robofont.layerData'
p4
(dp5
s."
AnchorPoint: "top" 273 1082 mark 0
LayerCount: 2
Fore
SplineSet
441 1445 m 0
 441 1347 378 1284 274 1284 c 0
 170 1284 107 1347 107 1445 c 0
 107 1539 170 1600 274 1600 c 0
 378 1600 441 1539 441 1445 c 0
EndSplineSet
EndChar

StartChar: dotlessi
Encoding: 305 305 193
Width: 571
VWidth: 0
GlyphClass: 2
Flags: HW
PickledData: "(dp1
S'org.pippin.gimp.org.kernagic'
p2
(dp3
S'lstem'
p4
I0
sS'rstem'
p5
I0
ssS'com.typemytype.robofont.layerData'
p6
(dp7
sS'org.robofab.postScriptHintData'
p8
(dp9
s."
AnchorPoint: "ogonek" 312 0 basechar 0
AnchorPoint: "top" 299 1082 basechar 0
LayerCount: 2
Fore
SplineSet
158 1082 m 1
 429 1082 l 1
 429 0 l 1
 158 0 l 1
 158 1082 l 1
EndSplineSet
EndChar

StartChar: dotlessj
Encoding: 567 567 194
Width: 651
VWidth: 0
GlyphClass: 2
Flags: HW
PickledData: "(dp1
S'org.pippin.gimp.org.kernagic'
p2
(dp3
S'lstem'
p4
I0
sS'rstem'
p5
I0
ssS'com.typemytype.robofont.layerData'
p6
(dp7
sS'com.fontlab.hintData'
p8
(dp9
S'vhints'
p10
((dp11
S'position'
p12
I111
sS'width'
p13
I142
stp14
sS'hhints'
p15
((dp16
g12
I-479
sg13
I112
stp17
ssS'org.robofab.postScriptHintData'
p18
(dp19
s."
HStem: -479 112
VStem: 111 142
LayerCount: 2
Fore
SplineSet
218 1082 m 1
 489 1082 l 1
 489 -22 l 2
 489 -306 365 -379 119 -456 c 1
 44 -481 l 1
 -34 -281 l 1
 45 -252 l 1
 205 -197 218 -158 218 11 c 2
 218 1082 l 1
EndSplineSet
EndChar

StartChar: e
Encoding: 101 101 195
Width: 1167
VWidth: 0
GlyphClass: 2
Flags: HW
PickledData: "(dp1
S'org.pippin.gimp.org.kernagic'
p2
(dp3
S'lstem'
p4
I0
sS'rstem'
p5
I747
ssS'com.typemytype.robofont.layerData'
p6
(dp7
sS'com.fontlab.hintData'
p8
(dp9
S'hhints'
p10
((dp11
S'position'
p12
I-19
sS'width'
p13
I94
s(dp14
g12
I982
sg13
I92
stp15
ssS'org.robofab.postScriptHintData'
p16
(dp17
s."
HStem: -19 94 982 92
AnchorPoint: "bot" 643 1 basechar 0
AnchorPoint: "ogonek" 863 27 basechar 0
AnchorPoint: "top" 623 1082 basechar 0
LayerCount: 2
Fore
SplineSet
372 626 m 1
 841 626 l 1
 839 825 771 924 628 924 c 0
 485 924 385 821 372 626 c 1
647 -20 m 0
 322 -20 96 194 96 540 c 0
 96 893 314 1104 617 1104 c 0
 924 1104 1068 898 1068 589 c 0
 1068 530 1058 472 1058 472 c 1
 369 472 l 1
 384 261 510 162 678 162 c 0
 795 162 886 200 972 252 c 1
 987 252 l 1
 1047 101 l 1
 960 30 814 -20 647 -20 c 0
EndSplineSet
EndChar

StartChar: eight
Encoding: 56 56 203
Width: 1319
VWidth: 0
GlyphClass: 2
Flags: HW
PickledData: "(dp1
S'org.pippin.gimp.org.kernagic'
p2
(dp3
S'lstem'
p4
I0
sS'rstem'
p5
I0
ssS'com.typemytype.robofont.layerData'
p6
(dp7
sS'org.robofab.postScriptHintData'
p8
(dp9
s."
LayerCount: 2
Fore
SplineSet
662 829 m 1
 805 873 880 971 880 1105 c 0
 880 1226 796 1298 662 1298 c 0
 529 1298 440 1226 440 1105 c 0
 440 971 520 873 662 829 c 1
662 163 m 0
 825 163 897 237 897 394 c 0
 897 548 800 655 662 692 c 1
 524 655 424 551 424 393 c 0
 424 240 503 163 662 163 c 0
662 -20 m 0
 355 -20 144 119 144 379 c 0
 144 577 247 711 418 772 c 1
 274 821 173 933 173 1113 c 0
 173 1349 381 1476 661 1476 c 0
 942 1476 1147 1349 1147 1113 c 0
 1147 936 1055 828 911 773 c 1
 1074 715 1175 572 1175 379 c 0
 1175 119 969 -20 662 -20 c 0
EndSplineSet
EndChar

StartChar: emdash
Encoding: 8212 8212 206
Width: 2184
VWidth: 0
GlyphClass: 2
Flags: HW
PickledData: "(dp1
S'org.robofab.postScriptHintData'
p2
(dp3
sS'com.typemytype.robofont.layerData'
p4
(dp5
s."
LayerCount: 2
Fore
SplineSet
60 482 m 1
 60 659 l 1
 2124 659 l 1
 2124 482 l 1
 60 482 l 1
EndSplineSet
EndChar

StartChar: endash
Encoding: 8211 8211 207
Width: 1245
VWidth: 0
GlyphClass: 2
Flags: HW
PickledData: "(dp1
S'org.pippin.gimp.org.kernagic'
p2
(dp3
S'lstem'
p4
I0
sS'rstem'
p5
I0
ssS'com.typemytype.robofont.layerData'
p6
(dp7
sS'org.robofab.postScriptHintData'
p8
(dp9
s."
LayerCount: 2
Fore
SplineSet
104 482 m 1
 104 660 l 1
 1141 660 l 1
 1141 482 l 1
 104 482 l 1
EndSplineSet
EndChar

StartChar: eng
Encoding: 331 331 208
Width: 1221
VWidth: 0
GlyphClass: 2
Flags: HW
PickledData: "(dp1
S'org.robofab.postScriptHintData'
p2
(dp3
sS'com.typemytype.robofont.layerData'
p4
(dp5
s."
LayerCount: 2
Fore
SplineSet
148 0 m 1
 419 0 l 1
 419 617 l 2
 419 805 500 922 659 922 c 0
 786 922 832 833 832 646 c 2
 832 -15 l 1
 831 -238 797 -287 499 -287 c 1
 513 -470 l 1
 965 -460 1103 -353 1103 -36 c 2
 1103 662 l 2
 1103 942 984 1104 741 1104 c 0
 556 1104 455 1005 399 887 c 1
 379 1082 l 1
 148 1082 l 1
 148 0 l 1
EndSplineSet
EndChar

StartChar: equal
Encoding: 61 61 210
Width: 1170
VWidth: 0
GlyphClass: 2
Flags: HW
PickledData: "(dp1
S'org.pippin.gimp.org.kernagic'
p2
(dp3
S'lstem'
p4
I0
sS'rstem'
p5
I0
ssS'com.typemytype.robofont.layerData'
p6
(dp7
S'b'
(dp8
S'name'
p9
S'equal'
p10
sS'lib'
p11
(dp12
sS'unicodes'
p13
(tsS'width'
p14
I1050
sS'contours'
p15
(tsS'components'
p16
(tsS'anchors'
p17
(tsssS'org.robofab.postScriptHintData'
p18
(dp19
s."
LayerCount: 2
Fore
SplineSet
111 640 m 1
 1049 640 l 1
 1049 453 l 1
 111 453 l 1
 111 640 l 1
111 1049 m 1
 1049 1049 l 1
 1049 863 l 1
 111 863 l 1
 111 1049 l 1
EndSplineSet
EndChar

StartChar: estimated
Encoding: 8494 8494 211
Width: 1191
VWidth: 0
GlyphClass: 2
Flags: HW
PickledData: "(dp1
S'org.robofab.postScriptHintData'
p2
(dp3
sS'com.typemytype.robofont.layerData'
p4
(dp5
S'b'
(dp6
S'name'
p7
S'estimated'
p8
sS'lib'
p9
(dp10
sS'unicodes'
p11
(tsS'width'
p12
I1223
sS'contours'
p13
(tsS'components'
p14
(tsS'anchors'
p15
(tsss."
LayerCount: 2
Fore
SplineSet
957 594 m 1
 957 826 844 1025 637 1025 c 0
 466 1025 342 852 326 594 c 1
 957 594 l 1
85 534 m 0
 85 850 312 1085 631 1085 c 0
 947 1085 1093 857 1093 514 c 1
 325 514 l 1
 326 241 421 53 648 53 c 0
 827 53 937 132 1034 236 c 1
 1085 186 l 1
 986 68 853 -20 648 -20 c 0
 271 -20 85 218 85 534 c 0
EndSplineSet
EndChar

StartChar: eth
Encoding: 240 240 212
Width: 1191
VWidth: 0
GlyphClass: 2
Flags: HW
PickledData: "(dp1
S'org.pippin.gimp.org.kernagic'
p2
(dp3
S'lstem'
p4
I0
sS'rstem'
p5
I0
ssS'com.typemytype.robofont.layerData'
p6
(dp7
sS'org.robofab.postScriptHintData'
p8
(dp9
s."
LayerCount: 2
Fore
SplineSet
905 484 m 0
 905 658 794 798 596 798 c 0
 403 798 295 670 295 483 c 0
 295 306 401 159 602 159 c 0
 799 159 905 287 905 484 c 0
191 1534 m 1
 454 1534 l 1
 581 1406 l 1
 855 1517 l 1
 916 1361 l 1
 693 1272 l 1
 836 1111 940 990 1013 859 c 0
 1071 756 1108 621 1109 478 c 0
 1109 176 921 -22 596 -22 c 0
 277 -22 79 198 79 482 c 0
 79 770 276 962 562 962 c 0
 646 962 710 930 756 905 c 1
 710 977 609 1098 513 1194 c 1
 265 1095 l 1
 207 1250 l 1
 399 1329 l 1
 191 1534 l 1
EndSplineSet
EndChar

StartChar: exclam
Encoding: 33 33 213
Width: 740
VWidth: 0
GlyphClass: 2
Flags: HW
PickledData: "(dp1
S'org.pippin.gimp.org.kernagic'
p2
(dp3
S'lstem'
p4
I0
sS'rstem'
p5
I0
ssS'com.typemytype.robofont.layerData'
p6
(dp7
sS'org.robofab.postScriptHintData'
p8
(dp9
s."
LayerCount: 2
Fore
SplineSet
363 -10 m 0
 277 -10 222 60 222 135 c 0
 222 211 277 278 363 278 c 0
 449 278 503 211 503 135 c 0
 503 59 449 -10 363 -10 c 0
318 450 m 1
 252 1327 l 1
 252 1516 l 1
 475 1516 l 1
 475 1327 l 1
 417 450 l 1
 318 450 l 1
EndSplineSet
EndChar

StartChar: f
Encoding: 102 102 215
Width: 801
VWidth: 0
GlyphClass: 2
Flags: HW
PickledData: "(dp1
S'org.pippin.gimp.org.kernagic'
p2
(dp3
S'lstem'
p4
I182
sS'rstem'
p5
I417
ssS'com.typemytype.robofont.layerData'
p6
(dp7
sS'com.fontlab.hintData'
p8
(dp9
S'vhints'
p10
((dp11
S'position'
p12
I269
sS'width'
p13
I166
stp14
sS'hhints'
p15
((dp16
g12
I952
sg13
I89
s(dp17
g12
I1358
sg13
I122
stp18
ssS'org.robofab.postScriptHintData'
p19
(dp20
s."
HStem: 952 89 1358 122
VStem: 269 166
AnchorPoint: "top" 427 1456 basechar 0
LayerCount: 2
Fore
SplineSet
490 1082 m 1
 759 1082 l 1
 759 925 l 1
 490 925 l 1
 490 0 l 1
 219 0 l 1
 219 925 l 1
 51 925 l 1
 56 1060 l 1
 219 1078 l 1
 219 1160 l 2
 219 1454 367 1519 574 1519 c 0
 695 1519 773 1500 789 1496 c 1
 778 1327 l 1
 743 1332 693 1337 658 1337 c 0
 535 1337 490 1299 490 1160 c 2
 490 1082 l 1
EndSplineSet
EndChar

StartChar: five
Encoding: 53 53 216
Width: 1319
VWidth: 0
GlyphClass: 2
Flags: HW
PickledData: "(dp1
S'org.pippin.gimp.org.kernagic'
p2
(dp3
S'lstem'
p4
I0
sS'rstem'
p5
I0
ssS'com.typemytype.robofont.layerData'
p6
(dp7
sS'org.robofab.postScriptHintData'
p8
(dp9
s."
LayerCount: 2
Fore
SplineSet
677 761 m 0
 567 761 488 719 445 637 c 1
 241 670 l 1
 295 1456 l 1
 1096 1456 l 1
 1070 1264 l 1
 520 1264 l 1
 475 860 l 1
 538 916 614 948 722 948 c 0
 1031 948 1175 710 1175 479 c 0
 1175 218 1000 -20 661 -20 c 0
 416 -20 257 76 174 203 c 1
 313 349 l 1
 331 349 l 1
 402 239 515 192 639 192 c 0
 824 192 911 321 911 487 c 0
 911 625 827 761 677 761 c 0
EndSplineSet
EndChar

StartChar: florin
Encoding: 402 402 218
Width: 1119
VWidth: 0
GlyphClass: 2
Flags: HW
PickledData: "(dp1
S'org.robofab.postScriptHintData'
p2
(dp3
s."
LayerCount: 2
Fore
SplineSet
498 1259 m 2
 539 1500 671 1641 897 1641 c 0
 1087 1641 1188 1528 1194 1305 c 1
 1049 1305 l 1
 1039 1425 1012 1502 917 1502 c 0
 813 1502 764 1426 740 1294 c 2
 696 1050 l 1
 970 1050 l 1
 954 972 l 1
 679 972 l 1
 511 117 l 2
 450 -195 313 -339 114 -339 c 0
 57 -339 -5 -327 -72 -304 c 1
 -47 -201 l 1
 3 -211 44 -215 78 -215 c 0
 234 -215 244 -114 283 112 c 1
 451 972 l 1
 250 972 l 1
 266 1050 l 1
 463 1050 l 1
 498 1259 l 2
EndSplineSet
EndChar

StartChar: foundryicon
Encoding: 65540 -1 219
Width: 1347
VWidth: 0
GlyphClass: 2
Flags: HW
PickledData: "(dp1
S'org.robofab.postScriptHintData'
p2
(dp3
s."
LayerCount: 2
Fore
SplineSet
280 2 m 1
 423 461 l 1
 34 755 l 1
 519 755 l 1
 669 1215 l 1
 828 755 l 1
 1313 755 l 1
 922 461 l 1
 1066 2 l 1
 669 278 l 1
 280 2 l 1
485 405 m 1
 591 405 l 1
 591 552 l 1
 761 405 l 1
 867 405 l 1
 867 672 l 1
 761 672 l 1
 761 523 l 1
 591 672 l 1
 485 672 l 1
 485 405 l 1
EndSplineSet
EndChar

StartChar: four
Encoding: 52 52 220
Width: 1319
VWidth: 0
GlyphClass: 2
Flags: HW
PickledData: "(dp1
S'org.pippin.gimp.org.kernagic'
p2
(dp3
S'lstem'
p4
I0
sS'rstem'
p5
I0
ssS'com.typemytype.robofont.layerData'
p6
(dp7
sS'org.robofab.postScriptHintData'
p8
(dp9
s."
LayerCount: 2
Fore
SplineSet
343 537 m 1
 738 537 l 1
 738 1174 l 1
 343 537 l 1
738 0 m 1
 738 349 l 1
 146 349 l 1
 113 530 l 1
 699 1456 l 1
 1019 1456 l 1
 1019 540 l 1
 1214 540 l 1
 1200 349 l 1
 1019 349 l 1
 1019 0 l 1
 738 0 l 1
EndSplineSet
EndChar

StartChar: fraction
Encoding: 8260 8260 221
Width: 1111
VWidth: 0
GlyphClass: 2
Flags: HW
PickledData: "(dp1
S'org.robofab.postScriptHintData'
p2
(dp3
s."
LayerCount: 2
Fore
SplineSet
87 0 m 1
 932 1520 l 1
 1111 1520 l 1
 271 0 l 1
 87 0 l 1
EndSplineSet
EndChar

StartChar: g
Encoding: 103 103 222
Width: 1232
VWidth: 0
GlyphClass: 2
Flags: HW
PickledData: "(dp1
S'org.pippin.gimp.org.kernagic'
p2
(dp3
S'lstem'
p4
I0
sS'rstem'
p5
I0
ssS'com.typemytype.robofont.layerData'
p6
(dp7
sS'com.fontlab.hintData'
p8
(dp9
S'vhints'
p10
((dp11
S'position'
p12
I128
sS'width'
p13
I122
s(dp14
g12
I977
sg13
I125
s(dp15
g12
I977
sg13
I36
stp16
sS'hhints'
p17
((dp18
g12
I-426
sg13
I101
s(dp19
g12
I0
sg13
I93
s(dp20
g12
I982
sg13
I92
stp21
ssS'org.robofab.postScriptHintData'
p22
(dp23
s."
HStem: -426 101 0 93 982 92
VStem: 128 122 977 125 977 36
AnchorPoint: "top" 592 1082 basechar 0
LayerCount: 2
Fore
SplineSet
607 162 m 0
 695 162 780 194 828 249 c 1
 828 818 l 1
 773 887 710 922 609 922 c 0
 472 922 369 822 369 555 c 0
 369 293 452 162 607 162 c 0
571 -499 m 0
 439 -499 313 -481 212 -448 c 1
 232 -264 l 1
 258 -264 l 1
 345 -295 445 -314 532 -314 c 0
 534 -314 537 -314 539 -314 c 0
 724 -314 843 -239 843 -18 c 0
 843 -7 843 5 842 17 c 2
 838 99 l 1
 777 35 681 -10 551 -10 c 0
 550 -10 550 -10 549 -10 c 0
 307 -10 96 146 96 555 c 0
 96 920 309 1104 558 1104 c 2
 560 1104 l 2
 691 1104 779 1048 835 981 c 1
 839 1082 l 1
 1092 1082 l 1
 1092 20 l 2
 1092 -338 899 -499 571 -499 c 0
EndSplineSet
EndChar

StartChar: germandbls
Encoding: 223 223 228
Width: 1311
VWidth: 0
GlyphClass: 2
Flags: HW
PickledData: "(dp1
S'org.pippin.gimp.org.kernagic'
p2
(dp3
S'lstem'
p4
I0
sS'rstem'
p5
I0
ssS'com.typemytype.robofont.layerData'
p6
(dp7
S'b'
(dp8
S'name'
p9
S'germandbls'
p10
sS'lib'
p11
(dp12
sS'unicodes'
p13
(tsS'width'
p14
I1278
sS'contours'
p15
(tsS'components'
p16
(tsS'anchors'
p17
(tsssS'org.robofab.postScriptHintData'
p18
(dp19
s."
LayerCount: 2
Fore
SplineSet
882 -20 m 0
 773 -20 642 9 537 54 c 1
 593 230 l 1
 638 205 730 173 814 173 c 0
 910 173 961 229 961 315 c 0
 961 514 635 570 635 765 c 0
 635 936 820 985 820 1170 c 0
 820 1266 756 1317 648 1317 c 0
 489 1317 414 1218 414 1017 c 2
 414 0 l 1
 143 0 l 1
 143 1038 l 2
 143 1333 333 1512 634 1512 c 0
 885 1512 1071 1390 1071 1171 c 0
 1071 947 857 856 857 789 c 0
 857 706 1242 623 1242 312 c 0
 1242 104 1119 -20 882 -20 c 0
EndSplineSet
EndChar

StartChar: grave
Encoding: 96 96 229
Width: 1004
VWidth: 0
GlyphClass: 4
Flags: HW
PickledData: "(dp1
S'org.robofab.postScriptHintData'
p2
(dp3
sS'com.typemytype.robofont.layerData'
p4
(dp5
s."
AnchorPoint: "top" 516 1073 mark 0
LayerCount: 2
Fore
SplineSet
414 1208 m 1
 90 1600 l 1
 388 1600 l 1
 573 1208 l 1
 414 1208 l 1
EndSplineSet
EndChar

StartChar: greater
Encoding: 62 62 230
Width: 1107
VWidth: 0
GlyphClass: 2
Flags: HW
PickledData: "(dp1
S'org.pippin.gimp.org.kernagic'
p2
(dp3
S'lstem'
p4
I0
sS'rstem'
p5
I0
ssS'com.typemytype.robofont.layerData'
p6
(dp7
S'b'
(dp8
S'name'
p9
S'greater'
p10
sS'lib'
p11
(dp12
sS'unicodes'
p13
(tsS'width'
p14
I1107
sS'contours'
p15
(tsS'components'
p16
(tsS'anchors'
p17
(tsssS'org.robofab.postScriptHintData'
p18
(dp19
s."
LayerCount: 2
Fore
SplineSet
89 1039 m 1
 89 1237 l 1
 1027 741 l 1
 1027 624 l 1
 88 167 l 1
 88 371 l 1
 754 689 l 1
 89 1039 l 1
EndSplineSet
EndChar

StartChar: greaterequal
Encoding: 8805 8805 231
Width: 1192
VWidth: 0
GlyphClass: 2
Flags: HW
PickledData: "(dp1
S'org.pippin.gimp.org.kernagic'
p2
(dp3
S'lstem'
p4
I0
sS'rstem'
p5
I0
ssS'com.typemytype.robofont.layerData'
p6
(dp7
S'b'
(dp8
S'name'
p9
S'greaterequal'
p10
sS'lib'
p11
(dp12
sS'unicodes'
p13
(tsS'width'
p14
I1192
sS'contours'
p15
(tsS'components'
p16
(tsS'anchors'
p17
(tsssS'org.robofab.postScriptHintData'
p18
(dp19
s."
LayerCount: 2
Fore
SplineSet
133 5 m 1
 133 159 l 1
 1066 159 l 1
 1066 5 l 1
 133 5 l 1
150 225 m 1
 150 412 l 1
 848 756 l 1
 152 1121 l 1
 152 1306 l 1
 1056 810 l 1
 1056 703 l 1
 150 225 l 1
EndSplineSet
EndChar

StartChar: guillemotleft
Encoding: 171 171 232
Width: 1024
VWidth: 0
GlyphClass: 2
Flags: HW
PickledData: "(dp1
S'org.pippin.gimp.org.kernagic'
p2
(dp3
S'lstem'
p4
I0
sS'rstem'
p5
I0
ssS'com.typemytype.robofont.layerData'
p6
(dp7
S'b'
(dp8
S'name'
p9
S'guillemotleft'
p10
sS'lib'
p11
(dp12
sS'unicodes'
p13
(tsS'width'
p14
I994
sS'contours'
p15
(tsS'components'
p16
(tsS'anchors'
p17
(tsssS'org.robofab.postScriptHintData'
p18
(dp19
s."
LayerCount: 2
Fore
SplineSet
759 138 m 1
 456 562 l 1
 761 990 l 1
 938 990 l 1
 671 565 l 1
 933 138 l 1
 759 138 l 1
363 138 m 1
 60 562 l 1
 366 990 l 1
 543 990 l 1
 275 565 l 1
 537 138 l 1
 363 138 l 1
EndSplineSet
EndChar

StartChar: guillemotright
Encoding: 187 187 233
Width: 1024
VWidth: 0
GlyphClass: 2
Flags: HW
PickledData: "(dp1
S'org.pippin.gimp.org.kernagic'
p2
(dp3
S'lstem'
p4
I0
sS'rstem'
p5
I0
ssS'com.typemytype.robofont.layerData'
p6
(dp7
sS'org.robofab.postScriptHintData'
p8
(dp9
s."
LayerCount: 2
Fore
SplineSet
636 138 m 1
 462 138 l 1
 726 563 l 1
 468 990 l 1
 639 990 l 1
 943 566 l 1
 636 138 l 1
249 138 m 1
 73 138 l 1
 340 563 l 1
 78 990 l 1
 251 990 l 1
 554 566 l 1
 249 138 l 1
EndSplineSet
EndChar

StartChar: guilsinglleft
Encoding: 8249 8249 234
Width: 775
VWidth: 0
GlyphClass: 2
Flags: HW
PickledData: "(dp1
S'org.robofab.postScriptHintData'
p2
(dp3
s."
LayerCount: 2
Fore
SplineSet
430 161 m 1
 153 575 l 1
 436 998 l 1
 618 998 l 1
 346 575 l 1
 612 161 l 1
 430 161 l 1
EndSplineSet
EndChar

StartChar: guilsinglright
Encoding: 8250 8250 235
Width: 766
VWidth: 0
GlyphClass: 2
Flags: HW
PickledData: "(dp1
S'org.pippin.gimp.org.kernagic'
p2
(dp3
S'lstem'
p4
I0
sS'rstem'
p5
I0
ssS'com.typemytype.robofont.layerData'
p6
(dp7
S'b'
(dp8
S'name'
p9
S'guilsinglright'
p10
sS'lib'
p11
(dp12
sS'unicodes'
p13
(tsS'width'
p14
I766
sS'contours'
p15
(tsS'components'
p16
(tsS'anchors'
p17
(tsssS'org.robofab.postScriptHintData'
p18
(dp19
s."
LayerCount: 2
Fore
SplineSet
144 161 m 1
 415 580 l 1
 150 996 l 1
 332 996 l 1
 611 579 l 1
 326 161 l 1
 144 161 l 1
EndSplineSet
EndChar

StartChar: h
Encoding: 104 104 236
Width: 1241
VWidth: 0
GlyphClass: 2
Flags: HW
PickledData: "(dp1
S'org.pippin.gimp.org.kernagic'
p2
(dp3
S'lstem'
p4
I0
sS'rstem'
p5
I0
ssS'com.typemytype.robofont.layerData'
p6
(dp7
sS'com.fontlab.hintData'
p8
(dp9
S'vhints'
p10
((dp11
S'position'
p12
I193
sS'width'
p13
I122
s(dp14
g12
I910
sg13
I122
stp15
sS'hhints'
p16
((dp17
g12
I982
sg13
I92
stp18
ssS'org.robofab.postScriptHintData'
p19
(dp20
s."
HStem: 982 92
VStem: 193 122 910 122
AnchorPoint: "mid" 333 1265 basechar 0
AnchorPoint: "top" 601 1460 basechar 0
LayerCount: 2
Fore
SplineSet
152 0 m 1
 152 1540 l 1
 423 1560 l 1
 423 1153 l 1
 417 879 l 1
 477 1021 583 1104 753 1104 c 0
 990 1104 1108 943 1108 672 c 2
 1108 0 l 1
 836 0 l 1
 836 644 l 2
 836 844 785 922 662 922 c 0
 494 922 423 792 423 608 c 2
 423 0 l 1
 152 0 l 1
EndSplineSet
EndChar

StartChar: hungarumlaut
Encoding: 733 733 239
Width: 898
VWidth: 0
GlyphClass: 4
Flags: HW
PickledData: "(dp1
S'org.robofab.postScriptHintData'
p2
(dp3
sS'com.typemytype.robofont.layerData'
p4
(dp5
s."
AnchorPoint: "top" 374 1073 mark 0
LayerCount: 2
Fore
SplineSet
467 1253 m 1
 614 1631 l 1
 855 1631 l 1
 603 1253 l 1
 467 1253 l 1
139 1253 m 1
 284 1631 l 1
 503 1631 l 1
 281 1253 l 1
 139 1253 l 1
EndSplineSet
EndChar

StartChar: hyphen
Encoding: 45 45 240
Width: 911
VWidth: 0
GlyphClass: 4
Flags: HW
PickledData: "(dp1
S'org.pippin.gimp.org.kernagic'
p2
(dp3
S'lstem'
p4
I0
sS'rstem'
p5
I0
ssS'com.typemytype.robofont.layerData'
p6
(dp7
sS'org.robofab.postScriptHintData'
p8
(dp9
s."
AnchorPoint: "mid" 445 570 mark 0
LayerCount: 2
Fore
SplineSet
158 474 m 1
 158 656 l 1
 753 656 l 1
 753 474 l 1
 158 474 l 1
EndSplineSet
EndChar

StartChar: infinity
Encoding: 8734 8734 252
Width: 1722
VWidth: 0
GlyphClass: 2
Flags: HW
PickledData: "(dp1
S'org.pippin.gimp.org.kernagic'
p2
(dp3
S'lstem'
p4
I0
sS'rstem'
p5
I0
ssS'com.typemytype.robofont.layerData'
p6
(dp7
S'b'
(dp8
S'name'
p9
S'infinity'
p10
sS'lib'
p11
(dp12
sS'unicodes'
p13
(tsS'width'
p14
I1647
sS'contours'
p15
(tsS'components'
p16
(tsS'anchors'
p17
(tsssS'org.robofab.postScriptHintData'
p18
(dp19
s."
LayerCount: 2
Fore
SplineSet
1471 670 m 0
 1471 772 1390 860 1274 860 c 0
 1160 860 1064 761 983 644 c 1
 1091 497 1171 424 1278 424 c 0
 1410 424 1471 527 1471 670 c 0
748 642 m 1
 663 771 566 860 445 860 c 0
 320 860 242 761 242 643 c 0
 242 534 327 424 452 424 c 0
 562 424 662 519 748 642 c 1
864 752 m 1
 978 912 1104 1028 1278 1028 c 0
 1503 1028 1629 868 1629 647 c 0
 1629 415 1474 252 1276 252 c 0
 1124 252 1000 343 864 528 c 1
 745 367 616 252 450 252 c 0
 225 252 93 443 93 665 c 0
 93 867 250 1028 446 1028 c 0
 616 1028 742 917 864 752 c 1
EndSplineSet
EndChar

StartChar: integral
Encoding: 8747 8747 253
Width: 856
VWidth: 0
GlyphClass: 2
Flags: HW
PickledData: "(dp1
S'org.pippin.gimp.org.kernagic'
p2
(dp3
S'lstem'
p4
I0
sS'rstem'
p5
I0
ssS'com.typemytype.robofont.layerData'
p6
(dp7
S'b'
(dp8
S'name'
p9
S'integral'
p10
sS'lib'
p11
(dp12
sS'unicodes'
p13
(tsS'width'
p14
I994
sS'contours'
p15
(tsS'components'
p16
(tsS'anchors'
p17
(tsssS'org.robofab.postScriptHintData'
p18
(dp19
s."
LayerCount: 2
Fore
SplineSet
359 1172 m 2
 359 1434 445 1584 643 1584 c 0
 688 1584 738 1576 798 1562 c 1
 798 1409 l 1
 766 1416 738 1420 714 1420 c 0
 601 1420 573 1341 573 1181 c 2
 573 -34 l 2
 573 -301 469 -462 261 -462 c 0
 218 -462 169 -456 112 -441 c 1
 112 -257 l 1
 148 -265 181 -270 209 -270 c 0
 306 -270 359 -216 359 -42 c 2
 359 1172 l 2
EndSplineSet
EndChar

StartChar: k
Encoding: 107 107 258
Width: 1158
VWidth: 0
GlyphClass: 2
Flags: HW
PickledData: "(dp1
S'org.pippin.gimp.org.kernagic'
p2
(dp3
S'lstem'
p4
I0
sS'rstem'
p5
I671
ssS'com.typemytype.robofont.layerData'
p6
(dp7
sS'org.robofab.postScriptHintData'
p8
(dp9
s."
AnchorPoint: "bot" 628 0 basechar 0
LayerCount: 2
Fore
SplineSet
152 0 m 1
 152 1540 l 1
 423 1560 l 1
 423 802 l 1
 418 626 l 1
 828 1082 l 1
 1117 1082 l 1
 1117 1061 l 1
 707 602 l 1
 1141 28 l 1
 1141 0 l 1
 863 0 l 1
 507 490 l 1
 423 412 l 1
 423 0 l 1
 152 0 l 1
EndSplineSet
EndChar

StartChar: kgreenlandic
Encoding: 312 312 260
Width: 1139
VWidth: 0
GlyphClass: 2
Flags: HW
PickledData: "(dp1
S'org.robofab.postScriptHintData'
p2
(dp3
s."
LayerCount: 2
Fore
SplineSet
130 0 m 1
 130 1082 l 1
 355 1082 l 1
 355 803 l 1
 349 584 l 1
 787 1082 l 1
 1048 1082 l 1
 1048 1061 l 1
 623 588 l 1
 1076 15 l 1
 1076 0 l 1
 821 0 l 1
 454 471 l 1
 355 375 l 1
 355 0 l 1
 130 0 l 1
EndSplineSet
EndChar

StartChar: l
Encoding: 108 108 261
Width: 702
VWidth: 0
GlyphClass: 2
Flags: HW
PickledData: "(dp1
S'org.pippin.gimp.org.kernagic'
p2
(dp3
S'lstem'
p4
I0
sS'rstem'
p5
I238
ssS'com.typemytype.robofont.layerData'
p6
(dp7
sS'com.fontlab.hintData'
p8
(dp9
S'vhints'
p10
((dp11
S'position'
p12
I193
sS'width'
p13
I122
stp14
sS'hhints'
p15
((dp16
g12
I-11
sg13
I87
stp17
ssS'org.robofab.postScriptHintData'
p18
(dp19
s."
HStem: -11 87
VStem: 193 122
AnchorPoint: "mid" 307 843 basechar 0
AnchorPoint: "top" 331 1529 basechar 0
LayerCount: 2
Fore
SplineSet
549 -9 m 2
 536 -9 524 -10 512 -10 c 0
 259 -10 151 73 151 336 c 2
 151 1540 l 1
 422 1560 l 1
 422 321 l 2
 422 214 442 186 542 179 c 2
 645 171 l 1
 632 -7 l 1
 549 -9 l 2
EndSplineSet
EndChar

StartChar: less
Encoding: 60 60 266
Width: 1107
VWidth: 0
GlyphClass: 2
Flags: HW
PickledData: "(dp1
S'org.pippin.gimp.org.kernagic'
p2
(dp3
S'lstem'
p4
I0
sS'rstem'
p5
I0
ssS'com.typemytype.robofont.layerData'
p6
(dp7
S'b'
(dp8
S'name'
p9
S'less'
p10
sS'lib'
p11
(dp12
sS'unicodes'
p13
(tsS'width'
p14
I1107
sS'contours'
p15
(tsS'components'
p16
(tsS'anchors'
p17
(tsssS'org.robofab.postScriptHintData'
p18
(dp19
s."
LayerCount: 2
Fore
SplineSet
1005 164 m 1
 67 625 l 1
 67 741 l 1
 1005 1234 l 1
 1005 1036 l 1
 335 689 l 1
 1005 368 l 1
 1005 164 l 1
EndSplineSet
EndChar

StartChar: lessequal
Encoding: 8804 8804 267
Width: 1192
VWidth: 0
GlyphClass: 2
Flags: HW
PickledData: "(dp1
S'org.robofab.postScriptHintData'
p2
(dp3
sS'com.typemytype.robofont.layerData'
p4
(dp5
s."
LayerCount: 2
Fore
SplineSet
120 1 m 1
 120 153 l 1
 1057 153 l 1
 1057 1 l 1
 120 1 l 1
1042 285 m 1
 139 732 l 1
 139 841 l 1
 1042 1305 l 1
 1042 1120 l 1
 369 788 l 1
 1042 472 l 1
 1042 285 l 1
EndSplineSet
EndChar

StartChar: logicalnot
Encoding: 172 172 268
Width: 1220
VWidth: 0
GlyphClass: 2
Flags: HW
PickledData: "(dp1
S'org.pippin.gimp.org.kernagic'
p2
(dp3
S'lstem'
p4
I0
sS'rstem'
p5
I0
ssS'com.typemytype.robofont.layerData'
p6
(dp7
sS'org.robofab.postScriptHintData'
p8
(dp9
s."
LayerCount: 2
Fore
SplineSet
99 832 m 1
 1081 832 l 1
 1081 251 l 1
 909 251 l 1
 909 654 l 1
 99 654 l 1
 99 832 l 1
EndSplineSet
EndChar

StartChar: lozenge
Encoding: 9674 9674 269
Width: 1194
VWidth: 0
GlyphClass: 2
Flags: HW
PickledData: "(dp1
S'org.pippin.gimp.org.kernagic'
p2
(dp3
S'lstem'
p4
I0
sS'rstem'
p5
I0
ssS'com.typemytype.robofont.layerData'
p6
(dp7
S'b'
(dp8
S'name'
p9
S'lozenge'
p10
sS'lib'
p11
(dp12
sS'unicodes'
p13
(tsS'width'
p14
I1164
sS'contours'
p15
(tsS'components'
p16
(tsS'anchors'
p17
(tsssS'org.robofab.postScriptHintData'
p18
(dp19
s."
LayerCount: 2
Fore
SplineSet
918 752 m 1
 809 961 710 1142 602 1354 c 1
 488 1144 389 963 277 752 c 1
 386 541 479 357 591 147 c 1
 704 359 806 540 918 752 c 1
539 1551 m 1
 661 1551 l 1
 1087 751 l 1
 652 -46 l 1
 532 -46 l 1
 108 750 l 1
 539 1551 l 1
EndSplineSet
EndChar

StartChar: m
Encoding: 109 109 271
Width: 1873
VWidth: 0
GlyphClass: 2
Flags: HW
PickledData: "(dp1
S'org.pippin.gimp.org.kernagic'
p2
(dp3
S'lstem'
p4
I0
sS'rstem'
p5
I0
ssS'com.typemytype.robofont.layerData'
p6
(dp7
sS'com.fontlab.hintData'
p8
(dp9
S'vhints'
p10
((dp11
S'position'
p12
I193
sS'width'
p13
I122
s(dp14
g12
I193
sg13
I98
s(dp15
g12
I845
sg13
I122
s(dp16
g12
I1483
sg13
I122
stp17
sS'hhints'
p18
((dp19
g12
I982
sg13
I92
stp20
ssS'org.robofab.postScriptHintData'
p21
(dp22
s."
HStem: 982 92
VStem: 193 122 193 98 845 122 1483 122
AnchorPoint: "top" 1014 1082 basechar 0
LayerCount: 2
Fore
SplineSet
146 0 m 1
 146 1082 l 1
 377 1082 l 1
 395 889 l 1
 455 1020 562 1104 720 1104 c 0
 867 1104 988 1034 1042 877 c 1
 1103 1012 1214 1104 1384 1104 c 0
 1615 1104 1740 952 1740 686 c 2
 1740 0 l 1
 1469 0 l 1
 1469 635 l 2
 1469 808 1435 922 1303 922 c 0
 1199 922 1088 819 1079 654 c 1
 1079 0 l 1
 808 0 l 1
 808 616 l 2
 808 839 757 922 639 922 c 0
 513 922 430 816 417 631 c 1
 417 0 l 1
 146 0 l 1
EndSplineSet
EndChar

StartChar: macron
Encoding: 175 175 272
Width: 1091
VWidth: 0
GlyphClass: 4
Flags: HW
PickledData: "(dp1
S'org.robofab.postScriptHintData'
p2
(dp3
sS'com.typemytype.robofont.layerData'
p4
(dp5
s."
AnchorPoint: "mid" 532 1355 mark 0
AnchorPoint: "top" 545 1073 mark 0
LayerCount: 2
Fore
SplineSet
212 1296 m 1
 212 1423 l 1
 861 1423 l 1
 861 1296 l 1
 212 1296 l 1
EndSplineSet
EndChar

StartChar: minus
Encoding: 8722 8722 274
Width: 1194
VWidth: 0
GlyphClass: 2
Flags: HW
PickledData: "(dp1
S'org.pippin.gimp.org.kernagic'
p2
(dp3
S'lstem'
p4
I0
sS'rstem'
p5
I0
ssS'com.typemytype.robofont.layerData'
p6
(dp7
sS'org.robofab.postScriptHintData'
p8
(dp9
s."
LayerCount: 2
Fore
SplineSet
99 666 m 1
 1103 666 l 1
 1103 489 l 1
 99 489 l 1
 99 666 l 1
EndSplineSet
EndChar

StartChar: multiply
Encoding: 215 215 275
Width: 994
VWidth: 0
GlyphClass: 2
Flags: HW
PickledData: "(dp1
S'org.pippin.gimp.org.kernagic'
p2
(dp3
S'lstem'
p4
I0
sS'rstem'
p5
I0
ssS'com.typemytype.robofont.layerData'
p6
(dp7
sS'org.robofab.postScriptHintData'
p8
(dp9
s."
LayerCount: 2
Fore
SplineSet
103 878 m 1
 222 1005 l 1
 499 714 l 1
 772 1003 l 1
 894 877 l 1
 621 585 l 1
 671 534 896 294 896 294 c 1
 777 164 l 1
 499 456 l 1
 218 163 l 1
 99 292 l 1
 375 585 l 1
 103 878 l 1
EndSplineSet
EndChar

StartChar: n
Encoding: 110 110 276
Width: 1236
VWidth: 0
GlyphClass: 2
Flags: HW
PickledData: "(dp1
S'org.pippin.gimp.org.kernagic'
p2
(dp3
S'lstem'
p4
I0
sS'rstem'
p5
I0
ssS'com.typemytype.robofont.layerData'
p6
(dp7
sS'com.fontlab.hintData'
p8
(dp9
S'vhints'
p10
((dp11
S'position'
p12
I193
sS'width'
p13
I122
s(dp14
g12
I903
sg13
I122
stp15
sS'hhints'
p16
((dp17
g12
I0
sg13
I22
s(dp18
g12
I982
sg13
I92
s(dp19
g12
I1034
sg13
I21
stp20
ssS'org.robofab.postScriptHintData'
p21
(dp22
s."
HStem: 0 22 982 92 1034 21
VStem: 193 122 903 122
AnchorPoint: "bot" 631 0 basechar 0
AnchorPoint: "top" 700 1082 basechar 0
LayerCount: 2
Fore
SplineSet
148 0 m 1
 148 1082 l 1
 379 1082 l 1
 399 887 l 1
 455 1005 556 1104 741 1104 c 0
 984 1104 1103 942 1103 662 c 2
 1103 0 l 1
 832 0 l 1
 832 646 l 2
 832 833 786 922 659 922 c 0
 500 922 419 805 419 617 c 2
 419 0 l 1
 148 0 l 1
EndSplineSet
EndChar

StartChar: nine
Encoding: 57 57 281
Width: 1319
VWidth: 0
GlyphClass: 2
Flags: HW
PickledData: "(dp1
S'org.pippin.gimp.org.kernagic'
p2
(dp3
S'lstem'
p4
I0
sS'rstem'
p5
I0
ssS'com.typemytype.robofont.layerData'
p6
(dp7
sS'org.robofab.postScriptHintData'
p8
(dp9
s."
LayerCount: 2
Fore
SplineSet
932 1008 m 0
 932 1162 841 1281 684 1281 c 0
 527 1281 433 1162 433 1007 c 0
 433 845 519 730 676 730 c 0
 799 730 932 812 932 1008 c 0
339 0 m 1
 339 27 l 1
 490 222 639 419 792 612 c 1
 735 582 665 561 595 561 c 0
 374 561 161 718 161 1013 c 0
 161 1281 365 1476 684 1476 c 0
 1014 1476 1203 1264 1203 998 c 0
 1203 804 1127 671 1011 517 c 1
 632 0 l 1
 339 0 l 1
EndSplineSet
EndChar

StartChar: notequal
Encoding: 8800 8800 282
Width: 1139
VWidth: 0
GlyphClass: 2
Flags: HW
PickledData: "(dp1
S'org.pippin.gimp.org.kernagic'
p2
(dp3
S'lstem'
p4
I0
sS'rstem'
p5
I0
ssS'com.typemytype.robofont.layerData'
p6
(dp7
S'b'
(dp8
S'name'
p9
S'notequal'
p10
sS'lib'
p11
(dp12
sS'unicodes'
p13
(tsS'width'
p14
I1079
sS'contours'
p15
(tsS'components'
p16
(tsS'anchors'
p17
(tsssS'org.robofab.postScriptHintData'
p18
(dp19
s."
LayerCount: 2
Fore
SplineSet
352 44 m 1
 208 68 l 1
 325 332 l 1
 72 332 l 1
 63 492 l 1
 400 492 l 1
 527 749 l 1
 72 749 l 1
 61 916 l 1
 597 916 l 1
 732 1190 l 1
 878 1169 l 1
 764 916 l 1
 1030 916 l 1
 1043 748 l 1
 692 748 l 1
 562 491 l 1
 1032 491 l 1
 1043 332 l 1
 490 332 l 1
 352 44 l 1
EndSplineSet
EndChar

StartChar: numbersign
Encoding: 35 35 284
Width: 1135
VWidth: 0
GlyphClass: 2
Flags: HW
PickledData: "(dp1
S'org.pippin.gimp.org.kernagic'
p2
(dp3
S'lstem'
p4
I0
sS'rstem'
p5
I0
ssS'com.typemytype.robofont.layerData'
p6
(dp7
sS'org.robofab.postScriptHintData'
p8
(dp9
s."
LayerCount: 2
Fore
SplineSet
410 556 m 1
 665 556 l 1
 743 967 l 1
 487 967 l 1
 410 556 l 1
161 -9 m 1
 246 441 l 1
 64 441 l 1
 81 556 l 1
 267 556 l 1
 344 967 l 1
 150 967 l 1
 166 1083 l 1
 365 1083 l 1
 448 1508 l 1
 592 1508 l 1
 508 1083 l 1
 765 1083 l 1
 848 1508 l 1
 991 1508 l 1
 907 1083 l 1
 1084 1083 l 1
 1067 967 l 1
 886 967 l 1
 809 556 l 1
 996 556 l 1
 980 441 l 1
 787 441 l 1
 701 -9 l 1
 559 -9 l 1
 644 441 l 1
 387 441 l 1
 302 -9 l 1
 161 -9 l 1
EndSplineSet
EndChar

StartChar: o
Encoding: 111 111 285
Width: 1230
VWidth: 0
GlyphClass: 2
Flags: HW
PickledData: "(dp1
S'org.pippin.gimp.org.kernagic'
p2
(dp3
S'lstem'
p4
I0
sS'rstem'
p5
I0
ssS'com.typemytype.robofont.guides'
p6
((dp7
S'y'
I1093
sS'x'
I582
sS'magnetic'
p8
I5
sS'angle'
p9
F90
sS'isGlobal'
p10
I00
stp11
sS'com.typemytype.robofont.layerData'
p12
(dp13
sS'com.fontlab.hintData'
p14
(dp15
S'vhints'
p16
((dp17
S'position'
p18
I128
sS'width'
p19
I120
s(dp20
g18
I982
sg19
I120
stp21
sS'hhints'
p22
((dp23
g18
I-19
sg19
I92
s(dp24
g18
I982
sg19
I92
stp25
ssS'org.robofab.postScriptHintData'
p26
(dp27
s."
HStem: -19 92 982 92
VStem: 128 120 982 120
AnchorPoint: "ogonek" 689 1 basechar 0
AnchorPoint: "top" 616 1082 basechar 0
LayerCount: 2
Fore
SplineSet
615 -21 m 0
 288 -21 96 208 96 544 c 0
 96 880 287 1104 615 1104 c 0
 943 1104 1134 880 1134 544 c 0
 1134 208 942 -21 615 -21 c 0
615 162 m 0
 780 162 861 302 861 543 c 0
 861 786 781 922 615 922 c 0
 449 922 369 786 369 543 c 0
 369 301 450 162 615 162 c 0
EndSplineSet
EndChar

StartChar: oe
Encoding: 339 339 290
Width: 1876
VWidth: 0
GlyphClass: 2
Flags: HW
PickledData: "(dp1
S'org.pippin.gimp.org.kernagic'
p2
(dp3
S'lstem'
p4
I0
sS'rstem'
p5
I0
ssS'com.typemytype.robofont.layerData'
p6
(dp7
S'b'
(dp8
S'name'
p9
S'oe'
p10
sS'lib'
p11
(dp12
sS'unicodes'
p13
(tsS'width'
p14
F1915.3599999999999
sS'contours'
p15
(tsS'components'
p16
(tsS'anchors'
p17
(tsssS'org.robofab.postScriptHintData'
p18
(dp19
s."
LayerCount: 2
Fore
SplineSet
1085 621 m 1
 1580 621 l 1
 1572 838 1496 931 1356 931 c 0
 1219 931 1099 828 1085 621 c 1
582 159 m 0
 766 159 849 303 849 543 c 0
 849 784 766 925 582 925 c 0
 397 925 314 784 314 543 c 0
 314 303 397 159 582 159 c 0
1778 585 m 0
 1778 525 1770 471 1770 471 c 1
 1081 471 l 1
 1099 231 1257 159 1408 159 c 0
 1525 159 1628 203 1687 249 c 1
 1700 249 l 1
 1759 99 l 1
 1688 37 1552 -18 1387 -18 c 0
 1212 -18 1046 73 968 203 c 1
 902 79 750 -18 582 -18 c 0
 272 -18 85 205 85 543 c 0
 85 882 271 1101 582 1101 c 0
 752 1101 904 1005 970 880 c 1
 1041 1006 1195 1101 1348 1101 c 0
 1629 1101 1778 896 1778 585 c 0
EndSplineSet
EndChar

StartChar: ogonek
Encoding: 731 731 291
Width: 766
VWidth: 0
GlyphClass: 4
Flags: HW
PickledData: "(dp1
S'org.pippin.gimp.org.kernagic'
p2
(dp3
S'lstem'
p4
I0
sS'rstem'
p5
I0
ssS'com.typemytype.robofont.layerData'
p6
(dp7
sS'org.robofab.postScriptHintData'
p8
(dp9
s."
AnchorPoint: "ogonek" 487 0 mark 0
LayerCount: 2
Fore
SplineSet
447 -436 m 0
 329 -436 245 -377 245 -265 c 0
 245 -138 352 -39 441 4 c 1
 543 4 l 1
 471 -52 415 -150 415 -217 c 0
 415 -263 447 -295 490 -295 c 0
 542 -295 597 -273 613 -265 c 1
 618 -400 l 1
 569 -421 505 -436 447 -436 c 0
EndSplineSet
EndChar

StartChar: one
Encoding: 49 49 295
Width: 1319
VWidth: 0
GlyphClass: 2
Flags: HW
PickledData: "(dp1
S'org.pippin.gimp.org.kernagic'
p2
(dp3
S'lstem'
p4
I0
sS'rstem'
p5
I0
ssS'com.typemytype.robofont.layerData'
p6
(dp7
sS'org.robofab.postScriptHintData'
p8
(dp9
s."
LayerCount: 2
Fore
SplineSet
196 0 m 1
 196 193 l 1
 576 193 l 1
 576 1212 l 1
 466 1158 295 1101 202 1090 c 1
 202 1282 l 1
 314 1311 522 1389 613 1456 c 1
 863 1456 l 1
 863 193 l 1
 1200 193 l 1
 1200 0 l 1
 196 0 l 1
EndSplineSet
EndChar

StartChar: onehalf
Encoding: 189 189 296
Width: 1867
VWidth: 0
GlyphClass: 2
Flags: HW
PickledData: "(dp1
S'org.pippin.gimp.org.kernagic'
p2
(dp3
S'lstem'
p4
I0
sS'rstem'
p5
I0
ssS'com.typemytype.robofont.layerData'
p6
(dp7
sS'org.robofab.postScriptHintData'
p8
(dp9
s."
LayerCount: 2
Fore
SplineSet
389 0 m 1
 1339 1494 l 1
 1513 1494 l 1
 562 0 l 1
 389 0 l 1
147 597 m 1
 147 727 l 1
 300 727 l 1
 300 1327 l 1
 263 1306 153 1257 138 1252 c 1
 138 1384 l 1
 181 1404 307 1469 341 1494 c 1
 477 1494 l 1
 477 727 l 1
 618 727 l 1
 618 597 l 1
 147 597 l 1
1219 0 m 1
 1201 130 l 1
 1482 408 l 1
 1565 492 1595 551 1595 611 c 0
 1595 690 1534 733 1462 733 c 0
 1383 733 1303 691 1248 619 c 1
 1157 717 l 1
 1217 805 1330 879 1467 879 c 0
 1668 879 1768 759 1768 611 c 0
 1768 502 1716 413 1590 300 c 2
 1408 135 l 1
 1761 135 l 1
 1755 0 l 1
 1219 0 l 1
EndSplineSet
EndChar

StartChar: onequarter
Encoding: 188 188 297
Width: 1671
VWidth: 0
GlyphClass: 2
Flags: HW
PickledData: "(dp1
S'org.pippin.gimp.org.kernagic'
p2
(dp3
S'lstem'
p4
I0
sS'rstem'
p5
I0
ssS'com.typemytype.robofont.layerData'
p6
(dp7
sS'org.robofab.postScriptHintData'
p8
(dp9
s."
LayerCount: 2
Fore
SplineSet
1159 313 m 1
 1373 313 l 1
 1373 664 l 1
 1159 313 l 1
336 0 m 1
 1296 1493 l 1
 1475 1493 l 1
 519 0 l 1
 336 0 l 1
1373 0 m 1
 1373 184 l 1
 990 184 l 1
 990 310 l 1
 1363 868 l 1
 1526 868 l 1
 1526 313 l 1
 1639 313 l 1
 1634 184 l 1
 1526 184 l 1
 1526 0 l 1
 1373 0 l 1
124 597 m 1
 124 743 l 1
 277 743 l 1
 277 1311 l 1
 240 1291 123 1242 110 1237 c 1
 110 1384 l 1
 153 1403 273 1469 307 1493 c 1
 443 1493 l 1
 443 743 l 1
 580 743 l 1
 580 597 l 1
 124 597 l 1
EndSplineSet
EndChar

StartChar: ordmasculine
Encoding: 186 186 299
Width: 965
VWidth: 0
GlyphClass: 2
Flags: HW
PickledData: "(dp1
S'org.pippin.gimp.org.kernagic'
p2
(dp3
S'lstem'
p4
I0
sS'rstem'
p5
I0
ssS'com.typemytype.robofont.layerData'
p6
(dp7
S'b'
(dp8
S'name'
p9
S'ordmasculine'
p10
sS'lib'
p11
(dp12
sS'unicodes'
p13
(tsS'width'
p14
I965
sS'contours'
p15
(tsS'components'
p16
(tsS'anchors'
p17
(tsssS'org.robofab.postScriptHintData'
p18
(dp19
s."
LayerCount: 2
Fore
SplineSet
665 1112 m 0
 665 1280 601 1370 480 1370 c 0
 364 1370 302 1283 302 1115 c 0
 302 950 363 864 480 864 c 0
 606 864 665 949 665 1112 c 0
123 1115 m 0
 123 1344 249 1519 480 1519 c 0
 718 1519 837 1347 837 1115 c 0
 837 892 700 715 480 715 c 0
 249 715 123 890 123 1115 c 0
EndSplineSet
EndChar

StartChar: oslash
Encoding: 248 248 300
Width: 1230
VWidth: 0
GlyphClass: 2
Flags: HW
PickledData: "(dp1
S'org.pippin.gimp.org.kernagic'
p2
(dp3
S'lstem'
p4
I0
sS'rstem'
p5
I0
ssS'com.typemytype.robofont.layerData'
p6
(dp7
sS'org.robofab.postScriptHintData'
p8
(dp9
s."
LayerCount: 2
Fore
SplineSet
746 883 m 1
 423 274 l 1
 387 339 369 429 369 543 c 0
 369 786 449 922 615 922 c 0
 667 922 711 909 746 883 c 1
808 811 m 1
 844 747 861 657 861 543 c 0
 861 302 780 162 615 162 c 0
 563 162 519 176 483 203 c 1
 808 811 l 1
212 -125 m 1
 284 -171 l 1
 388 24 l 1
 454 -5 530 -21 615 -21 c 0
 942 -21 1134 208 1134 544 c 0
 1134 756 1058 924 919 1019 c 1
 1018 1205 l 1
 941 1251 l 1
 840 1061 l 1
 775 1089 700 1104 615 1104 c 0
 287 1104 96 880 96 544 c 0
 96 331 173 161 313 65 c 1
 212 -125 l 1
EndSplineSet
EndChar

StartChar: p
Encoding: 112 112 303
Width: 1242
VWidth: 0
GlyphClass: 2
Flags: HW
PickledData: "(dp1
S'org.pippin.gimp.org.kernagic'
p2
(dp3
S'lstem'
p4
I0
sS'rstem'
p5
I0
ssS'com.typemytype.robofont.layerData'
p6
(dp7
sS'com.fontlab.hintData'
p8
(dp9
S'vhints'
p10
((dp11
S'position'
p12
I193
sS'width'
p13
I122
s(dp14
g12
I193
sg13
I97
s(dp15
g12
I1009
sg13
I122
stp16
sS'hhints'
p17
((dp18
g12
I-19
sg13
I92
s(dp19
g12
I982
sg13
I92
stp20
ssS'org.robofab.postScriptHintData'
p21
(dp22
s."
HStem: -19 92 982 92
VStem: 193 122 193 97 1009 122
AnchorPoint: "top" 663 1082 basechar 0
LayerCount: 2
Fore
SplineSet
640 162 m 0
 783 162 871 269 871 546 c 0
 871 799 802 922 657 922 c 0
 505 922 429 817 413 663 c 1
 413 270 l 1
 463 203 539 162 640 162 c 0
148 -467 m 1
 148 1082 l 1
 384 1082 l 1
 396 879 l 1
 444 1011 547 1104 715 1104 c 0
 1006 1104 1144 870 1144 545 c 0
 1144 214 985 -20 695 -20 c 0
 562 -20 469 31 411 97 c 1
 416 -61 l 1
 416 -467 l 1
 148 -467 l 1
EndSplineSet
EndChar

StartChar: paragraph
Encoding: 182 182 304
Width: 1196
VWidth: 0
GlyphClass: 2
Flags: HW
PickledData: "(dp1
S'org.pippin.gimp.org.kernagic'
p2
(dp3
S'lstem'
p4
I0
sS'rstem'
p5
I0
ssS'com.typemytype.robofont.layerData'
p6
(dp7
sS'org.robofab.postScriptHintData'
p8
(dp9
s."
LayerCount: 2
Fore
SplineSet
672 1318 m 1
 672 -230 l 1
 518 -230 l 1
 518 722 l 1
 234 722 115 897 115 1083 c 0
 115 1305 238 1456 609 1456 c 2
 993 1456 l 1
 993 -230 l 1
 839 -230 l 1
 839 1318 l 1
 672 1318 l 1
EndSplineSet
EndChar

StartChar: parenleft
Encoding: 40 40 305
Width: 826
VWidth: 0
GlyphClass: 2
Flags: HW
PickledData: "(dp1
S'org.pippin.gimp.org.kernagic'
p2
(dp3
S'lstem'
p4
I0
sS'rstem'
p5
I0
ssS'com.typemytype.robofont.layerData'
p6
(dp7
S'b'
(dp8
S'name'
p9
S'parenright'
p10
sS'lib'
p11
(dp12
sS'unicodes'
p13
(tsS'width'
p14
I766
sS'contours'
p15
(tsS'components'
p16
(tsS'anchors'
p17
(tsssS'org.robofab.postScriptHintData'
p18
(dp19
s."
LayerCount: 2
Fore
SplineSet
210 663 m 0
 210 1008 323 1371 481 1593 c 1
 678 1593 l 1
 678 1556 l 1
 526 1343 417 1067 417 663 c 0
 417 260 526 -22 678 -235 c 1
 678 -267 l 1
 481 -267 l 1
 323 -44 210 318 210 663 c 0
EndSplineSet
EndChar

StartChar: parenright
Encoding: 41 41 306
Width: 826
VWidth: 0
GlyphClass: 2
Flags: HW
PickledData: "(dp1
S'org.pippin.gimp.org.kernagic'
p2
(dp3
S'lstem'
p4
I0
sS'rstem'
p5
I0
ssS'com.typemytype.robofont.layerData'
p6
(dp7
S'b'
(dp8
S'name'
p9
S'parenright'
p10
sS'lib'
p11
(dp12
sS'unicodes'
p13
(tsS'width'
p14
I766
sS'contours'
p15
(tsS'components'
p16
(tsS'anchors'
p17
(tsssS'org.robofab.postScriptHintData'
p18
(dp19
s."
LayerCount: 2
Fore
SplineSet
620 663 m 0
 620 318 507 -44 349 -267 c 1
 152 -267 l 1
 152 -235 l 1
 304 -22 413 260 413 663 c 0
 413 1067 304 1343 152 1556 c 1
 152 1593 l 1
 349 1593 l 1
 507 1371 620 1008 620 663 c 0
EndSplineSet
EndChar

StartChar: partialdiff
Encoding: 8706 8706 307
Width: 1284
VWidth: 0
GlyphClass: 2
Flags: HW
PickledData: "(dp1
S'org.robofab.postScriptHintData'
p2
(dp3
s."
LayerCount: 2
Fore
SplineSet
529 113 m 0
 752 113 864 542 885 826 c 1
 589 796 432 469 432 268 c 0
 432 178 464 113 529 113 c 0
515 -20 m 0
 289 -20 183 125 183 302 c 0
 183 577 437 930 892 946 c 1
 892 957 893 967 893 977 c 0
 893 1243 736 1405 532 1405 c 0
 461 1405 383 1385 305 1343 c 1
 255 1469 l 1
 363 1531 472 1560 575 1560 c 0
 874 1560 1116 1314 1116 920 c 0
 1116 390 880 -20 515 -20 c 0
EndSplineSet
EndChar

StartChar: percent
Encoding: 37 37 308
Width: 1925
VWidth: 0
GlyphClass: 2
Flags: HW
PickledData: "(dp1
S'org.pippin.gimp.org.kernagic'
p2
(dp3
S'lstem'
p4
I0
sS'rstem'
p5
I0
ssS'com.typemytype.robofont.layerData'
p6
(dp7
S'b'
(dp8
S'name'
p9
S'percent'
p10
sS'lib'
p11
(dp12
sS'unicodes'
p13
(tsS'width'
p14
I1563
sS'contours'
p15
(tsS'components'
p16
(tsS'anchors'
p17
(tsssS'org.robofab.postScriptHintData'
p18
(dp19
s."
LayerCount: 2
Fore
SplineSet
1445 -21 m 0
 1205 -21 1079 155 1079 380 c 0
 1079 605 1209 777 1445 777 c 0
 1685 777 1812 609 1812 380 c 0
 1812 155 1682 -21 1445 -21 c 0
1448 129 m 0
 1581 129 1636 241 1636 382 c 0
 1636 528 1580 632 1448 632 c 0
 1314 632 1256 523 1256 382 c 0
 1256 238 1314 129 1448 129 c 0
430 0 m 1
 1273 1495 l 1
 1459 1495 l 1
 625 0 l 1
 430 0 l 1
448 717 m 0
 208 717 92 893 92 1117 c 0
 92 1343 212 1515 448 1515 c 0
 688 1515 815 1346 815 1117 c 0
 815 893 685 717 448 717 c 0
451 867 m 0
 584 867 639 978 639 1120 c 0
 639 1266 583 1370 451 1370 c 0
 317 1370 259 1261 259 1120 c 0
 259 975 317 867 451 867 c 0
EndSplineSet
EndChar

StartChar: period
Encoding: 46 46 309
Width: 684
VWidth: 0
GlyphClass: 2
Flags: HW
PickledData: "(dp1
S'org.pippin.gimp.org.kernagic'
p2
(dp3
S'lstem'
p4
I0
sS'rstem'
p5
I0
ssS'com.typemytype.robofont.layerData'
p6
(dp7
S'b'
(dp8
S'name'
p9
S'period'
p10
sS'lib'
p11
(dp12
sS'unicodes'
p13
(tsS'width'
p14
I624
sS'contours'
p15
(tsS'components'
p16
(tsS'anchors'
p17
(tsssS'org.robofab.postScriptHintData'
p18
(dp19
s."
LayerCount: 2
Fore
SplineSet
340 -9 m 0
 257 -9 201 39 201 134 c 0
 201 229 256 277 340 277 c 0
 424 277 479 229 479 134 c 0
 479 40 424 -9 340 -9 c 0
EndSplineSet
EndChar

StartChar: periodcentered
Encoding: 183 183 310
Width: 623
VWidth: 0
GlyphClass: 2
Flags: HW
PickledData: "(dp1
S'org.pippin.gimp.org.kernagic'
p2
(dp3
S'lstem'
p4
I0
sS'rstem'
p5
I0
ssS'com.typemytype.robofont.layerData'
p6
(dp7
S'b'
(dp8
S'name'
p9
S'periodcentered'
p10
sS'lib'
p11
(dp12
sS'unicodes'
p13
(tsS'width'
p14
I653
sS'contours'
p15
(tsS'components'
p16
(tsS'anchors'
p17
(tsssS'org.robofab.postScriptHintData'
p18
(dp19
s."
LayerCount: 2
Fore
SplineSet
413 478 m 0
 327 478 269 536 269 626 c 0
 269 714 327 770 413 770 c 0
 498 770 556 714 556 626 c 0
 556 536 498 478 413 478 c 0
EndSplineSet
EndChar

StartChar: perthousand
Encoding: 8240 8240 311
Width: 2780
VWidth: 0
GlyphClass: 2
Flags: HW
PickledData: "(dp1
S'org.pippin.gimp.org.kernagic'
p2
(dp3
S'lstem'
p4
I0
sS'rstem'
p5
I0
ssS'com.typemytype.robofont.layerData'
p6
(dp7
S'b'
(dp8
S'name'
p9
S'perthousand'
p10
sS'lib'
p11
(dp12
sS'unicodes'
p13
(tsS'width'
p14
I2251
sS'contours'
p15
(tsS'components'
p16
(tsS'anchors'
p17
(tsssS'org.robofab.postScriptHintData'
p18
(dp19
s."
LayerCount: 2
Fore
SplineSet
2300 -21 m 0
 2060 -21 1934 155 1934 380 c 0
 1934 605 2064 777 2300 777 c 0
 2540 777 2667 609 2667 380 c 0
 2667 155 2537 -21 2300 -21 c 0
2303 129 m 0
 2436 129 2491 241 2491 382 c 0
 2491 528 2435 632 2303 632 c 0
 2169 632 2111 523 2111 382 c 0
 2111 238 2169 129 2303 129 c 0
EndSplineSet
Refer: 308 37 N 1 0 0 1 31 0 2
EndChar

StartChar: pi
Encoding: 960 960 312
Width: 1468
VWidth: 0
GlyphClass: 2
Flags: HW
PickledData: "(dp1
S'org.robofab.postScriptHintData'
p2
(dp3
sS'com.typemytype.robofont.layerData'
p4
(dp5
s."
LayerCount: 2
Fore
SplineSet
1146 -13 m 0
 997 -13 904 51 904 231 c 0
 904 371 938 665 974 874 c 1
 626 874 l 1
 600 326 l 2
 589 106 519 4 171 4 c 1
 171 112 l 1
 257 112 390 173 418 391 c 2
 482 874 l 1
 387 874 l 1
 307 873 267 819 255 742 c 1
 159 742 l 1
 159 960 233 1082 472 1082 c 2
 1366 1082 l 1
 1366 874 l 1
 1128 874 l 1
 1112 674 1105 403 1105 294 c 0
 1105 188 1154 153 1217 153 c 0
 1258 153 1296 163 1324 173 c 1
 1324 44 l 1
 1290 11 1224 -13 1146 -13 c 0
EndSplineSet
EndChar

StartChar: plus
Encoding: 43 43 313
Width: 1166
VWidth: 0
GlyphClass: 2
Flags: HW
PickledData: "(dp1
S'org.pippin.gimp.org.kernagic'
p2
(dp3
S'lstem'
p4
I0
sS'rstem'
p5
I0
ssS'com.typemytype.robofont.layerData'
p6
(dp7
S'b'
(dp8
S'name'
p9
S'plus'
p10
sS'lib'
p11
(dp12
sS'unicodes'
p13
(tsS'width'
p14
I1136
sS'contours'
p15
(tsS'components'
p16
(tsS'anchors'
p17
(tsssS'org.robofab.postScriptHintData'
p18
(dp19
s."
LayerCount: 2
Fore
SplineSet
473 1198 m 1
 687 1198 l 1
 687 823 l 1
 1047 823 l 1
 1047 614 l 1
 686 614 l 1
 686 233 l 1
 473 233 l 1
 473 614 l 1
 110 614 l 1
 110 823 l 1
 473 823 l 1
 473 1198 l 1
EndSplineSet
EndChar

StartChar: plusminus
Encoding: 177 177 314
Width: 1136
VWidth: 0
GlyphClass: 2
Flags: HW
PickledData: "(dp1
S'org.pippin.gimp.org.kernagic'
p2
(dp3
S'lstem'
p4
I0
sS'rstem'
p5
I0
ssS'com.typemytype.robofont.layerData'
p6
(dp7
sS'org.robofab.postScriptHintData'
p8
(dp9
s."
LayerCount: 2
Fore
SplineSet
105 164 m 1
 1039 164 l 1
 1039 0 l 1
 105 0 l 1
 105 164 l 1
476 1178 m 1
 662 1178 l 1
 662 816 l 1
 1022 816 l 1
 1022 636 l 1
 662 636 l 1
 662 275 l 1
 476 275 l 1
 476 636 l 1
 114 636 l 1
 114 816 l 1
 476 816 l 1
 476 1178 l 1
EndSplineSet
EndChar

StartChar: product
Encoding: 8719 8719 315
Width: 1564
VWidth: 0
GlyphClass: 2
Flags: HW
PickledData: "(dp1
S'org.pippin.gimp.org.kernagic'
p2
(dp3
S'lstem'
p4
I0
sS'rstem'
p5
I0
ssS'com.typemytype.robofont.layerData'
p6
(dp7
S'b'
(dp8
S'name'
p9
S'product'
p10
sS'lib'
p11
(dp12
sS'unicodes'
p13
(tsS'width'
p14
I1533
sS'contours'
p15
(tsS'components'
p16
(tsS'anchors'
p17
(tsssS'org.robofab.postScriptHintData'
p18
(dp19
s."
LayerCount: 2
Fore
SplineSet
203 1519 m 1
 1366 1519 l 1
 1366 0 l 1
 1189 0 l 1
 1189 1362 l 1
 380 1362 l 1
 380 0 l 1
 203 0 l 1
 203 1519 l 1
EndSplineSet
EndChar

StartChar: q
Encoding: 113 113 316
Width: 1234
VWidth: 0
GlyphClass: 2
Flags: HW
PickledData: "(dp1
S'org.pippin.gimp.org.kernagic'
p2
(dp3
S'lstem'
p4
I0
sS'rstem'
p5
I0
ssS'com.typemytype.robofont.layerData'
p6
(dp7
sS'org.robofab.postScriptHintData'
p8
(dp9
s."
LayerCount: 2
Fore
SplineSet
607 162 m 0
 707 162 782 201 827 261 c 1
 827 804 l 1
 776 881 697 922 599 922 c 0
 455 922 369 808 369 548 c 0
 369 267 462 162 607 162 c 0
824 -467 m 1
 824 -37 l 1
 828 99 l 1
 764 27 666 -20 553 -20 c 0
 552 -20 552 -20 551 -20 c 0
 249 -20 96 213 96 547 c 0
 96 872 256 1104 548 1104 c 0
 699 1104 795 1030 848 935 c 1
 856 1082 l 1
 1092 1082 l 1
 1092 -467 l 1
 824 -467 l 1
EndSplineSet
EndChar

StartChar: question
Encoding: 63 63 317
Width: 999
VWidth: 0
GlyphClass: 2
Flags: HW
PickledData: "(dp1
S'org.pippin.gimp.org.kernagic'
p2
(dp3
S'lstem'
p4
I0
sS'rstem'
p5
I0
ssS'com.typemytype.robofont.layerData'
p6
(dp7
sS'org.robofab.postScriptHintData'
p8
(dp9
s."
LayerCount: 2
Fore
SplineSet
368 -17 m 0
 278 -17 228 44 228 123 c 0
 228 202 278 262 368 262 c 0
 457 262 505 202 505 123 c 0
 505 43 457 -17 368 -17 c 0
327 469 m 1
 400 806 596 933 596 1109 c 0
 596 1219 541 1287 423 1287 c 0
 334 1287 239 1244 177 1207 c 1
 115 1398 l 1
 205 1479 343 1519 464 1519 c 0
 667 1519 848 1405 848 1172 c 0
 848 828 560 785 407 454 c 1
 327 469 l 1
EndSplineSet
EndChar

StartChar: quotedbl
Encoding: 34 34 319
Width: 785
VWidth: 0
GlyphClass: 2
Flags: HW
PickledData: "(dp1
S'org.robofab.postScriptHintData'
p2
(dp3
sS'com.typemytype.robofont.layerData'
p4
(dp5
s."
LayerCount: 2
Fore
SplineSet
527 953 m 1
 448 1543 l 1
 694 1543 l 1
 651 953 l 1
 527 953 l 1
177 953 m 1
 97 1543 l 1
 343 1543 l 1
 300 953 l 1
 177 953 l 1
EndSplineSet
EndChar

StartChar: quotedblbase
Encoding: 8222 8222 320
Width: 864
VWidth: 0
GlyphClass: 2
Flags: HW
PickledData: "(dp1
S'org.robofab.postScriptHintData'
p2
(dp3
s."
LayerCount: 2
Fore
SplineSet
469 -347 m 1
 511 151 l 1
 749 151 l 1
 632 -347 l 1
 469 -347 l 1
107 -347 m 1
 150 151 l 1
 387 151 l 1
 272 -347 l 1
 107 -347 l 1
EndSplineSet
EndChar

StartChar: quotedblleft
Encoding: 8220 8220 321
Width: 940
VWidth: 0
GlyphClass: 2
Flags: HW
PickledData: "(dp1
S'org.robofab.postScriptHintData'
p2
(dp3
sS'com.typemytype.robofont.layerData'
p4
(dp5
s."
LayerCount: 2
Fore
SplineSet
526 1026 m 1
 643 1529 l 1
 813 1529 l 1
 772 1026 l 1
 526 1026 l 1
136 1026 m 1
 253 1529 l 1
 424 1529 l 1
 383 1026 l 1
 136 1026 l 1
EndSplineSet
EndChar

StartChar: quotedblright
Encoding: 8221 8221 322
Width: 940
VWidth: 0
GlyphClass: 2
Flags: HW
PickledData: "(dp1
S'org.robofab.postScriptHintData'
p2
(dp3
sS'com.typemytype.robofont.layerData'
p4
(dp5
s."
LayerCount: 2
Fore
SplineSet
136 1026 m 1
 177 1529 l 1
 424 1529 l 1
 307 1026 l 1
 136 1026 l 1
526 1026 m 1
 567 1529 l 1
 813 1529 l 1
 696 1026 l 1
 526 1026 l 1
EndSplineSet
EndChar

StartChar: quoteleft
Encoding: 8216 8216 323
Width: 528
VWidth: 0
GlyphClass: 2
Flags: HW
PickledData: "(dp1
S'org.robofab.postScriptHintData'
p2
(dp3
sS'com.typemytype.robofont.layerData'
p4
(dp5
s."
LayerCount: 2
Fore
SplineSet
424 1529 m 1
 383 1026 l 1
 136 1026 l 1
 253 1529 l 1
 424 1529 l 1
EndSplineSet
EndChar

StartChar: quoteright
Encoding: 8217 8217 324
Width: 528
VWidth: 0
GlyphClass: 2
Flags: HW
PickledData: "(dp1
S'org.robofab.postScriptHintData'
p2
(dp3
sS'com.typemytype.robofont.layerData'
p4
(dp5
s."
LayerCount: 2
Fore
SplineSet
136 1026 m 1
 177 1529 l 1
 424 1529 l 1
 307 1026 l 1
 136 1026 l 1
EndSplineSet
EndChar

StartChar: quotesinglbase
Encoding: 8218 8218 325
Width: 492
VWidth: 0
GlyphClass: 2
Flags: HW
PickledData: "(dp1
S'org.robofab.postScriptHintData'
p2
(dp3
s."
LayerCount: 2
Fore
SplineSet
101 -347 m 1
 147 151 l 1
 386 151 l 1
 268 -347 l 1
 101 -347 l 1
EndSplineSet
EndChar

StartChar: quotesingle
Encoding: 39 39 326
Width: 524
VWidth: 0
GlyphClass: 2
Flags: HW
PickledData: "(dp1
S'org.robofab.postScriptHintData'
p2
(dp3
s."
LayerCount: 2
Fore
SplineSet
194 932 m 1
 123 1529 l 1
 363 1529 l 1
 325 932 l 1
 194 932 l 1
EndSplineSet
EndChar

StartChar: r
Encoding: 114 114 327
Width: 827
VWidth: 0
GlyphClass: 2
Flags: HW
PickledData: "(dp1
S'org.pippin.gimp.org.kernagic'
p2
(dp3
S'lstem'
p4
I0
sS'rstem'
p5
I352
ssS'com.typemytype.robofont.layerData'
p6
(dp7
sS'com.fontlab.hintData'
p8
(dp9
S'vhints'
p10
((dp11
S'position'
p12
I193
sS'width'
p13
I122
s(dp14
g12
I193
sg13
I92
stp15
sS'hhints'
p16
((dp17
g12
I974
sg13
I94
stp18
ssS'org.robofab.postScriptHintData'
p19
(dp20
s."
HStem: 974 94
VStem: 193 122 193 92
AnchorPoint: "bot" 326 0 basechar 0
AnchorPoint: "top" 441 1082 basechar 0
LayerCount: 2
Fore
SplineSet
143 0 m 1
 143 1082 l 1
 374 1082 l 1
 392 883 l 1
 459 1037 572 1092 680 1092 c 0
 709 1092 748 1090 788 1083 c 1
 770 881 l 1
 721 884 l 2
 715 884 709 884 703 884 c 0
 531 884 414 773 414 611 c 2
 414 0 l 1
 143 0 l 1
EndSplineSet
EndChar

StartChar: radical
Encoding: 8730 8730 329
Width: 1269
VWidth: 0
GlyphClass: 2
Flags: HW
PickledData: "(dp1
S'org.pippin.gimp.org.kernagic'
p2
(dp3
S'lstem'
p4
I0
sS'rstem'
p5
I0
ssS'com.typemytype.robofont.layerData'
p6
(dp7
S'b'
(dp8
S'name'
p9
S'radical'
p10
sS'lib'
p11
(dp12
sS'unicodes'
p13
(tsS'width'
p14
I1136
sS'contours'
p15
(tsS'components'
p16
(tsS'anchors'
p17
(tsssS'org.robofab.postScriptHintData'
p18
(dp19
s."
LayerCount: 2
Fore
SplineSet
1024 1639 m 1
 1237 1639 l 1
 759 -165 l 1
 536 -165 l 1
 200 763 l 1
 55 726 l 1
 32 849 l 1
 336 932 l 1
 429 662 527 396 615 120 c 1
 681 399 958 1360 1024 1639 c 1
EndSplineSet
EndChar

StartChar: registered
Encoding: 174 174 332
Width: 1877
VWidth: 0
GlyphClass: 2
Flags: HW
PickledData: "(dp1
S'org.pippin.gimp.org.kernagic'
p2
(dp3
S'lstem'
p4
I0
sS'rstem'
p5
I0
ssS'com.typemytype.robofont.layerData'
p6
(dp7
sS'org.robofab.postScriptHintData'
p8
(dp9
s."
LayerCount: 2
Fore
SplineSet
910 -39 m 0
 506 -39 146 264 146 729 c 0
 146 1193 506 1495 910 1495 c 0
 1315 1495 1676 1193 1676 729 c 0
 1676 264 1315 -39 910 -39 c 0
910 85 m 0
 1243 85 1535 340 1535 729 c 0
 1535 1116 1243 1371 910 1371 c 0
 578 1371 287 1117 287 729 c 0
 287 340 578 85 910 85 c 0
760 821 m 1
 906 821 l 2
 1046 821 1101 850 1101 952 c 0
 1101 1077 1042 1081 885 1081 c 2
 760 1081 l 1
 760 821 l 1
615 309 m 1
 615 1197 l 1
 911 1197 l 2
 1127 1197 1244 1143 1244 957 c 0
 1244 831 1189 754 1048 726 c 1
 1056 715 1284 309 1284 309 c 1
 1118 309 l 1
 1118 309 903 708 899 714 c 1
 760 714 l 1
 760 309 l 1
 615 309 l 1
EndSplineSet
EndChar

StartChar: ring
Encoding: 730 730 333
Width: 764
VWidth: 0
GlyphClass: 4
Flags: HW
PickledData: "(dp1
S'org.robofab.postScriptHintData'
p2
(dp3
sS'com.typemytype.robofont.layerData'
p4
(dp5
s."
AnchorPoint: "top" 364 1073 mark 0
LayerCount: 2
Fore
SplineSet
365 1195 m 0
 238 1195 156 1290 156 1400 c 0
 156 1510 237 1602 365 1602 c 0
 495 1602 577 1508 577 1400 c 0
 577 1290 493 1195 365 1195 c 0
365 1294 m 0
 424 1294 461 1343 461 1398 c 0
 461 1452 424 1502 365 1502 c 0
 307 1502 272 1452 272 1398 c 0
 272 1341 304 1294 365 1294 c 0
EndSplineSet
EndChar

StartChar: s
Encoding: 115 115 334
Width: 993
VWidth: 0
GlyphClass: 2
Flags: HW
PickledData: "(dp1
S'org.pippin.gimp.org.kernagic'
p2
(dp3
S'lstem'
p4
I168
sS'rstem'
p5
I620
ssS'com.typemytype.robofont.guides'
p6
((dp7
S'y'
I381
sS'x'
I77
sS'magnetic'
p8
I5
sS'angle'
p9
F90
sS'isGlobal'
p10
I00
stp11
sS'com.typemytype.robofont.layerData'
p12
(dp13
sS'com.fontlab.hintData'
p14
(dp15
S'vhints'
p16
((dp17
S'position'
p18
I142
sS'width'
p19
I107
s(dp20
g18
I738
sg19
I104
stp21
sS'hhints'
p22
((dp23
g18
I-19
sg19
I92
s(dp24
g18
I982
sg19
I92
stp25
ssS'org.robofab.postScriptHintData'
p26
(dp27
s."
HStem: -19 92 982 92
VStem: 142 107 738 104
AnchorPoint: "bot" 498 1 basechar 0
AnchorPoint: "top" 496 1082 basechar 0
LayerCount: 2
Fore
SplineSet
676 303 m 0
 676 358 653 397 516 444 c 2
 400 483 l 1
 171 562 106 651 106 795 c 0
 106 986 261 1104 513 1104 c 0
 691 1104 835 1046 911 927 c 1
 784 815 l 1
 771 815 l 1
 719 881 633 917 543 917 c 0
 435 917 383 875 383 802 c 0
 383 751 405 719 518 678 c 1
 653 627 l 2
 898 534 930 438 930 311 c 0
 930 86 742 -20 525 -20 c 0
 329 -20 171 43 70 172 c 1
 200 295 l 1
 222 295 l 1
 311 187 426 163 516 163 c 0
 621 163 676 215 676 303 c 0
EndSplineSet
EndChar

StartChar: section
Encoding: 167 167 340
Width: 1049
VWidth: 0
GlyphClass: 2
Flags: HW
PickledData: "(dp1
S'org.pippin.gimp.org.kernagic'
p2
(dp3
S'lstem'
p4
I0
sS'rstem'
p5
I0
ssS'com.typemytype.robofont.layerData'
p6
(dp7
S'b'
(dp8
S'name'
p9
S'section'
p10
sS'lib'
p11
(dp12
sS'unicodes'
p13
(tsS'width'
p14
I1079
sS'contours'
p15
(tsS'components'
p16
(tsS'anchors'
p17
(tsssS'org.robofab.postScriptHintData'
p18
(dp19
s."
LayerCount: 2
Fore
SplineSet
672 610 m 1
 695 634 708 665 708 705 c 0
 708 760 672 806 556 850 c 0
 466 884 413 905 408 907 c 1
 375 890 353 853 353 806 c 0
 353 741 390 719 535 660 c 1
 607 638 657 616 672 610 c 1
506 -20 m 0
 401 -20 278 12 180 62 c 1
 180 254 l 1
 266 208 394 161 505 161 c 0
 613 161 672 208 672 306 c 0
 672 367 632 409 422 487 c 0
 237 557 165 630 165 760 c 0
 165 845 215 919 283 975 c 1
 196 1038 158 1110 158 1207 c 0
 158 1427 334 1515 531 1515 c 0
 640 1515 760 1484 858 1425 c 1
 807 1270 l 1
 745 1303 647 1335 552 1335 c 0
 436 1335 383 1295 383 1222 c 0
 383 1157 405 1131 637 1043 c 0
 836 969 891 888 891 756 c 0
 891 656 851 590 796 536 c 1
 860 479 886 409 886 323 c 0
 886 74 721 -20 506 -20 c 0
EndSplineSet
EndChar

StartChar: semicolon
Encoding: 59 59 341
Width: 740
VWidth: 0
GlyphClass: 2
Flags: HW
PickledData: "(dp1
S'org.pippin.gimp.org.kernagic'
p2
(dp3
S'lstem'
p4
I0
sS'rstem'
p5
I0
ssS'com.typemytype.robofont.layerData'
p6
(dp7
sS'org.robofab.postScriptHintData'
p8
(dp9
s."
LayerCount: 2
Fore
SplineSet
379 810 m 0
 291 810 230 865 230 953 c 0
 230 1042 290 1101 379 1101 c 0
 468 1101 526 1042 526 953 c 0
 526 866 468 810 379 810 c 0
226 -327 m 1
 226 -327 264 226 264 260 c 1
 505 260 l 1
 505 126 l 1
 384 -327 l 1
 226 -327 l 1
EndSplineSet
EndChar

StartChar: seven
Encoding: 55 55 342
Width: 1319
VWidth: 0
GlyphClass: 2
Flags: HW
PickledData: "(dp1
S'org.pippin.gimp.org.kernagic'
p2
(dp3
S'lstem'
p4
I0
sS'rstem'
p5
I0
ssS'com.typemytype.robofont.layerData'
p6
(dp7
sS'org.robofab.postScriptHintData'
p8
(dp9
s."
LayerCount: 2
Fore
SplineSet
332 0 m 1
 847 1252 l 1
 191 1252 l 1
 178 1456 l 1
 1138 1456 l 1
 1141 1257 l 1
 622 0 l 1
 332 0 l 1
EndSplineSet
EndChar

StartChar: six
Encoding: 54 54 343
Width: 1319
VWidth: 0
GlyphClass: 2
Flags: HW
PickledData: "(dp1
S'org.pippin.gimp.org.kernagic'
p2
(dp3
S'lstem'
p4
I0
sS'rstem'
p5
I0
ssS'com.typemytype.robofont.layerData'
p6
(dp7
sS'org.robofab.postScriptHintData'
p8
(dp9
s."
LayerCount: 2
Fore
SplineSet
667 177 m 0
 824 177 914 297 914 452 c 0
 914 615 824 727 670 727 c 0
 550 727 421 643 421 449 c 0
 421 295 510 177 667 177 c 0
669 -20 m 0
 339 -20 150 193 150 459 c 0
 150 653 220 784 334 942 c 1
 699 1456 l 1
 996 1456 l 1
 996 1430 l 1
 846 1231 698 1030 546 833 c 1
 600 867 673 895 760 895 c 0
 978 895 1186 741 1186 447 c 0
 1186 179 990 -20 669 -20 c 0
EndSplineSet
EndChar

StartChar: slash
Encoding: 47 47 344
Width: 996
VWidth: 0
GlyphClass: 2
Flags: HW
PickledData: "(dp1
S'org.pippin.gimp.org.kernagic'
p2
(dp3
S'lstem'
p4
I0
sS'rstem'
p5
I0
ssS'com.typemytype.robofont.layerData'
p6
(dp7
S'b'
(dp8
S'name'
p9
S'slash'
p10
sS'lib'
p11
(dp12
sS'unicodes'
p13
(tsS'width'
p14
I965
sS'contours'
p15
(tsS'components'
p16
(tsS'anchors'
p17
(tsssS'org.robofab.postScriptHintData'
p18
(dp19
s."
LayerCount: 2
Fore
SplineSet
93 -164 m 1
 724 1560 l 1
 911 1560 l 1
 276 -164 l 1
 93 -164 l 1
EndSplineSet
EndChar

StartChar: slashbar
Encoding: 65543 -1 345
Width: 585
VWidth: 0
GlyphClass: 4
Flags: HW
PickledData: "(dp1
S'org.pippin.gimp.org.kernagic'
p2
(dp3
S'lstem'
p4
I0
sS'rstem'
p5
I0
ssS'com.typemytype.robofont.layerData'
p6
(dp7
S'b'
(dp8
S'name'
p9
S'slashbar'
p10
sS'lib'
p11
(dp12
sS'unicodes'
p13
(tsS'width'
p14
I908
sS'contours'
p15
(tsS'components'
p16
(tsS'anchors'
p17
(tsssS'org.robofab.postScriptHintData'
p18
(dp19
s."
AnchorPoint: "mid" 447 688 mark 0
LayerCount: 2
Fore
SplineSet
162 466 m 1
 162 654 l 1
 798 931 l 1
 798 742 l 1
 162 466 l 1
EndSplineSet
EndChar

StartChar: sterling
Encoding: 163 163 347
Width: 1182
VWidth: 0
GlyphClass: 2
Flags: HW
PickledData: "(dp1
S'org.pippin.gimp.org.kernagic'
p2
(dp3
S'lstem'
p4
I0
sS'rstem'
p5
I0
ssS'com.typemytype.robofont.layerData'
p6
(dp7
S'b'
(dp8
S'name'
p9
S'sterling'
p10
sS'lib'
p11
(dp12
sS'unicodes'
p13
(tsS'width'
p14
I1136
sS'contours'
p15
((dp16
S'points'
p17
((dp18
S'segmentType'
p19
S'line'
p20
sS'x'
I20
sS'smooth'
p21
I00
sS'y'
I0
s(dp22
g19
S'line'
p23
sS'x'
I8
sg21
I00
sS'y'
I115
s(dp24
g19
S'line'
p25
sS'x'
I180
sg21
I00
sS'y'
I132
s(dp26
g19
S'line'
p27
sS'x'
I180
sg21
I00
sS'y'
I683
s(dp28
g19
S'line'
p29
sS'x'
I8
sg21
I00
sS'y'
I683
s(dp30
g19
S'line'
p31
sS'x'
I8
sg21
I00
sS'y'
I806
s(dp32
g19
S'line'
p33
sS'x'
I180
sg21
I00
sS'y'
I806
s(dp34
g19
S'line'
p35
sS'x'
I180
sg21
I01
sS'y'
I920
s(dp36
S'y'
I1183
sS'x'
I180
sg21
I00
s(dp37
S'y'
I1476
sS'x'
I245
sg21
I00
s(dp38
g19
S'curve'
p39
sS'x'
I598
sg21
I01
sS'y'
I1476
s(dp40
S'y'
I1476
sS'x'
I742
sg21
I00
s(dp41
S'y'
I1421
sS'x'
I854
sg21
I00
s(dp42
g19
S'curve'
p43
sS'x'
I939
sg21
I00
sS'y'
I1347
s(dp44
g19
S'line'
p45
sS'x'
I871
sg21
I00
sS'y'
I1229
s(dp46
S'y'
I1297
sS'x'
I785
sg21
I00
s(dp47
S'y'
I1334
sS'x'
I700
sg21
I00
s(dp48
g19
S'curve'
p49
sS'x'
I598
sg21
I01
sS'y'
I1334
s(dp50
S'y'
I1334
sS'x'
I397
sg21
I00
s(dp51
S'y'
I1179
sS'x'
I356
sg21
I00
s(dp52
g19
S'curve'
p53
sS'x'
I356
sg21
I01
sS'y'
I949
s(dp54
g19
S'line'
p55
sS'x'
I356
sg21
I00
sS'y'
I806
s(dp56
g19
S'line'
p57
sS'x'
I739
sg21
I00
sS'y'
I806
s(dp58
g19
S'line'
p59
sS'x'
I739
sg21
I00
sS'y'
I683
s(dp60
g19
S'line'
p61
sS'x'
I356
sg21
I00
sS'y'
I683
s(dp62
g19
S'line'
p63
sS'x'
I356
sg21
I00
sS'y'
I134
s(dp64
g19
S'line'
p65
sS'x'
I953
sg21
I00
sS'y'
I134
s(dp66
g19
S'line'
p67
sS'x'
I940
sg21
I00
sS'y'
I0
stp68
stp69
sS'components'
p70
(tsS'anchors'
p71
(tsssS'org.robofab.postScriptHintData'
p72
(dp73
s."
LayerCount: 2
Fore
SplineSet
536 999 m 2
 536 842 l 1
 878 842 l 1
 878 674 l 1
 536 674 l 1
 536 198 l 1
 1081 198 l 1
 1072 0 l 1
 95 0 l 1
 84 176 l 1
 259 196 l 1
 259 674 l 1
 79 674 l 1
 79 842 l 1
 259 842 l 1
 259 968 l 2
 259 1281 367 1518 706 1518 c 0
 908 1518 1036 1431 1085 1386 c 1
 995 1219 l 1
 975 1219 l 1
 904 1265 840 1299 755 1299 c 0
 615 1299 536 1198 536 999 c 2
EndSplineSet
EndChar

StartChar: summation
Encoding: 8721 8721 348
Width: 1132
VWidth: 0
GlyphClass: 2
Flags: HW
PickledData: "(dp1
S'org.pippin.gimp.org.kernagic'
p2
(dp3
S'lstem'
p4
I0
sS'rstem'
p5
I0
ssS'com.typemytype.robofont.layerData'
p6
(dp7
S'b'
(dp8
S'name'
p9
S'summation'
p10
sS'lib'
p11
(dp12
sS'unicodes'
p13
(tsS'width'
p14
I1050
sS'contours'
p15
(tsS'components'
p16
(tsS'anchors'
p17
(tsssS'org.robofab.postScriptHintData'
p18
(dp19
s."
LayerCount: 2
Fore
SplineSet
79 1456 m 1
 1048 1456 l 1
 1048 1246 l 1
 416 1246 l 1
 855 606 l 1
 372 -20 l 1
 1088 -20 l 1
 1088 -237 l 1
 66 -237 l 1
 66 -75 l 1
 567 600 l 1
 79 1290 l 1
 79 1456 l 1
EndSplineSet
EndChar

StartChar: t
Encoding: 116 116 349
Width: 848
VWidth: 0
GlyphClass: 2
Flags: HW
PickledData: "(dp1
S'org.pippin.gimp.org.kernagic'
p2
(dp3
S'lstem'
p4
I189
sS'rstem'
p5
I480
ssS'com.typemytype.robofont.layerData'
p6
(dp7
sS'com.fontlab.hintData'
p8
(dp9
S'vhints'
p10
((dp11
S'position'
p12
I244
sS'width'
p13
I122
s(dp14
g12
I286
sg13
I80
stp15
sS'hhints'
p16
((dp17
g12
I-11
sg13
I83
stp18
ssS'org.robofab.postScriptHintData'
p19
(dp20
s."
HStem: -11 83
VStem: 244 122 286 80
AnchorPoint: "mid" 375 674 basechar 0
AnchorPoint: "bot" 496 0 basechar 0
AnchorPoint: "top" 381 1351 basechar 0
LayerCount: 2
Fore
SplineSet
612 -9 m 1
 263 -9 213 107 213 378 c 2
 213 924 l 1
 47 924 l 1
 53 1069 l 1
 220 1083 l 1
 243 1384 l 1
 481 1403 l 1
 481 1082 l 1
 769 1082 l 1
 769 924 l 1
 481 924 l 1
 481 371 l 2
 481 227 503 186 644 180 c 2
 778 175 l 1
 769 -5 l 1
 612 -9 l 1
EndSplineSet
EndChar

StartChar: thorn
Encoding: 254 254 354
Width: 1161
VWidth: 0
GlyphClass: 2
Flags: HW
PickledData: "(dp1
S'org.pippin.gimp.org.kernagic'
p2
(dp3
S'lstem'
p4
I0
sS'rstem'
p5
I0
ssS'com.typemytype.robofont.layerData'
p6
(dp7
S'b'
(dp8
S'name'
p9
S'thorn'
p10
sS'lib'
p11
(dp12
sS'unicodes'
p13
(tsS'width'
p14
I1221
sS'contours'
p15
(tsS'components'
p16
(tsS'anchors'
p17
(tsssS'org.robofab.postScriptHintData'
p18
(dp19
s."
LayerCount: 2
Fore
SplineSet
149 459 m 1
 414 459 l 1
 414 -444 l 1
 149 -444 l 1
 149 459 l 1
EndSplineSet
Refer: 154 98 N 1 0 0 1 3 0 2
EndChar

StartChar: three
Encoding: 51 51 355
Width: 1236
VWidth: 0
GlyphClass: 2
Flags: HW
PickledData: "(dp1
S'org.pippin.gimp.org.kernagic'
p2
(dp3
S'lstem'
p4
I0
sS'rstem'
p5
I0
ssS'com.typemytype.robofont.layerData'
p6
(dp7
sS'org.robofab.postScriptHintData'
p8
(dp9
s."
LayerCount: 2
Fore
SplineSet
588 -20 m 0
 362 -20 181 91 118 200 c 1
 242 336 l 1
 262 336 l 1
 329 242 451 191 572 191 c 0
 723 191 816 269 816 413 c 0
 816 608 681 655 453 655 c 2
 383 655 l 1
 360 836 l 1
 451 837 l 1
 636 837 788 869 788 1062 c 0
 788 1191 717 1263 572 1263 c 0
 456 1263 356 1222 275 1113 c 1
 254 1116 l 1
 121 1247 l 1
 209 1398 396 1476 584 1476 c 0
 868 1476 1056 1344 1056 1091 c 0
 1056 945 989 800 765 762 c 1
 1006 732 1098 570 1098 399 c 0
 1098 128 869 -20 588 -20 c 0
EndSplineSet
EndChar

StartChar: threequarters
Encoding: 190 190 356
Width: 1734
VWidth: 0
GlyphClass: 2
Flags: HW
PickledData: "(dp1
S'org.pippin.gimp.org.kernagic'
p2
(dp3
S'lstem'
p4
I0
sS'rstem'
p5
I0
ssS'com.typemytype.robofont.layerData'
p6
(dp7
sS'org.robofab.postScriptHintData'
p8
(dp9
s."
LayerCount: 2
Fore
SplineSet
1237 313 m 1
 1451 313 l 1
 1451 664 l 1
 1237 313 l 1
419 0 m 1
 1379 1493 l 1
 1557 1493 l 1
 602 0 l 1
 419 0 l 1
1451 0 m 1
 1451 184 l 1
 1068 184 l 1
 1068 310 l 1
 1441 868 l 1
 1605 868 l 1
 1605 313 l 1
 1718 313 l 1
 1712 184 l 1
 1605 184 l 1
 1605 0 l 1
 1451 0 l 1
366 584 m 0
 278 584 184 609 108 657 c 1
 162 781 l 1
 219 742 295 718 363 718 c 0
 452 718 527 758 527 854 c 0
 527 939 477 989 359 989 c 0
 358 989 356 989 355 989 c 2
 247 988 l 1
 247 1119 l 1
 355 1119 l 2
 470 1119 507 1161 507 1231 c 0
 507 1307 449 1342 369 1342 c 0
 310 1342 237 1322 167 1282 c 1
 112 1392 l 1
 190 1445 293 1475 391 1475 c 0
 534 1475 663 1409 663 1252 c 0
 662 1177 628 1082 523 1060 c 1
 626 1035 682 948 682 852 c 0
 682 670 532 584 366 584 c 0
EndSplineSet
EndChar

StartChar: tilde
Encoding: 732 732 357
Width: 980
VWidth: 0
GlyphClass: 4
Flags: HW
PickledData: "(dp1
S'org.robofab.postScriptHintData'
p2
(dp3
sS'com.typemytype.robofont.layerData'
p4
(dp5
sS'com.fontlab.hintData'
p6
(dp7
S'vhints'
p8
((dp9
S'position'
p10
I169
sS'width'
p11
I63
s(dp12
g10
I657
sg11
I67
stp13
sS'hhints'
p14
((dp15
g10
I1301
sg11
I88
s(dp16
g10
I1400
sg11
I79
stp17
ss."
HStem: 1301 88 1400 79
VStem: 169 63 657 67
AnchorPoint: "top" 490 1073 mark 0
LayerCount: 2
Fore
SplineSet
160 1274 m 1
 160 1404 214 1517 349 1517 c 0
 480 1517 573 1432 632 1432 c 0
 662 1432 682 1452 694 1516 c 1
 813 1516 l 1
 813 1390 761 1274 637 1274 c 0
 528 1274 420 1374 350 1374 c 0
 314 1374 291 1346 278 1274 c 1
 160 1274 l 1
EndSplineSet
EndChar

StartChar: trademark
Encoding: 8482 8482 358
Width: 2126
VWidth: 0
GlyphClass: 2
Flags: HW
PickledData: "(dp1
S'org.robofab.postScriptHintData'
p2
(dp3
sS'com.typemytype.robofont.layerData'
p4
(dp5
S'b'
(dp6
S'name'
p7
S'trademark'
p8
sS'lib'
p9
(dp10
sS'unicodes'
p11
(tsS'width'
p12
I2216
sS'contours'
p13
(tsS'components'
p14
(tsS'anchors'
p15
(tsss."
LayerCount: 2
Fore
SplineSet
366 522 m 1
 366 1317 l 1
 83 1317 l 1
 83 1456 l 1
 827 1456 l 1
 827 1317 l 1
 543 1317 l 1
 543 522 l 1
 366 522 l 1
940 522 m 1
 959 1456 l 1
 1139 1456 l 1
 1439 836 l 1
 1739 1456 l 1
 1918 1456 l 1
 1936 522 l 1
 1774 522 l 1
 1761 1173 l 1
 1489 616 l 1
 1387 616 l 1
 1116 1178 l 1
 1104 522 l 1
 940 522 l 1
EndSplineSet
EndChar

StartChar: two
Encoding: 50 50 359
Width: 1319
VWidth: 0
GlyphClass: 2
Flags: HW
PickledData: "(dp1
S'org.pippin.gimp.org.kernagic'
p2
(dp3
S'lstem'
p4
I0
sS'rstem'
p5
I0
ssS'com.typemytype.robofont.layerData'
p6
(dp7
sS'org.robofab.postScriptHintData'
p8
(dp9
s."
LayerCount: 2
Fore
SplineSet
288 1108 m 1
 265 1108 l 1
 137 1249 l 1
 242 1373 421 1476 635 1476 c 0
 960 1476 1132 1287 1132 1037 c 0
 1132 868 1061 750 863 561 c 2
 483 201 l 1
 1118 201 l 1
 1109 0 l 1
 208 0 l 1
 165 200 l 1
 706 732 l 2
 823 846 874 916 874 1039 c 0
 874 1188 764 1266 632 1266 c 0
 503 1266 369 1203 288 1108 c 1
EndSplineSet
EndChar

StartChar: u
Encoding: 117 117 360
Width: 1235
VWidth: 0
GlyphClass: 2
Flags: HW
PickledData: "(dp1
S'org.pippin.gimp.org.kernagic'
p2
(dp3
S'lstem'
p4
I0
sS'rstem'
p5
I0
ssS'com.typemytype.robofont.layerData'
p6
(dp7
sS'com.fontlab.hintData'
p8
(dp9
S'vhints'
p10
((dp11
S'position'
p12
I162
sS'width'
p13
I166
s(dp14
g12
I862
sg13
I166
stp15
sS'hhints'
p16
((dp17
g12
I-21
sg13
I126
stp18
ssS'org.robofab.postScriptHintData'
p19
(dp20
s."
HStem: -21 126
VStem: 162 166 862 166
AnchorPoint: "bot" 602 1 basechar 0
AnchorPoint: "ogonek" 973 1 basechar 0
AnchorPoint: "top" 625 1083 basechar 0
LayerCount: 2
Fore
SplineSet
818 277 m 1
 818 1082 l 1
 1089 1082 l 1
 1089 0 l 1
 856 0 l 1
 842 148 l 1
 779 54 678 -20 513 -20 c 0
 264 -20 133 132 133 407 c 2
 133 1082 l 1
 404 1082 l 1
 404 431 l 2
 404 243 458 161 589 161 c 0
 714 161 781 229 818 277 c 1
EndSplineSet
EndChar

StartChar: underscore
Encoding: 95 95 368
Width: 954
VWidth: 0
GlyphClass: 2
Flags: HW
PickledData: "(dp1
S'org.pippin.gimp.org.kernagic'
p2
(dp3
S'lstem'
p4
I0
sS'rstem'
p5
I0
ssS'com.typemytype.robofont.layerData'
p6
(dp7
sS'org.robofab.postScriptHintData'
p8
(dp9
s."
LayerCount: 2
Fore
SplineSet
0 -275 m 1
 0 -111 l 1
 954 -111 l 1
 954 -275 l 1
 0 -275 l 1
EndSplineSet
EndChar

StartChar: uni00AD
Encoding: 173 173 371
Width: 970
VWidth: 0
GlyphClass: 2
Flags: HW
PickledData: "(dp1
S'org.robofab.postScriptHintData'
p2
(dp3
s."
LayerCount: 2
Fore
SplineSet
153 292 m 1
 153 480 l 1
 811 480 l 1
 811 292 l 1
 153 292 l 1
EndSplineSet
EndChar

StartChar: uni00B2
Encoding: 178 178 372
Width: 815
VWidth: 0
GlyphClass: 2
Flags: HW
PickledData: "(dp1
S'org.robofab.postScriptHintData'
p2
(dp3
sS'com.typemytype.robofont.layerData'
p4
(dp5
s."
LayerCount: 2
Fore
SplineSet
154 620 m 1
 154 753 l 1
 253 853 287 852 452 1035 c 1
 492 1088 546 1165 546 1211 c 0
 546 1293 485 1346 417 1346 c 0
 332 1346 259 1311 210 1248 c 1
 139 1358 l 1
 204 1447 303 1490 432 1490 c 0
 570 1490 705 1391 705 1215 c 0
 705 1102 655 1002 575 920 c 0
 485 830 510 864 391 753 c 1
 705 753 l 1
 691 620 l 1
 154 620 l 1
EndSplineSet
EndChar

StartChar: uni00B3
Encoding: 179 179 373
Width: 880
VWidth: 0
GlyphClass: 2
Flags: HW
PickledData: "(dp1
S'org.robofab.postScriptHintData'
p2
(dp3
sS'com.typemytype.robofont.layerData'
p4
(dp5
s."
LayerCount: 2
Fore
SplineSet
434 603 m 0
 334 603 233 631 157 683 c 1
 214 802 l 1
 265 758 343 729 429 729 c 0
 526 729 608 774 608 869 c 0
 608 952 553 1009 432 1009 c 0
 431 1009 430 1009 429 1009 c 2
 312 1007 l 1
 312 1129 l 1
 431 1129 l 2
 561 1129 593 1175 593 1245 c 0
 593 1327 526 1362 437 1362 c 0
 359 1362 283 1337 219 1294 c 1
 165 1397 l 1
 242 1454 354 1487 464 1487 c 0
 610 1487 739 1424 739 1261 c 0
 738 1172 695 1093 595 1072 c 1
 692 1052 753 966 753 863 c 0
 753 688 603 603 434 603 c 0
EndSplineSet
EndChar

StartChar: uni00B5
Encoding: 181 181 374
Width: 1221
VWidth: 0
GlyphClass: 2
Flags: HW
PickledData: "(dp1
S'org.robofab.postScriptHintData'
p2
(dp3
sS'com.typemytype.robofont.layerData'
p4
(dp5
s."
LayerCount: 2
Fore
SplineSet
818 277 m 1
 818 1082 l 1
 1089 1082 l 1
 1089 0 l 1
 856 0 l 1
 842 148 l 1
 779 54 678 -20 513 -20 c 0
 474 -20 437 -16 404 -9 c 1
 404 -308 l 1
 133 -308 l 1
 133 1082 l 1
 404 1082 l 1
 404 431 l 2
 404 243 458 161 589 161 c 0
 714 161 781 229 818 277 c 1
EndSplineSet
EndChar

StartChar: uni00B9
Encoding: 185 185 375
Width: 870
VWidth: 0
GlyphClass: 2
Flags: HW
PickledData: "(dp1
S'org.robofab.postScriptHintData'
p2
(dp3
sS'com.typemytype.robofont.layerData'
p4
(dp5
s."
LayerCount: 2
Fore
SplineSet
249 592 m 1
 249 734 l 1
 401 734 l 1
 401 1294 l 1
 363 1274 253 1221 237 1218 c 1
 237 1362 l 1
 289 1385 409 1451 441 1473 c 1
 576 1473 l 1
 576 734 l 1
 728 734 l 1
 728 592 l 1
 249 592 l 1
EndSplineSet
EndChar

StartChar: uni02C9
Encoding: 713 713 444
Width: 600
VWidth: 0
GlyphClass: 4
Flags: HW
PickledData: "(dp1
S'org.robofab.postScriptHintData'
p2
(dp3
s."
AnchorPoint: "top" 299 1073 mark 0
LayerCount: 2
Fore
SplineSet
-38 1333 m 1
 -38 1489 l 1
 626 1489 l 1
 626 1333 l 1
 -38 1333 l 1
EndSplineSet
EndChar

StartChar: uni0307
Encoding: 775 775 445
Width: 536
VWidth: 0
GlyphClass: 2
Flags: HW
PickledData: "(dp1
S'org.robofab.postScriptHintData'
p2
(dp3
sS'com.typemytype.robofont.layerData'
p4
(dp5
s."
LayerCount: 2
Fore
SplineSet
431 1454 m 0
 431 1360 372 1303 272 1303 c 0
 173 1303 113 1360 113 1454 c 0
 113 1544 173 1600 272 1600 c 0
 372 1600 431 1544 431 1454 c 0
EndSplineSet
EndChar

StartChar: uni2074
Encoding: 8308 8308 464
Width: 694
VWidth: 0
GlyphClass: 2
Flags: HW
PickledData: "(dp1
S'org.robofab.postScriptHintData'
p2
(dp3
sS'com.typemytype.robofont.layerData'
p4
(dp5
s."
LayerCount: 2
Fore
SplineSet
179 918 m 1
 378 918 l 1
 379 1276 l 1
 179 918 l 1
378 602 m 1
 378 795 l 1
 17 795 l 1
 17 925 l 1
 369 1474 l 1
 527 1474 l 1
 527 918 l 1
 644 918 l 1
 632 795 l 1
 527 795 l 1
 527 602 l 1
 378 602 l 1
EndSplineSet
EndChar

StartChar: uni2113
Encoding: 8467 8467 465
Width: 1289
VWidth: 0
GlyphClass: 2
Flags: HW
PickledData: "(dp1
S'org.robofab.postScriptHintData'
p2
(dp3
s."
LayerCount: 2
Fore
SplineSet
694 829 m 1
 885 984 l 2
 1017 1091 1138 1179 1138 1364 c 0
 1138 1481 1069 1544 984 1544 c 0
 830 1544 786 1224 765 1134 c 2
 694 829 l 1
297 285 m 0
 297 340 305 403 322 474 c 1
 125 334 l 1
 73 433 l 1
 372 655 l 1
 573 1396 l 2
 634 1617 789 1698 942 1698 c 0
 1118 1698 1289 1586 1289 1365 c 0
 1289 1155 1190 1053 940 865 c 2
 650 646 l 1
 594 417 l 2
 583 373 578 336 578 305 c 0
 578 218 620 182 700 182 c 0
 777 182 870 214 970 261 c 1
 997 98 l 1
 997 98 833 -20 582 -20 c 0
 411 -20 297 73 297 285 c 0
EndSplineSet
EndChar

StartChar: uni2206
Encoding: 8710 8710 467
Width: 1308
VWidth: 0
GlyphClass: 2
Flags: HW
PickledData: "(dp1
S'org.pippin.gimp.org.kernagic'
p2
(dp3
S'lstem'
p4
I0
sS'rstem'
p5
I0
ssS'com.typemytype.robofont.layerData'
p6
(dp7
S'b'
(dp8
S'name'
p9
S'uni2206'
p10
sS'lib'
p11
(dp12
sS'unicodes'
p13
(tsS'width'
p14
I1278
sS'contours'
p15
(tsS'components'
p16
(tsS'anchors'
p17
(tsssS'org.robofab.postScriptHintData'
p18
(dp19
s."
LayerCount: 2
Fore
SplineSet
686 1213 m 1
 652 1334 l 1
 619 1213 l 1
 270 176 l 1
 1042 176 l 1
 686 1213 l 1
562 1566 m 1
 751 1566 l 1
 1243 87 l 1
 1243 0 l 1
 69 0 l 1
 69 87 l 1
 562 1566 l 1
EndSplineSet
EndChar

StartChar: v
Encoding: 118 118 478
Width: 1091
VWidth: 0
GlyphClass: 2
Flags: HW
PickledData: "(dp1
S'org.pippin.gimp.org.kernagic'
p2
(dp3
S'lstem'
p4
I0
sS'rstem'
p5
I0
ssS'com.typemytype.robofont.guides'
p6
((dp7
S'y'
I552
sS'x'
I438
sS'magnetic'
p8
I5
sS'angle'
p9
I0
sS'isGlobal'
p10
I00
stp11
sS'com.typemytype.robofont.layerData'
p12
(dp13
sS'org.robofab.postScriptHintData'
p14
(dp15
s."
LayerCount: 2
Fore
SplineSet
415 0 m 1
 34 1082 l 1
 311 1082 l 1
 394 819 477 555 560 292 c 1
 635 557 712 819 788 1082 c 1
 1060 1082 l 1
 686 0 l 1
 415 0 l 1
EndSplineSet
EndChar

StartChar: w
Encoding: 119 119 479
Width: 1522
VWidth: 0
GlyphClass: 2
Flags: HW
PickledData: "(dp1
S'org.pippin.gimp.org.kernagic'
p2
(dp3
S'lstem'
p4
I0
sS'rstem'
p5
I0
ssS'com.typemytype.robofont.layerData'
p6
(dp7
sS'org.robofab.postScriptHintData'
p8
(dp9
s."
AnchorPoint: "top" 771 1082 basechar 0
LayerCount: 2
Fore
SplineSet
773 823 m 1
 531 -3 l 1
 290 -3 l 1
 13 1082 l 1
 264 1082 l 1
 426 277 l 1
 643 1082 l 1
 898 1082 l 1
 1108 282 l 1
 1272 1082 l 1
 1507 1082 l 1
 1234 -3 l 1
 984 -3 l 1
 773 823 l 1
EndSplineSet
EndChar

StartChar: x
Encoding: 120 120 484
Width: 1078
VWidth: 0
GlyphClass: 2
Flags: HW
PickledData: "(dp1
S'org.pippin.gimp.org.kernagic'
p2
(dp3
S'lstem'
p4
I0
sS'rstem'
p5
I0
ssS'com.typemytype.robofont.layerData'
p6
(dp7
sS'com.fontlab.hintData'
p8
(dp9
S'hhints'
p10
((dp11
S'position'
p12
I0
sS'width'
p13
I22
s(dp14
g12
I1034
sg13
I21
stp15
ssS'org.robofab.postScriptHintData'
p16
(dp17
s."
HStem: 0 22 1034 21
LayerCount: 2
Fore
SplineSet
689 547 m 1
 1055 -3 l 1
 763 -3 l 1
 529 351 l 1
 284 -3 l 1
 24 -3 l 1
 399 546 l 1
 44 1082 l 1
 333 1082 l 1
 559 742 l 1
 784 1082 l 1
 1041 1082 l 1
 689 547 l 1
EndSplineSet
EndChar

StartChar: y
Encoding: 121 121 485
Width: 1134
VWidth: 0
GlyphClass: 2
Flags: HW
PickledData: "(dp1
S'org.pippin.gimp.org.kernagic'
p2
(dp3
S'lstem'
p4
I0
sS'rstem'
p5
I0
ssS'com.typemytype.robofont.layerData'
p6
(dp7
sS'org.robofab.postScriptHintData'
p8
(dp9
s."
AnchorPoint: "top" 567 1082 basechar 0
LayerCount: 2
Fore
SplineSet
1117 1082 m 1
 476 -434 l 1
 255 -358 l 1
 444 99 l 1
 5 1082 l 1
 275 1082 l 1
 578 364 l 1
 864 1082 l 1
 1117 1082 l 1
EndSplineSet
EndChar

StartChar: yen
Encoding: 165 165 489
Width: 1356
VWidth: 0
GlyphClass: 2
Flags: HW
PickledData: "(dp1
S'org.pippin.gimp.org.kernagic'
p2
(dp3
S'lstem'
p4
I0
sS'rstem'
p5
I0
ssS'com.typemytype.robofont.layerData'
p6
(dp7
S'b'
(dp8
S'name'
p9
S'yen'
p10
sS'lib'
p11
(dp12
sS'unicodes'
p13
(tsS'width'
p14
I1366
sS'contours'
p15
(tsS'components'
p16
(tsS'anchors'
p17
(tsssS'org.robofab.postScriptHintData'
p18
(dp19
s."
LayerCount: 2
Fore
SplineSet
822 248 m 1
 1108 248 l 1
 1108 374 l 1
 822 374 l 1
 822 522 l 1
 1108 522 l 1
 1108 648 l 1
 879 648 l 1
 1318 1456 l 1
 1021 1456 l 1
 677 805 l 1
 330 1456 l 1
 38 1456 l 1
 478 648 l 1
 222 648 l 1
 222 522 l 1
 535 522 l 1
 535 374 l 1
 222 374 l 1
 222 248 l 1
 535 248 l 1
 535 0 l 1
 822 0 l 1
 822 248 l 1
EndSplineSet
EndChar

StartChar: z
Encoding: 122 122 491
Width: 985
VWidth: 0
GlyphClass: 2
Flags: HW
PickledData: "(dp1
S'org.pippin.gimp.org.kernagic'
p2
(dp3
S'lstem'
p4
I0
sS'rstem'
p5
I0
ssS'com.typemytype.robofont.layerData'
p6
(dp7
sS'org.robofab.postScriptHintData'
p8
(dp9
s."
AnchorPoint: "bot" 495 0 basechar 0
AnchorPoint: "top" 493 1082 basechar 0
LayerCount: 2
Fore
SplineSet
96 1082 m 1
 895 1082 l 1
 895 924 l 1
 388 178 l 1
 910 178 l 1
 910 0 l 1
 84 0 l 1
 84 144 l 1
 604 911 l 1
 96 911 l 1
 96 1082 l 1
EndSplineSet
EndChar

StartChar: zero
Encoding: 48 48 495
Width: 1319
VWidth: 0
GlyphClass: 2
Flags: HW
PickledData: "(dp1
S'org.pippin.gimp.org.kernagic'
p2
(dp3
S'lstem'
p4
I0
sS'rstem'
p5
I0
ssS'com.typemytype.robofont.layerData'
p6
(dp7
S'b'
(dp8
S'name'
p9
S'zero'
p10
sS'lib'
p11
(dp12
sS'unicodes'
p13
(tsS'width'
p14
I1248
sS'contours'
p15
(tsS'components'
p16
(tsS'anchors'
p17
(tsssS'org.robofab.postScriptHintData'
p18
(dp19
s."
LayerCount: 2
Fore
SplineSet
662 -20 m 0
 301 -20 106 265 106 717 c 0
 106 1179 309 1476 662 1476 c 0
 1016 1476 1213 1180 1213 717 c 0
 1213 265 1024 -20 662 -20 c 0
662 193 m 0
 825 193 921 364 921 720 c 0
 921 1079 825 1263 662 1263 c 0
 502 1263 400 1064 398 720 c 0
 398 363 500 193 662 193 c 0
EndSplineSet
EndChar
